<svg width="1087" height="227" viewBox="0 0 1087 227" fill="none" xmlns="http://www.w3.org/2000/svg">
<path d="M8.4 106.775C8.4 106.092 8.40833 105.55 8.425 105.15C8.45833 104.75 8.575 104.225 8.775 103.575C8.99167 102.908 9.3 102.308 9.7 101.775C10.8667 100.192 12.5667 99.4 14.8 99.4V102.4C13.7 102.4 12.8667 102.775 12.3 103.525C12.0833 103.808 11.9167 104.15 11.8 104.55C11.7 104.933 11.6417 105.267 11.625 105.55C11.6083 105.817 11.6 106.225 11.6 106.775V112.6H8.4V106.775ZM18 106.775C18 106.092 18.0083 105.55 18.025 105.15C18.0583 104.75 18.175 104.225 18.375 103.575C18.5917 102.908 18.9 102.308 19.3 101.775C20.4667 100.192 22.1667 99.4 24.4 99.4V102.4C23.3 102.4 22.4667 102.775 21.9 103.525C21.6833 103.808 21.5167 104.15 21.4 104.55C21.3 104.933 21.2417 105.267 21.225 105.55C21.2083 105.817 21.2 106.225 21.2 106.775V112.6H18V106.775ZM37.1938 119.1H43.1938C43.9938 119.1 44.5521 119.058 44.8688 118.975C45.5521 118.808 46.0938 118.442 46.4938 117.875C46.8938 117.308 47.0938 116.6 47.0938 115.75C47.0938 114.9 46.8938 114.192 46.4938 113.625C46.0938 113.058 45.5521 112.692 44.8688 112.525C44.5188 112.442 43.9604 112.4 43.1938 112.4H37.1938V119.1ZM37.1938 132H42.1938C43.1438 132 43.8938 131.933 44.4438 131.8C45.4271 131.55 46.1938 131 46.7438 130.15C47.3104 129.3 47.5938 128.267 47.5938 127.05C47.5938 125.817 47.3104 124.775 46.7438 123.925C46.1771 123.075 45.4104 122.533 44.4438 122.3C43.8938 122.167 43.1438 122.1 42.1938 122.1H37.1938V132ZM33.9938 135V109.4H43.1938C44.2271 109.4 45.0521 109.475 45.6688 109.625C47.0354 109.958 48.1438 110.675 48.9938 111.775C49.8604 112.858 50.2938 114.183 50.2938 115.75C50.2938 116.817 50.0354 117.783 49.5188 118.65C49.0188 119.5 48.3438 120.183 47.4938 120.7C49.6938 122.283 50.7938 124.4 50.7938 127.05C50.7938 129 50.2938 130.658 49.2938 132.025C48.2938 133.375 46.9688 134.267 45.3188 134.7C44.5688 134.9 43.5271 135 42.1938 135H33.9938ZM88.3813 135H85.1813V109.4H88.3813V119.825L98.3813 109.4H102.656L93.5813 118.875L103.831 135H99.9313L91.5063 121L88.3813 124.125V135ZM123.575 122.2H118.675C118.058 122.2 117.575 122.217 117.225 122.25C116.892 122.283 116.467 122.408 115.95 122.625C115.433 122.825 114.975 123.133 114.575 123.55C113.642 124.533 113.175 125.825 113.175 127.425C113.175 128.842 113.575 130.025 114.375 130.975C115.192 131.925 116.292 132.4 117.675 132.4C118.475 132.4 119.183 132.283 119.8 132.05C120.433 131.817 120.95 131.525 121.35 131.175C121.767 130.825 122.117 130.367 122.4 129.8C122.7 129.233 122.917 128.708 123.05 128.225C123.2 127.725 123.317 127.133 123.4 126.45C123.483 125.767 123.533 125.208 123.55 124.775C123.567 124.342 123.575 123.825 123.575 123.225V122.2ZM119.575 109C121.008 109 122.267 109.225 123.35 109.675C124.433 110.108 125.325 110.942 126.025 112.175C126.525 113.058 126.775 114.425 126.775 116.275V135H123.575V131.925H123.325C121.642 134.242 119.558 135.4 117.075 135.4C115.075 135.4 113.392 134.65 112.025 133.15C110.658 131.65 109.975 129.758 109.975 127.475C109.975 125.075 110.708 123.142 112.175 121.675C112.708 121.158 113.275 120.733 113.875 120.4C114.475 120.067 115.1 119.842 115.75 119.725C116.417 119.592 116.933 119.517 117.3 119.5C117.683 119.467 118.158 119.45 118.725 119.45H123.575V116.4C123.575 114.95 123.425 113.967 123.125 113.45C122.842 112.967 122.433 112.608 121.9 112.375C121.383 112.125 120.608 112 119.575 112C117.575 112 115.175 112.175 112.375 112.525V109.475C115.125 109.158 117.525 109 119.575 109ZM139.569 119.1H145.569C146.369 119.1 146.927 119.058 147.244 118.975C147.927 118.808 148.469 118.442 148.869 117.875C149.269 117.308 149.469 116.6 149.469 115.75C149.469 114.9 149.269 114.192 148.869 113.625C148.469 113.058 147.927 112.692 147.244 112.525C146.894 112.442 146.335 112.4 145.569 112.4H139.569V119.1ZM139.569 132H144.569C145.519 132 146.269 131.933 146.819 131.8C147.802 131.55 148.569 131 149.119 130.15C149.685 129.3 149.969 128.267 149.969 127.05C149.969 125.817 149.685 124.775 149.119 123.925C148.552 123.075 147.785 122.533 146.819 122.3C146.269 122.167 145.519 122.1 144.569 122.1H139.569V132ZM136.369 135V109.4H145.569C146.602 109.4 147.427 109.475 148.044 109.625C149.41 109.958 150.519 110.675 151.369 111.775C152.235 112.858 152.669 114.183 152.669 115.75C152.669 116.817 152.41 117.783 151.894 118.65C151.394 119.5 150.719 120.183 149.869 120.7C152.069 122.283 153.169 124.4 153.169 127.05C153.169 129 152.669 130.658 151.669 132.025C150.669 133.375 149.344 134.267 147.694 134.7C146.944 134.9 145.902 135 144.569 135H136.369ZM165.188 119.1H166.613C167.946 119.1 168.988 119.2 169.738 119.4C171.388 119.833 172.713 120.733 173.713 122.1C174.713 123.45 175.213 125.1 175.213 127.05C175.213 129 174.713 130.658 173.713 132.025C172.713 133.375 171.388 134.267 169.738 134.7C168.988 134.9 167.946 135 166.613 135H161.963V109.4H165.188V119.1ZM165.163 122.1V132H166.613C167.563 132 168.313 131.933 168.863 131.8C169.846 131.55 170.613 131 171.163 130.15C171.729 129.3 172.013 128.267 172.013 127.05C172.013 125.833 171.729 124.8 171.163 123.95C170.613 123.1 169.846 122.55 168.863 122.3C168.313 122.167 167.563 122.1 166.613 122.1H165.163ZM181.163 109.4V135H177.963V109.4H181.163ZM195.056 125.8C193.856 125.8 192.756 125.558 191.756 125.075C190.756 124.592 189.931 123.942 189.281 123.125C188.865 122.608 188.531 122.075 188.281 121.525C188.031 120.975 187.856 120.367 187.756 119.7C187.673 119.033 187.615 118.483 187.581 118.05C187.565 117.617 187.556 117.008 187.556 116.225V109.4H190.756V116.225C190.756 117.142 190.765 117.825 190.781 118.275C190.815 118.725 190.915 119.233 191.081 119.8C191.265 120.35 191.531 120.833 191.881 121.25C192.781 122.283 194.006 122.8 195.556 122.8C197.106 122.8 198.331 122.283 199.231 121.25C199.581 120.833 199.84 120.35 200.006 119.8C200.19 119.233 200.29 118.725 200.306 118.275C200.34 117.825 200.356 117.142 200.356 116.225V109.4H203.556V135H200.356V122.6H200.106C199.49 123.567 198.723 124.342 197.806 124.925C196.906 125.508 195.99 125.8 195.056 125.8ZM216.35 135H213.15V109.4H216.35V119.825L226.35 109.4H230.625L221.55 118.875L231.8 135H227.9L219.475 121L216.35 124.125V135ZM251.544 122.2H246.644C246.027 122.2 245.544 122.217 245.194 122.25C244.86 122.283 244.435 122.408 243.919 122.625C243.402 122.825 242.944 123.133 242.544 123.55C241.61 124.533 241.144 125.825 241.144 127.425C241.144 128.842 241.544 130.025 242.344 130.975C243.16 131.925 244.26 132.4 245.644 132.4C246.444 132.4 247.152 132.283 247.769 132.05C248.402 131.817 248.919 131.525 249.319 131.175C249.735 130.825 250.085 130.367 250.369 129.8C250.669 129.233 250.885 128.708 251.019 128.225C251.169 127.725 251.285 127.133 251.369 126.45C251.452 125.767 251.502 125.208 251.519 124.775C251.535 124.342 251.544 123.825 251.544 123.225V122.2ZM247.544 109C248.977 109 250.235 109.225 251.319 109.675C252.402 110.108 253.294 110.942 253.994 112.175C254.494 113.058 254.744 114.425 254.744 116.275V135H251.544V131.925H251.294C249.61 134.242 247.527 135.4 245.044 135.4C243.044 135.4 241.36 134.65 239.994 133.15C238.627 131.65 237.944 129.758 237.944 127.475C237.944 125.075 238.677 123.142 240.144 121.675C240.677 121.158 241.244 120.733 241.844 120.4C242.444 120.067 243.069 119.842 243.719 119.725C244.385 119.592 244.902 119.517 245.269 119.5C245.652 119.467 246.127 119.45 246.694 119.45H251.544V116.4C251.544 114.95 251.394 113.967 251.094 113.45C250.81 112.967 250.402 112.608 249.869 112.375C249.352 112.125 248.577 112 247.544 112C245.544 112 243.144 112.175 240.344 112.525V109.475C243.094 109.158 245.494 109 247.544 109ZM272.213 118.9H272.463L278.038 109.4H282.213L274.188 120.975V121.225L282.763 135H278.563L272.463 123.3H272.213L266.113 135H261.913L270.488 121.225V120.975L262.463 109.4H266.638L272.213 118.9ZM305.931 105.625C305.931 106.308 305.915 106.85 305.881 107.25C305.865 107.65 305.748 108.183 305.531 108.85C305.331 109.5 305.031 110.092 304.631 110.625C303.465 112.208 301.765 113 299.531 113V110C300.631 110 301.465 109.625 302.031 108.875C302.248 108.592 302.406 108.258 302.506 107.875C302.623 107.475 302.69 107.142 302.706 106.875C302.723 106.592 302.731 106.175 302.731 105.625V99.8H305.931V105.625ZM296.331 105.625C296.331 106.308 296.315 106.85 296.281 107.25C296.265 107.65 296.148 108.183 295.931 108.85C295.731 109.5 295.431 110.092 295.031 110.625C293.865 112.208 292.165 113 289.931 113V110C291.031 110 291.865 109.625 292.431 108.875C292.648 108.592 292.806 108.258 292.906 107.875C293.023 107.475 293.09 107.142 293.106 106.875C293.123 106.592 293.131 106.175 293.131 105.625V99.8H296.331V105.625Z" fill="white"/>
<path d="M14.8 39.95L5.6 42.95L4.55 40.125L13.9 37.075L8.1 29.075L10.75 27.4L16.4 35.175L22.075 27.4L24.725 29.075L18.9 37.075L28.25 40.125L27.2 42.95L18 39.95V49.8H14.8V39.95ZM33.3688 44.8C33.2521 43.6 33.1938 42.0667 33.1938 40.2C33.1938 38.3333 33.2521 36.8 33.3688 35.6C33.5021 34.4 33.8021 33.275 34.2688 32.225C35.7854 28.7417 38.6104 27 42.7438 27C44.4104 27 46.6604 27.1417 49.4938 27.425V30.425C46.6271 30.1417 44.3771 30 42.7438 30C41.3104 30 40.1688 30.275 39.3188 30.825C38.4854 31.3583 37.8021 32.175 37.2688 33.275C37.0021 33.8417 36.7938 34.55 36.6438 35.4C36.5104 36.25 36.4354 36.9833 36.4188 37.6C36.4021 38.2 36.3938 39.0667 36.3938 40.2C36.3938 41.3333 36.4021 42.2083 36.4188 42.825C36.4354 43.425 36.5104 44.15 36.6438 45C36.7938 45.85 37.0021 46.5583 37.2688 47.125C37.8021 48.225 38.4854 49.05 39.3188 49.6C40.1688 50.1333 41.3104 50.4 42.7438 50.4C44.6938 50.4 47.1104 50.1833 49.9938 49.75V52.75C47.1271 53.1833 44.7104 53.4 42.7438 53.4C38.6104 53.4 35.7854 51.6583 34.2688 48.175C33.8021 47.125 33.5021 46 33.3688 44.8ZM62.7125 28.475C64.0625 27.4917 65.6875 27 67.5875 27C69.4875 27 71.1042 27.4917 72.4375 28.475C73.7875 29.4583 74.7708 30.725 75.3875 32.275C75.8208 33.3417 76.0958 34.4667 76.2125 35.65C76.3292 36.8333 76.3875 38.35 76.3875 40.2C76.3875 42.05 76.3292 43.5667 76.2125 44.75C76.0958 45.9333 75.8208 47.0583 75.3875 48.125C74.7708 49.675 73.7875 50.9417 72.4375 51.925C71.1042 52.9083 69.4875 53.4 67.5875 53.4C65.6875 53.4 64.0625 52.9083 62.7125 51.925C61.3792 50.9417 60.4042 49.675 59.7875 48.125C59.3542 47.0583 59.0792 45.9333 58.9625 44.75C58.8458 43.5667 58.7875 42.05 58.7875 40.2C58.7875 38.35 58.8458 36.8333 58.9625 35.65C59.0792 34.4667 59.3542 33.3417 59.7875 32.275C60.4042 30.725 61.3792 29.4583 62.7125 28.475ZM72.3875 33.275C71.5042 31.0917 69.9042 30 67.5875 30C65.2708 30 63.6708 31.0917 62.7875 33.275C62.2542 34.6083 61.9875 36.9167 61.9875 40.2C61.9875 43.4833 62.2542 45.7917 62.7875 47.125C63.6708 49.3083 65.2708 50.4 67.5875 50.4C69.9042 50.4 71.5042 49.3083 72.3875 47.125C72.9208 45.7917 73.1875 43.4833 73.1875 40.2C73.1875 36.9167 72.9208 34.6083 72.3875 33.275ZM123.75 38.925C126.3 40.1583 127.575 42.2833 127.575 45.3C127.575 47.6833 126.725 49.6333 125.025 51.15C123.325 52.65 121.158 53.4 118.525 53.4C116.242 53.4 113.658 53.3167 110.775 53.15V50.15C113.742 50.3167 116.325 50.4 118.525 50.4C120.275 50.4 121.683 49.9417 122.75 49.025C123.833 48.1083 124.375 46.8667 124.375 45.3C124.375 44.05 124.017 42.9917 123.3 42.125C122.583 41.2417 121.65 40.675 120.5 40.425C119.817 40.275 118.792 40.2 117.425 40.2H113.975V37.2H117.45C118.9 37.2 120.008 37.125 120.775 36.975C121.692 36.7917 122.475 36.4 123.125 35.8C123.792 35.1833 124.125 34.4417 124.125 33.575C124.125 32.6083 123.633 31.775 122.65 31.075C121.683 30.3583 120.317 30 118.55 30C116.933 30 114.508 30.1333 111.275 30.4V27.4C114.125 27.1333 116.55 27 118.55 27C121.15 27 123.258 27.6333 124.875 28.9C126.508 30.1667 127.325 31.725 127.325 33.575C127.325 35.9917 126.133 37.6917 123.75 38.675V38.925ZM139.569 37.1H145.569C146.369 37.1 146.927 37.0583 147.244 36.975C147.927 36.8083 148.469 36.4417 148.869 35.875C149.269 35.3083 149.469 34.6 149.469 33.75C149.469 32.9 149.269 32.1917 148.869 31.625C148.469 31.0583 147.927 30.6917 147.244 30.525C146.894 30.4417 146.335 30.4 145.569 30.4H139.569V37.1ZM139.569 50H144.569C145.519 50 146.269 49.9333 146.819 49.8C147.802 49.55 148.569 49 149.119 48.15C149.685 47.3 149.969 46.2667 149.969 45.05C149.969 43.8167 149.685 42.775 149.119 41.925C148.552 41.075 147.785 40.5333 146.819 40.3C146.269 40.1667 145.519 40.1 144.569 40.1H139.569V50ZM136.369 53V27.4H145.569C146.602 27.4 147.427 27.475 148.044 27.625C149.41 27.9583 150.519 28.675 151.369 29.775C152.235 30.8583 152.669 32.1833 152.669 33.75C152.669 34.8167 152.41 35.7833 151.894 36.65C151.394 37.5 150.719 38.1833 149.869 38.7C152.069 40.2833 153.169 42.4 153.169 45.05C153.169 47 152.669 48.6583 151.669 50.025C150.669 51.375 149.344 52.2667 147.694 52.7C146.944 52.9 145.902 53 144.569 53H136.369ZM173.538 18.175C174.054 17.6583 174.729 17.4 175.563 17.4C176.396 17.4 177.071 17.6583 177.588 18.175C178.104 18.6917 178.363 19.3667 178.363 20.2C178.363 21.0333 178.104 21.7083 177.588 22.225C177.071 22.7417 176.396 23 175.563 23C174.729 23 174.054 22.7417 173.538 22.225C173.021 21.7083 172.763 21.0333 172.763 20.2C172.763 19.3667 173.021 18.6917 173.538 18.175ZM162.338 18.175C162.854 17.6583 163.529 17.4 164.363 17.4C165.196 17.4 165.871 17.6583 166.388 18.175C166.904 18.6917 167.163 19.3667 167.163 20.2C167.163 21.0333 166.904 21.7083 166.388 22.225C165.871 22.7417 165.196 23 164.363 23C163.529 23 162.854 22.7417 162.338 22.225C161.821 21.7083 161.562 21.0333 161.562 20.2C161.562 19.3667 161.821 18.6917 162.338 18.175ZM173.013 30.8C172.179 30.2667 171.163 30 169.963 30C168.763 30 167.738 30.2667 166.888 30.8C166.054 31.3333 165.454 32.075 165.088 33.025C164.738 33.825 164.513 35.2167 164.413 37.2H175.513C175.413 35.2167 175.188 33.825 174.838 33.025C174.471 32.075 173.863 31.3333 173.013 30.8ZM164.963 28.4C166.346 27.4667 168.013 27 169.963 27C171.913 27 173.571 27.4667 174.938 28.4C176.321 29.3333 177.288 30.5417 177.838 32.025C178.121 32.7417 178.329 33.5833 178.463 34.55C178.613 35.5167 178.696 36.375 178.713 37.125C178.746 37.8583 178.763 38.8833 178.763 40.2H164.363C164.363 41.3333 164.371 42.2083 164.388 42.825C164.404 43.425 164.471 44.15 164.588 45C164.721 45.85 164.913 46.5583 165.163 47.125C166.129 49.3083 167.896 50.4 170.463 50.4C172.396 50.4 174.896 50.225 177.963 49.875V52.875C174.929 53.225 172.429 53.4 170.463 53.4C168.396 53.4 166.654 52.9167 165.238 51.95C163.821 50.9833 162.796 49.725 162.163 48.175C161.729 47.125 161.454 46 161.338 44.8C161.221 43.6 161.163 42.0667 161.163 40.2C161.163 38.8833 161.171 37.8583 161.188 37.125C161.221 36.375 161.304 35.5167 161.438 34.55C161.588 33.5833 161.804 32.7417 162.088 32.025C162.638 30.5417 163.596 29.3333 164.963 28.4ZM200.531 38.925C203.081 40.1583 204.356 42.2833 204.356 45.3C204.356 47.6833 203.506 49.6333 201.806 51.15C200.106 52.65 197.94 53.4 195.306 53.4C193.023 53.4 190.44 53.3167 187.556 53.15V50.15C190.523 50.3167 193.106 50.4 195.306 50.4C197.056 50.4 198.465 49.9417 199.531 49.025C200.615 48.1083 201.156 46.8667 201.156 45.3C201.156 44.05 200.798 42.9917 200.081 42.125C199.365 41.2417 198.431 40.675 197.281 40.425C196.598 40.275 195.573 40.2 194.206 40.2H190.756V37.2H194.231C195.681 37.2 196.79 37.125 197.556 36.975C198.473 36.7917 199.256 36.4 199.906 35.8C200.573 35.1833 200.906 34.4417 200.906 33.575C200.906 32.6083 200.415 31.775 199.431 31.075C198.465 30.3583 197.098 30 195.331 30C193.715 30 191.29 30.1333 188.056 30.4V27.4C190.906 27.1333 193.331 27 195.331 27C197.931 27 200.04 27.6333 201.656 28.9C203.29 30.1667 204.106 31.725 204.106 33.575C204.106 35.9917 202.915 37.6917 200.531 38.675V38.925ZM215.45 50H225.95V30.4H219.55C219.533 32.3667 219.425 34.3417 219.225 36.325C219.025 38.3083 218.6 40.5833 217.95 43.15C217.317 45.7167 216.483 48 215.45 50ZM212.175 50C213.875 46.65 214.992 43.2167 215.525 39.7C216.075 36.1833 216.35 32.0833 216.35 27.4H229.15V50H232.35V59.4H229.15V53H213.15V59.4H209.95V50H212.175ZM241.869 28.475C243.219 27.4917 244.844 27 246.744 27C248.644 27 250.26 27.4917 251.594 28.475C252.944 29.4583 253.927 30.725 254.544 32.275C254.977 33.3417 255.252 34.4667 255.369 35.65C255.485 36.8333 255.544 38.35 255.544 40.2C255.544 42.05 255.485 43.5667 255.369 44.75C255.252 45.9333 254.977 47.0583 254.544 48.125C253.927 49.675 252.944 50.9417 251.594 51.925C250.26 52.9083 248.644 53.4 246.744 53.4C244.844 53.4 243.219 52.9083 241.869 51.925C240.535 50.9417 239.56 49.675 238.944 48.125C238.51 47.0583 238.235 45.9333 238.119 44.75C238.002 43.5667 237.944 42.05 237.944 40.2C237.944 38.35 238.002 36.8333 238.119 35.65C238.235 34.4667 238.51 33.3417 238.944 32.275C239.56 30.725 240.535 29.4583 241.869 28.475ZM251.544 33.275C250.66 31.0917 249.06 30 246.744 30C244.427 30 242.827 31.0917 241.944 33.275C241.41 34.6083 241.144 36.9167 241.144 40.2C241.144 43.4833 241.41 45.7917 241.944 47.125C242.827 49.3083 244.427 50.4 246.744 50.4C249.06 50.4 250.66 49.3083 251.544 47.125C252.077 45.7917 252.344 43.4833 252.344 40.2C252.344 36.9167 252.077 34.6083 251.544 33.275ZM271.838 43.8C270.638 43.8 269.538 43.5583 268.538 43.075C267.538 42.5917 266.713 41.9417 266.063 41.125C265.646 40.6083 265.313 40.075 265.063 39.525C264.813 38.975 264.638 38.3667 264.538 37.7C264.454 37.0333 264.396 36.4833 264.363 36.05C264.346 35.6167 264.338 35.0083 264.338 34.225V27.4H267.538V34.225C267.538 35.1417 267.546 35.825 267.563 36.275C267.596 36.725 267.696 37.2333 267.863 37.8C268.046 38.35 268.313 38.8333 268.663 39.25C269.563 40.2833 270.788 40.8 272.338 40.8C273.888 40.8 275.113 40.2833 276.013 39.25C276.363 38.8333 276.621 38.35 276.788 37.8C276.971 37.2333 277.071 36.725 277.088 36.275C277.121 35.825 277.138 35.1417 277.138 34.225V27.4H280.338V53H277.138V40.6H276.888C276.271 41.5667 275.504 42.3417 274.588 42.925C273.688 43.5083 272.771 43.8 271.838 43.8ZM293.131 53H289.931V27.4H293.131V37.825L303.131 27.4H307.406L298.331 36.875L308.581 53H304.681L296.256 39L293.131 42.125V53ZM318.65 28.475C320 27.4917 321.625 27 323.525 27C325.425 27 327.042 27.4917 328.375 28.475C329.725 29.4583 330.708 30.725 331.325 32.275C331.758 33.3417 332.033 34.4667 332.15 35.65C332.267 36.8333 332.325 38.35 332.325 40.2C332.325 42.05 332.267 43.5667 332.15 44.75C332.033 45.9333 331.758 47.0583 331.325 48.125C330.708 49.675 329.725 50.9417 328.375 51.925C327.042 52.9083 325.425 53.4 323.525 53.4C321.625 53.4 320 52.9083 318.65 51.925C317.317 50.9417 316.342 49.675 315.725 48.125C315.292 47.0583 315.017 45.9333 314.9 44.75C314.783 43.5667 314.725 42.05 314.725 40.2C314.725 38.35 314.783 36.8333 314.9 35.65C315.017 34.4667 315.292 33.3417 315.725 32.275C316.342 30.725 317.317 29.4583 318.65 28.475ZM328.325 33.275C327.442 31.0917 325.842 30 323.525 30C321.208 30 319.608 31.0917 318.725 33.275C318.192 34.6083 317.925 36.9167 317.925 40.2C317.925 43.4833 318.192 45.7917 318.725 47.125C319.608 49.3083 321.208 50.4 323.525 50.4C325.842 50.4 327.442 49.3083 328.325 47.125C328.858 45.7917 329.125 43.4833 329.125 40.2C329.125 36.9167 328.858 34.6083 328.325 33.275ZM354.419 17.8H357.619C357.619 19.85 356.802 21.5 355.169 22.75C353.552 23.9833 351.535 24.6 349.119 24.6C346.702 24.6 344.677 23.9833 343.044 22.75C341.427 21.5 340.619 19.85 340.619 17.8H343.819C343.819 18.9333 344.269 19.85 345.169 20.55C346.085 21.25 347.402 21.6 349.119 21.6C350.835 21.6 352.144 21.25 353.044 20.55C353.96 19.85 354.419 18.9333 354.419 17.8ZM353.919 53V33.65H353.669L344.319 53H341.119V27.4H344.319V46.75H344.569L353.944 27.4H357.119V53H353.919Z" fill="white"/>
<path d="M620.875 8.35L622.25 10.975C619.05 12.5917 616.575 14.9417 614.825 18.025C613.075 21.1083 612.2 24.9083 612.2 29.425C612.2 33.9417 613.075 37.75 614.825 40.85C616.575 43.9333 619.05 46.275 622.25 47.875L620.875 50.5C617.125 48.6833 614.208 46 612.125 42.45C610.042 38.9 609 34.5583 609 29.425C609 24.2917 610.042 19.9583 612.125 16.425C614.208 12.875 617.125 10.1833 620.875 8.35ZM651.194 21.4V24.4H641.594V47H638.394V24.4H628.794V21.4H651.194ZM660.713 22.475C662.063 21.4917 663.688 21 665.588 21C667.488 21 669.104 21.4917 670.438 22.475C671.788 23.4583 672.771 24.725 673.388 26.275C673.821 27.3417 674.096 28.4667 674.213 29.65C674.329 30.8333 674.388 32.35 674.388 34.2C674.388 36.05 674.329 37.5667 674.213 38.75C674.096 39.9333 673.821 41.0583 673.388 42.125C672.771 43.675 671.788 44.9417 670.438 45.925C669.104 46.9083 667.488 47.4 665.588 47.4C663.688 47.4 662.063 46.9083 660.713 45.925C659.379 44.9417 658.404 43.675 657.788 42.125C657.354 41.0583 657.079 39.9333 656.963 38.75C656.846 37.5667 656.788 36.05 656.788 34.2C656.788 32.35 656.846 30.8333 656.963 29.65C657.079 28.4667 657.354 27.3417 657.788 26.275C658.404 24.725 659.379 23.4583 660.713 22.475ZM670.388 27.275C669.504 25.0917 667.904 24 665.588 24C663.271 24 661.671 25.0917 660.788 27.275C660.254 28.6083 659.988 30.9167 659.988 34.2C659.988 37.4833 660.254 39.7917 660.788 41.125C661.671 43.3083 663.271 44.4 665.588 44.4C667.904 44.4 669.504 43.3083 670.388 41.125C670.921 39.7917 671.188 37.4833 671.188 34.2C671.188 30.9167 670.921 28.6083 670.388 27.275ZM699.181 21.4V47H695.981V24.4H689.581V38.9C689.581 40.35 689.39 41.5917 689.006 42.625C688.623 43.6583 687.99 44.5667 687.106 45.35C686.24 46.1167 685.256 46.65 684.156 46.95C683.073 47.25 681.681 47.4 679.981 47.4V44.4C681.198 44.4 682.19 44.3167 682.956 44.15C683.723 43.9833 684.373 43.6583 684.906 43.175C685.473 42.6583 685.856 42.0833 686.056 41.45C686.273 40.8 686.381 39.95 686.381 38.9V21.4H699.181ZM712 31.1H716.975C718.308 31.1 719.35 31.2 720.1 31.4C721.75 31.8333 723.075 32.7333 724.075 34.1C725.075 35.45 725.575 37.1 725.575 39.05C725.575 41 725.075 42.6583 724.075 44.025C723.075 45.375 721.75 46.2667 720.1 46.7C719.35 46.9 718.308 47 716.975 47H708.775V21.4H712V31.1ZM711.975 34.1V44H716.975C717.925 44 718.675 43.9333 719.225 43.8C720.208 43.55 720.975 43 721.525 42.15C722.092 41.3 722.375 40.2667 722.375 39.05C722.375 37.8333 722.092 36.8 721.525 35.95C720.975 35.1 720.208 34.55 719.225 34.3C718.675 34.1667 717.925 34.1 716.975 34.1H711.975ZM737.569 47H734.369V21.4H737.569V31.825L747.569 21.4H751.844L742.769 30.875L753.019 47H749.119L740.694 33L737.569 36.125V47ZM763.088 22.475C764.438 21.4917 766.063 21 767.963 21C769.863 21 771.479 21.4917 772.813 22.475C774.163 23.4583 775.146 24.725 775.763 26.275C776.196 27.3417 776.471 28.4667 776.588 29.65C776.704 30.8333 776.763 32.35 776.763 34.2C776.763 36.05 776.704 37.5667 776.588 38.75C776.471 39.9333 776.196 41.0583 775.763 42.125C775.146 43.675 774.163 44.9417 772.813 45.925C771.479 46.9083 769.863 47.4 767.963 47.4C766.063 47.4 764.438 46.9083 763.088 45.925C761.754 44.9417 760.779 43.675 760.163 42.125C759.729 41.0583 759.454 39.9333 759.338 38.75C759.221 37.5667 759.163 36.05 759.163 34.2C759.163 32.35 759.221 30.8333 759.338 29.65C759.454 28.4667 759.729 27.3417 760.163 26.275C760.779 24.725 761.754 23.4583 763.088 22.475ZM772.763 27.275C771.879 25.0917 770.279 24 767.963 24C765.646 24 764.046 25.0917 763.163 27.275C762.629 28.6083 762.363 30.9167 762.363 34.2C762.363 37.4833 762.629 39.7917 763.163 41.125C764.046 43.3083 765.646 44.4 767.963 44.4C770.279 44.4 771.879 43.3083 772.763 41.125C773.296 39.7917 773.563 37.4833 773.563 34.2C773.563 30.9167 773.296 28.6083 772.763 27.275ZM811.15 21.4H827.15V47H823.95V24.4H814.35V47H811.15V21.4ZM839.869 22.475C841.219 21.4917 842.844 21 844.744 21C846.644 21 848.26 21.4917 849.594 22.475C850.944 23.4583 851.927 24.725 852.544 26.275C852.977 27.3417 853.252 28.4667 853.369 29.65C853.485 30.8333 853.544 32.35 853.544 34.2C853.544 36.05 853.485 37.5667 853.369 38.75C853.252 39.9333 852.977 41.0583 852.544 42.125C851.927 43.675 850.944 44.9417 849.594 45.925C848.26 46.9083 846.644 47.4 844.744 47.4C842.844 47.4 841.219 46.9083 839.869 45.925C838.535 44.9417 837.56 43.675 836.944 42.125C836.51 41.0583 836.235 39.9333 836.119 38.75C836.002 37.5667 835.944 36.05 835.944 34.2C835.944 32.35 836.002 30.8333 836.119 29.65C836.235 28.4667 836.51 27.3417 836.944 26.275C837.56 24.725 838.535 23.4583 839.869 22.475ZM849.544 27.275C848.66 25.0917 847.06 24 844.744 24C842.427 24 840.827 25.0917 839.944 27.275C839.41 28.6083 839.144 30.9167 839.144 34.2C839.144 37.4833 839.41 39.7917 839.944 41.125C840.827 43.3083 842.427 44.4 844.744 44.4C847.06 44.4 848.66 43.3083 849.544 41.125C850.077 39.7917 850.344 37.4833 850.344 34.2C850.344 30.9167 850.077 28.6083 849.544 27.275ZM887.306 38.8C887.19 37.6 887.131 36.0667 887.131 34.2C887.131 32.3333 887.19 30.8 887.306 29.6C887.44 28.4 887.74 27.275 888.206 26.225C889.723 22.7417 892.548 21 896.681 21C898.348 21 900.598 21.1417 903.431 21.425V24.425C900.565 24.1417 898.315 24 896.681 24C895.248 24 894.106 24.275 893.256 24.825C892.423 25.3583 891.74 26.175 891.206 27.275C890.94 27.8417 890.731 28.55 890.581 29.4C890.448 30.25 890.373 30.9833 890.356 31.6C890.34 32.2 890.331 33.0667 890.331 34.2C890.331 35.3333 890.34 36.2083 890.356 36.825C890.373 37.425 890.448 38.15 890.581 39C890.731 39.85 890.94 40.5583 891.206 41.125C891.74 42.225 892.423 43.05 893.256 43.6C894.106 44.1333 895.248 44.4 896.681 44.4C898.631 44.4 901.048 44.1833 903.931 43.75V46.75C901.065 47.1833 898.648 47.4 896.681 47.4C892.548 47.4 889.723 45.6583 888.206 42.175C887.74 41.125 887.44 40 887.306 38.8ZM924.575 24.8C923.742 24.2667 922.725 24 921.525 24C920.325 24 919.3 24.2667 918.45 24.8C917.617 25.3333 917.017 26.075 916.65 27.025C916.3 27.825 916.075 29.2167 915.975 31.2H927.075C926.975 29.2167 926.75 27.825 926.4 27.025C926.033 26.075 925.425 25.3333 924.575 24.8ZM916.525 22.4C917.908 21.4667 919.575 21 921.525 21C923.475 21 925.133 21.4667 926.5 22.4C927.883 23.3333 928.85 24.5417 929.4 26.025C929.683 26.7417 929.892 27.5833 930.025 28.55C930.175 29.5167 930.258 30.375 930.275 31.125C930.308 31.8583 930.325 32.8833 930.325 34.2H915.925C915.925 35.3333 915.933 36.2083 915.95 36.825C915.967 37.425 916.033 38.15 916.15 39C916.283 39.85 916.475 40.5583 916.725 41.125C917.692 43.3083 919.458 44.4 922.025 44.4C923.958 44.4 926.458 44.225 929.525 43.875V46.875C926.492 47.225 923.992 47.4 922.025 47.4C919.958 47.4 918.217 46.9167 916.8 45.95C915.383 44.9833 914.358 43.725 913.725 42.175C913.292 41.125 913.017 40 912.9 38.8C912.783 37.6 912.725 36.0667 912.725 34.2C912.725 32.8833 912.733 31.8583 912.75 31.125C912.783 30.375 912.867 29.5167 913 28.55C913.15 27.5833 913.367 26.7417 913.65 26.025C914.2 24.5417 915.158 23.3333 916.525 22.4ZM942.319 47H939.119V21.4H942.319V31.825L952.319 21.4H956.594L947.519 30.875L957.769 47H953.869L945.444 33L942.319 36.125V47ZM973.613 47.4C971.479 47.4 969.663 46.225 968.163 43.875H967.913V56.6H964.713V21.4H967.913V24.525H968.163C969.663 22.175 971.479 21 973.613 21C975.263 21 976.729 21.525 978.013 22.575C979.296 23.6083 980.229 25.0583 980.813 26.925C981.029 27.625 981.188 28.4083 981.288 29.275C981.404 30.1417 981.471 30.8833 981.488 31.5C981.504 32.1 981.513 33 981.513 34.2C981.513 35.4 981.504 36.3083 981.488 36.925C981.471 37.525 981.404 38.2583 981.288 39.125C981.188 39.9917 981.029 40.775 980.813 41.475C980.229 43.3417 979.296 44.8 978.013 45.85C976.729 46.8833 975.263 47.4 973.613 47.4ZM970.263 43.325C971.046 44.0417 971.996 44.4 973.113 44.4C974.229 44.4 975.171 44.0417 975.938 43.325C976.721 42.5917 977.296 41.6833 977.663 40.6C978.096 39.2833 978.313 37.15 978.313 34.2C978.313 31.25 978.096 29.1167 977.663 27.8C977.296 26.7167 976.721 25.8167 975.938 25.1C975.171 24.3667 974.229 24 973.113 24C971.996 24 971.046 24.3667 970.263 25.1C969.496 25.8167 968.929 26.7167 968.563 27.8C968.129 29.1167 967.913 31.25 967.913 34.2C967.913 37.15 968.129 39.2833 968.563 40.6C968.929 41.6833 969.496 42.5917 970.263 43.325ZM1001.36 24.8C1000.52 24.2667 999.506 24 998.306 24C997.106 24 996.081 24.2667 995.231 24.8C994.398 25.3333 993.798 26.075 993.431 27.025C993.081 27.825 992.856 29.2167 992.756 31.2H1003.86C1003.76 29.2167 1003.53 27.825 1003.18 27.025C1002.81 26.075 1002.21 25.3333 1001.36 24.8ZM993.306 22.4C994.69 21.4667 996.356 21 998.306 21C1000.26 21 1001.91 21.4667 1003.28 22.4C1004.66 23.3333 1005.63 24.5417 1006.18 26.025C1006.46 26.7417 1006.67 27.5833 1006.81 28.55C1006.96 29.5167 1007.04 30.375 1007.06 31.125C1007.09 31.8583 1007.11 32.8833 1007.11 34.2H992.706C992.706 35.3333 992.715 36.2083 992.731 36.825C992.748 37.425 992.815 38.15 992.931 39C993.065 39.85 993.256 40.5583 993.506 41.125C994.473 43.3083 996.24 44.4 998.806 44.4C1000.74 44.4 1003.24 44.225 1006.31 43.875V46.875C1003.27 47.225 1000.77 47.4 998.806 47.4C996.74 47.4 994.998 46.9167 993.581 45.95C992.165 44.9833 991.14 43.725 990.506 42.175C990.073 41.125 989.798 40 989.681 38.8C989.565 37.6 989.506 36.0667 989.506 34.2C989.506 32.8833 989.515 31.8583 989.531 31.125C989.565 30.375 989.648 29.5167 989.781 28.55C989.931 27.5833 990.148 26.7417 990.431 26.025C990.981 24.5417 991.94 23.3333 993.306 22.4ZM1035.1 21.4V24.4H1025.5V47H1022.3V24.4H1012.7V21.4H1035.1ZM1050.22 41C1051.8 36.1333 1053.58 29.6 1055.54 21.4H1058.82C1058.74 21.7167 1058.54 22.5083 1058.22 23.775C1057.92 25.025 1057.73 25.8333 1057.64 26.2C1057.56 26.55 1057.38 27.2917 1057.09 28.425C1056.81 29.5417 1056.6 30.3333 1056.47 30.8C1056.35 31.25 1056.16 31.9917 1055.89 33.025C1055.63 34.0417 1055.4 34.8417 1055.22 35.425C1055.05 36.0083 1054.83 36.7833 1054.54 37.75C1054.26 38.7167 1053.99 39.575 1053.74 40.325C1053.51 41.075 1053.24 41.9167 1052.92 42.85C1052.62 43.7833 1052.31 44.7083 1051.99 45.625C1051.59 46.7583 1051.28 47.6083 1051.04 48.175C1050.83 48.7583 1050.51 49.4167 1050.09 50.15C1049.68 50.8833 1049.23 51.4417 1048.74 51.825C1047.18 53.1417 1044.76 53.8 1041.49 53.8V50.8C1043.88 50.8 1045.51 50.4583 1046.39 49.775C1046.78 49.4917 1047.13 49.0583 1047.44 48.475C1047.78 47.8917 1048.04 47.35 1048.22 46.85C1048.42 46.35 1048.79 45.3333 1049.32 43.8H1048.02C1046.22 40.5333 1044.71 37.0833 1043.49 33.45C1042.29 29.8167 1041.19 25.8 1040.19 21.4H1043.47C1045.2 29.3667 1047.37 35.9 1049.97 41H1050.22ZM1068.61 8.35C1072.36 10.1833 1075.28 12.875 1077.36 16.425C1079.45 19.9583 1080.49 24.2917 1080.49 29.425C1080.49 34.5583 1079.45 38.9 1077.36 42.45C1075.28 46 1072.36 48.6833 1068.61 50.5L1067.24 47.875C1070.44 46.275 1072.91 43.9333 1074.66 40.85C1076.41 37.75 1077.29 33.9417 1077.29 29.425C1077.29 24.9083 1076.41 21.1083 1074.66 18.025C1072.91 14.9417 1070.44 12.5917 1067.24 10.975L1068.61 8.35Z" fill="white"/>
<path d="M17.6 217H14.4V191.4H17.6V201.825L27.6 191.4H31.875L22.8 200.875L33.05 217H29.15L20.725 203L17.6 206.125V217ZM39.3688 208.8C39.2521 207.6 39.1938 206.067 39.1938 204.2C39.1938 202.333 39.2521 200.8 39.3688 199.6C39.5021 198.4 39.8021 197.275 40.2688 196.225C41.7854 192.742 44.6104 191 48.7438 191C50.4104 191 52.6604 191.142 55.4938 191.425V194.425C52.6271 194.142 50.3771 194 48.7438 194C47.3104 194 46.1688 194.275 45.3188 194.825C44.4854 195.358 43.8021 196.175 43.2688 197.275C43.0021 197.842 42.7938 198.55 42.6438 199.4C42.5104 200.25 42.4354 200.983 42.4188 201.6C42.4021 202.2 42.3938 203.067 42.3938 204.2C42.3938 205.333 42.4021 206.208 42.4188 206.825C42.4354 207.425 42.5104 208.15 42.6438 209C42.7938 209.85 43.0021 210.558 43.2688 211.125C43.8021 212.225 44.4854 213.05 45.3188 213.6C46.1688 214.133 47.3104 214.4 48.7438 214.4C50.6938 214.4 53.1104 214.183 55.9938 213.75V216.75C53.1271 217.183 50.7104 217.4 48.7438 217.4C44.6104 217.4 41.7854 215.658 40.2688 212.175C39.8021 211.125 39.5021 210 39.3688 208.8ZM84.7875 191.4V194.4H75.1875V217H71.9875V194.4H62.3875V191.4H84.7875ZM103.981 204.2H99.0813C98.4646 204.2 97.9813 204.217 97.6313 204.25C97.2979 204.283 96.8729 204.408 96.3563 204.625C95.8396 204.825 95.3813 205.133 94.9813 205.55C94.0479 206.533 93.5813 207.825 93.5813 209.425C93.5813 210.842 93.9813 212.025 94.7813 212.975C95.5979 213.925 96.6979 214.4 98.0813 214.4C98.8813 214.4 99.5896 214.283 100.206 214.05C100.84 213.817 101.356 213.525 101.756 213.175C102.173 212.825 102.523 212.367 102.806 211.8C103.106 211.233 103.323 210.708 103.456 210.225C103.606 209.725 103.723 209.133 103.806 208.45C103.89 207.767 103.94 207.208 103.956 206.775C103.973 206.342 103.981 205.825 103.981 205.225V204.2ZM99.9813 191C101.415 191 102.673 191.225 103.756 191.675C104.84 192.108 105.731 192.942 106.431 194.175C106.931 195.058 107.181 196.425 107.181 198.275V217H103.981V213.925H103.731C102.048 216.242 99.9646 217.4 97.4813 217.4C95.4813 217.4 93.7979 216.65 92.4313 215.15C91.0646 213.65 90.3813 211.758 90.3813 209.475C90.3813 207.075 91.1146 205.142 92.5813 203.675C93.1146 203.158 93.6813 202.733 94.2813 202.4C94.8813 202.067 95.5063 201.842 96.1563 201.725C96.8229 201.592 97.3396 201.517 97.7063 201.5C98.0896 201.467 98.5646 201.45 99.1313 201.45H103.981V198.4C103.981 196.95 103.831 195.967 103.531 195.45C103.248 194.967 102.84 194.608 102.306 194.375C101.79 194.125 101.015 194 99.9813 194C97.9813 194 95.5813 194.175 92.7813 194.525V191.475C95.5313 191.158 97.9313 191 99.9813 191ZM135.975 191.4V194.4H126.375V217H123.175V194.4H113.575V191.4H135.975ZM155.169 217V197.65H154.919L145.569 217H142.369V191.4H145.569V210.75H145.819L155.194 191.4H158.369V217H155.169ZM173.363 211.2C174.029 210.533 174.896 210.2 175.963 210.2C177.029 210.2 177.896 210.533 178.563 211.2C179.229 211.867 179.563 212.733 179.563 213.8C179.563 214.867 179.229 215.733 178.563 216.4C177.896 217.067 177.029 217.4 175.963 217.4C174.896 217.4 174.029 217.067 173.363 216.4C172.696 215.733 172.363 214.867 172.363 213.8C172.363 212.733 172.696 211.867 173.363 211.2ZM177.563 204.2H174.363L174.113 181.8H177.813L177.563 204.2Z" fill="white"/>
<path d="M608.7 123H619.2V103.4H612.8C612.783 105.367 612.675 107.342 612.475 109.325C612.275 111.308 611.85 113.583 611.2 116.15C610.567 118.717 609.733 121 608.7 123ZM605.425 123C607.125 119.65 608.242 116.217 608.775 112.7C609.325 109.183 609.6 105.083 609.6 100.4H622.4V123H625.6V132.4H622.4V126H606.4V132.4H603.2V123H605.425ZM635.119 101.475C636.469 100.492 638.094 100 639.994 100C641.894 100 643.51 100.492 644.844 101.475C646.194 102.458 647.177 103.725 647.794 105.275C648.227 106.342 648.502 107.467 648.619 108.65C648.735 109.833 648.794 111.35 648.794 113.2C648.794 115.05 648.735 116.567 648.619 117.75C648.502 118.933 648.227 120.058 647.794 121.125C647.177 122.675 646.194 123.942 644.844 124.925C643.51 125.908 641.894 126.4 639.994 126.4C638.094 126.4 636.469 125.908 635.119 124.925C633.785 123.942 632.81 122.675 632.194 121.125C631.76 120.058 631.485 118.933 631.369 117.75C631.252 116.567 631.194 115.05 631.194 113.2C631.194 111.35 631.252 109.833 631.369 108.65C631.485 107.467 631.76 106.342 632.194 105.275C632.81 103.725 633.785 102.458 635.119 101.475ZM644.794 106.275C643.91 104.092 642.31 103 639.994 103C637.677 103 636.077 104.092 635.194 106.275C634.66 107.608 634.394 109.917 634.394 113.2C634.394 116.483 634.66 118.792 635.194 120.125C636.077 122.308 637.677 123.4 639.994 123.4C642.31 123.4 643.91 122.308 644.794 120.125C645.327 118.792 645.594 116.483 645.594 113.2C645.594 109.917 645.327 107.608 644.794 106.275ZM673.588 100.4V126H670.388V103.4H663.988V117.9C663.988 119.35 663.796 120.592 663.413 121.625C663.029 122.658 662.396 123.567 661.513 124.35C660.646 125.117 659.663 125.65 658.563 125.95C657.479 126.25 656.088 126.4 654.388 126.4V123.4C655.604 123.4 656.596 123.317 657.363 123.15C658.129 122.983 658.779 122.658 659.313 122.175C659.879 121.658 660.263 121.083 660.463 120.45C660.679 119.8 660.788 118.95 660.788 117.9V100.4H673.588ZM686.406 110.1H691.381C692.715 110.1 693.756 110.2 694.506 110.4C696.156 110.833 697.481 111.733 698.481 113.1C699.481 114.45 699.981 116.1 699.981 118.05C699.981 120 699.481 121.658 698.481 123.025C697.481 124.375 696.156 125.267 694.506 125.7C693.756 125.9 692.715 126 691.381 126H683.181V100.4H686.406V110.1ZM686.381 113.1V123H691.381C692.331 123 693.081 122.933 693.631 122.8C694.615 122.55 695.381 122 695.931 121.15C696.498 120.3 696.781 119.267 696.781 118.05C696.781 116.833 696.498 115.8 695.931 114.95C695.381 114.1 694.615 113.55 693.631 113.3C693.081 113.167 692.331 113.1 691.381 113.1H686.381ZM716.275 116.8C715.075 116.8 713.975 116.558 712.975 116.075C711.975 115.592 711.15 114.942 710.5 114.125C710.083 113.608 709.75 113.075 709.5 112.525C709.25 111.975 709.075 111.367 708.975 110.7C708.892 110.033 708.833 109.483 708.8 109.05C708.783 108.617 708.775 108.008 708.775 107.225V100.4H711.975V107.225C711.975 108.142 711.983 108.825 712 109.275C712.033 109.725 712.133 110.233 712.3 110.8C712.483 111.35 712.75 111.833 713.1 112.25C714 113.283 715.225 113.8 716.775 113.8C718.325 113.8 719.55 113.283 720.45 112.25C720.8 111.833 721.058 111.35 721.225 110.8C721.408 110.233 721.508 109.725 721.525 109.275C721.558 108.825 721.575 108.142 721.575 107.225V100.4H724.775V126H721.575V113.6H721.325C720.708 114.567 719.942 115.342 719.025 115.925C718.125 116.508 717.208 116.8 716.275 116.8ZM745.419 103.8C744.585 103.267 743.569 103 742.369 103C741.169 103 740.144 103.267 739.294 103.8C738.46 104.333 737.86 105.075 737.494 106.025C737.144 106.825 736.919 108.217 736.819 110.2H747.919C747.819 108.217 747.594 106.825 747.244 106.025C746.877 105.075 746.269 104.333 745.419 103.8ZM737.369 101.4C738.752 100.467 740.419 100 742.369 100C744.319 100 745.977 100.467 747.344 101.4C748.727 102.333 749.694 103.542 750.244 105.025C750.527 105.742 750.735 106.583 750.869 107.55C751.019 108.517 751.102 109.375 751.119 110.125C751.152 110.858 751.169 111.883 751.169 113.2H736.769C736.769 114.333 736.777 115.208 736.794 115.825C736.81 116.425 736.877 117.15 736.994 118C737.127 118.85 737.319 119.558 737.569 120.125C738.535 122.308 740.302 123.4 742.869 123.4C744.802 123.4 747.302 123.225 750.369 122.875V125.875C747.335 126.225 744.835 126.4 742.869 126.4C740.802 126.4 739.06 125.917 737.644 124.95C736.227 123.983 735.202 122.725 734.569 121.175C734.135 120.125 733.86 119 733.744 117.8C733.627 116.6 733.569 115.067 733.569 113.2C733.569 111.883 733.577 110.858 733.594 110.125C733.627 109.375 733.71 108.517 733.844 107.55C733.994 106.583 734.21 105.742 734.494 105.025C735.044 103.542 736.002 102.333 737.369 101.4ZM764.813 108.975C763.129 109.542 761.763 110.433 760.713 111.65C759.679 112.85 759.163 114.333 759.163 116.1C759.163 118.183 759.946 119.925 761.513 121.325C763.096 122.708 765.246 123.4 767.963 123.4C770.513 123.4 772.504 122.75 773.938 121.45L764.813 108.975ZM766.188 105.525C767.171 105.275 768.038 104.983 768.788 104.65C769.554 104.317 770.288 103.883 770.988 103.35C771.688 102.817 772.229 102.15 772.613 101.35C772.996 100.55 773.188 99.6417 773.188 98.625C773.188 97.0583 772.713 95.7833 771.763 94.8C770.813 93.8 769.546 93.3 767.963 93.3C766.396 93.3 765.129 93.7917 764.163 94.775C763.213 95.7417 762.738 97.0333 762.738 98.65C762.738 98.9167 762.746 99.1667 762.763 99.4C762.779 99.6167 762.821 99.85 762.888 100.1C762.971 100.35 763.029 100.558 763.063 100.725C763.113 100.892 763.221 101.125 763.388 101.425C763.554 101.708 763.671 101.917 763.738 102.05C763.804 102.183 763.963 102.433 764.213 102.8C764.479 103.167 764.663 103.425 764.763 103.575C764.863 103.708 765.088 104.017 765.438 104.5C765.788 104.983 766.038 105.325 766.188 105.525ZM775.663 118.525C775.863 117.808 775.963 116.708 775.963 115.225V110H779.163V115.225C779.163 117.992 778.721 120.092 777.838 121.525L781.113 126H777.238L775.763 123.95C773.763 125.583 771.163 126.4 767.963 126.4C764.296 126.4 761.379 125.4 759.213 123.4C757.046 121.4 755.963 118.967 755.963 116.1C755.963 113.867 756.613 111.892 757.913 110.175C759.213 108.458 760.896 107.217 762.963 106.45C762.279 105.5 761.804 104.833 761.538 104.45C761.271 104.05 760.938 103.492 760.538 102.775C760.154 102.042 759.888 101.367 759.738 100.75C759.604 100.117 759.538 99.425 759.538 98.675C759.538 96.1917 760.329 94.175 761.913 92.625C763.513 91.075 765.529 90.3 767.963 90.3C770.429 90.3 772.446 91.0917 774.013 92.675C775.596 94.2583 776.388 96.2417 776.388 98.625C776.388 100.825 775.663 102.783 774.213 104.5C772.779 106.2 770.729 107.4 768.063 108.1L775.663 118.525ZM785.556 100.4H801.556V103.4H788.756V126H785.556V100.4ZM823.95 113.2H819.05C818.433 113.2 817.95 113.217 817.6 113.25C817.267 113.283 816.842 113.408 816.325 113.625C815.808 113.825 815.35 114.133 814.95 114.55C814.017 115.533 813.55 116.825 813.55 118.425C813.55 119.842 813.95 121.025 814.75 121.975C815.567 122.925 816.667 123.4 818.05 123.4C818.85 123.4 819.558 123.283 820.175 123.05C820.808 122.817 821.325 122.525 821.725 122.175C822.142 121.825 822.492 121.367 822.775 120.8C823.075 120.233 823.292 119.708 823.425 119.225C823.575 118.725 823.692 118.133 823.775 117.45C823.858 116.767 823.908 116.208 823.925 115.775C823.942 115.342 823.95 114.825 823.95 114.225V113.2ZM819.95 100C821.383 100 822.642 100.225 823.725 100.675C824.808 101.108 825.7 101.942 826.4 103.175C826.9 104.058 827.15 105.425 827.15 107.275V126H823.95V122.925H823.7C822.017 125.242 819.933 126.4 817.45 126.4C815.45 126.4 813.767 125.65 812.4 124.15C811.033 122.65 810.35 120.758 810.35 118.475C810.35 116.075 811.083 114.142 812.55 112.675C813.083 112.158 813.65 111.733 814.25 111.4C814.85 111.067 815.475 110.842 816.125 110.725C816.792 110.592 817.308 110.517 817.675 110.5C818.058 110.467 818.533 110.45 819.1 110.45H823.95V107.4C823.95 105.95 823.8 104.967 823.5 104.45C823.217 103.967 822.808 103.608 822.275 103.375C821.758 103.125 820.983 103 819.95 103C817.95 103 815.55 103.175 812.75 103.525V100.475C815.5 100.158 817.9 100 819.95 100ZM844.744 103C843.527 103 842.477 103.292 841.594 103.875C840.727 104.458 840.144 105.258 839.844 106.275C839.377 107.825 839.144 110.133 839.144 113.2C839.144 114.267 839.152 115.117 839.169 115.75C839.202 116.383 839.277 117.117 839.394 117.95C839.51 118.783 839.694 119.508 839.944 120.125C840.344 121.142 840.96 121.942 841.794 122.525C842.627 123.108 843.61 123.4 844.744 123.4C845.91 123.4 846.927 123.108 847.794 122.525C848.66 121.925 849.244 121.125 849.544 120.125C850.077 118.342 850.344 116.033 850.344 113.2C850.344 110.117 850.077 107.808 849.544 106.275C849.194 105.258 848.602 104.458 847.769 103.875C846.952 103.292 845.944 103 844.744 103ZM845.244 100C847.077 100 848.644 100.5 849.944 101.5C851.244 102.483 852.144 103.742 852.644 105.275C853.244 107.108 853.544 109.75 853.544 113.2C853.544 114.467 853.527 115.45 853.494 116.15C853.477 116.833 853.385 117.642 853.219 118.575C853.069 119.492 852.844 120.342 852.544 121.125C851.16 124.642 848.394 126.4 844.244 126.4C842.594 126.4 841.11 125.9 839.794 124.9C838.477 123.883 837.527 122.625 836.944 121.125C836.277 119.375 835.944 117.267 835.944 114.8C835.944 111.467 835.952 109.025 835.969 107.475C835.985 105.908 836.035 104.292 836.119 102.625C836.202 100.942 836.327 99.725 836.494 98.975C837.094 96.3583 838.26 94.4083 839.994 93.125C841.06 92.325 842.169 91.75 843.319 91.4C844.485 91.05 845.502 90.8833 846.369 90.9C847.252 90.9 848.302 90.875 849.519 90.825C850.735 90.7583 851.81 90.6 852.744 90.35V93.425C851.777 93.6083 850.51 93.725 848.944 93.775C847.377 93.825 846.035 93.95 844.919 94.15C843.819 94.35 842.86 94.775 842.044 95.425C840.244 96.8417 839.294 99.3833 839.194 103.05H839.444C840.344 102.017 841.235 101.25 842.119 100.75C843.002 100.25 844.044 100 845.244 100ZM875.138 113.2H870.238C869.621 113.2 869.138 113.217 868.788 113.25C868.454 113.283 868.029 113.408 867.513 113.625C866.996 113.825 866.538 114.133 866.138 114.55C865.204 115.533 864.738 116.825 864.738 118.425C864.738 119.842 865.138 121.025 865.938 121.975C866.754 122.925 867.854 123.4 869.238 123.4C870.038 123.4 870.746 123.283 871.363 123.05C871.996 122.817 872.513 122.525 872.913 122.175C873.329 121.825 873.679 121.367 873.963 120.8C874.263 120.233 874.479 119.708 874.613 119.225C874.763 118.725 874.879 118.133 874.963 117.45C875.046 116.767 875.096 116.208 875.113 115.775C875.129 115.342 875.138 114.825 875.138 114.225V113.2ZM871.138 100C872.571 100 873.829 100.225 874.913 100.675C875.996 101.108 876.888 101.942 877.588 103.175C878.088 104.058 878.338 105.425 878.338 107.275V126H875.138V122.925H874.888C873.204 125.242 871.121 126.4 868.638 126.4C866.638 126.4 864.954 125.65 863.588 124.15C862.221 122.65 861.538 120.758 861.538 118.475C861.538 116.075 862.271 114.142 863.738 112.675C864.271 112.158 864.838 111.733 865.438 111.4C866.038 111.067 866.663 110.842 867.313 110.725C867.979 110.592 868.496 110.517 868.863 110.5C869.246 110.467 869.721 110.45 870.288 110.45H875.138V107.4C875.138 105.95 874.988 104.967 874.688 104.45C874.404 103.967 873.996 103.608 873.463 103.375C872.946 103.125 872.171 103 871.138 103C869.138 103 866.738 103.175 863.938 103.525V100.475C866.688 100.158 869.088 100 871.138 100ZM887.931 100.4H891.131V110.2H900.731V100.4H903.931V126H900.731V113.2H891.131V126H887.931V100.4ZM926.325 113.2H921.425C920.808 113.2 920.325 113.217 919.975 113.25C919.642 113.283 919.217 113.408 918.7 113.625C918.183 113.825 917.725 114.133 917.325 114.55C916.392 115.533 915.925 116.825 915.925 118.425C915.925 119.842 916.325 121.025 917.125 121.975C917.942 122.925 919.042 123.4 920.425 123.4C921.225 123.4 921.933 123.283 922.55 123.05C923.183 122.817 923.7 122.525 924.1 122.175C924.517 121.825 924.867 121.367 925.15 120.8C925.45 120.233 925.667 119.708 925.8 119.225C925.95 118.725 926.067 118.133 926.15 117.45C926.233 116.767 926.283 116.208 926.3 115.775C926.317 115.342 926.325 114.825 926.325 114.225V113.2ZM922.325 100C923.758 100 925.017 100.225 926.1 100.675C927.183 101.108 928.075 101.942 928.775 103.175C929.275 104.058 929.525 105.425 929.525 107.275V126H926.325V122.925H926.075C924.392 125.242 922.308 126.4 919.825 126.4C917.825 126.4 916.142 125.65 914.775 124.15C913.408 122.65 912.725 120.758 912.725 118.475C912.725 116.075 913.458 114.142 914.925 112.675C915.458 112.158 916.025 111.733 916.625 111.4C917.225 111.067 917.85 110.842 918.5 110.725C919.167 110.592 919.683 110.517 920.05 110.5C920.433 110.467 920.908 110.45 921.475 110.45H926.325V107.4C926.325 105.95 926.175 104.967 925.875 104.45C925.592 103.967 925.183 103.608 924.65 103.375C924.133 103.125 923.358 103 922.325 103C920.325 103 917.925 103.175 915.125 103.525V100.475C917.875 100.158 920.275 100 922.325 100Z" fill="white"/>
<path d="M612.8 194.4V204.4H619.2V194.4H612.8ZM625.6 204.4V207.4H622.4V217H619.2V207.4H612.8V217H609.6V207.4H606.4V204.4H609.6V194.4H606.4V191.4H609.6V181.8H612.8V191.4H619.2V181.8H622.4V191.4H625.6V194.4H622.4V204.4H625.6ZM640.894 217.4C638.76 217.4 636.944 216.225 635.444 213.875H635.194V226.6H631.994V191.4H635.194V194.525H635.444C636.944 192.175 638.76 191 640.894 191C642.544 191 644.01 191.525 645.294 192.575C646.577 193.608 647.51 195.058 648.094 196.925C648.31 197.625 648.469 198.408 648.569 199.275C648.685 200.142 648.752 200.883 648.769 201.5C648.785 202.1 648.794 203 648.794 204.2C648.794 205.4 648.785 206.308 648.769 206.925C648.752 207.525 648.685 208.258 648.569 209.125C648.469 209.992 648.31 210.775 648.094 211.475C647.51 213.342 646.577 214.8 645.294 215.85C644.01 216.883 642.544 217.4 640.894 217.4ZM637.544 213.325C638.327 214.042 639.277 214.4 640.394 214.4C641.51 214.4 642.452 214.042 643.219 213.325C644.002 212.592 644.577 211.683 644.944 210.6C645.377 209.283 645.594 207.15 645.594 204.2C645.594 201.25 645.377 199.117 644.944 197.8C644.577 196.717 644.002 195.817 643.219 195.1C642.452 194.367 641.51 194 640.394 194C639.277 194 638.327 194.367 637.544 195.1C636.777 195.817 636.21 196.717 635.844 197.8C635.41 199.117 635.194 201.25 635.194 204.2C635.194 207.15 635.41 209.283 635.844 210.6C636.21 211.683 636.777 212.592 637.544 213.325ZM668.638 194.8C667.804 194.267 666.788 194 665.588 194C664.388 194 663.363 194.267 662.513 194.8C661.679 195.333 661.079 196.075 660.713 197.025C660.363 197.825 660.138 199.217 660.038 201.2H671.138C671.038 199.217 670.813 197.825 670.463 197.025C670.096 196.075 669.488 195.333 668.638 194.8ZM660.588 192.4C661.971 191.467 663.638 191 665.588 191C667.538 191 669.196 191.467 670.563 192.4C671.946 193.333 672.913 194.542 673.463 196.025C673.746 196.742 673.954 197.583 674.088 198.55C674.238 199.517 674.321 200.375 674.338 201.125C674.371 201.858 674.388 202.883 674.388 204.2H659.988C659.988 205.333 659.996 206.208 660.013 206.825C660.029 207.425 660.096 208.15 660.213 209C660.346 209.85 660.538 210.558 660.788 211.125C661.754 213.308 663.521 214.4 666.088 214.4C668.021 214.4 670.521 214.225 673.588 213.875V216.875C670.554 217.225 668.054 217.4 666.088 217.4C664.021 217.4 662.279 216.917 660.863 215.95C659.446 214.983 658.421 213.725 657.788 212.175C657.354 211.125 657.079 210 656.963 208.8C656.846 207.6 656.788 206.067 656.788 204.2C656.788 202.883 656.796 201.858 656.813 201.125C656.846 200.375 656.929 199.517 657.063 198.55C657.213 197.583 657.429 196.742 657.713 196.025C658.263 194.542 659.221 193.333 660.588 192.4ZM686.381 217H683.181V191.4H686.381V201.825L696.381 191.4H700.656L691.581 200.875L701.831 217H697.931L689.506 203L686.381 206.125V217ZM711.9 192.475C713.25 191.492 714.875 191 716.775 191C718.675 191 720.292 191.492 721.625 192.475C722.975 193.458 723.958 194.725 724.575 196.275C725.008 197.342 725.283 198.467 725.4 199.65C725.517 200.833 725.575 202.35 725.575 204.2C725.575 206.05 725.517 207.567 725.4 208.75C725.283 209.933 725.008 211.058 724.575 212.125C723.958 213.675 722.975 214.942 721.625 215.925C720.292 216.908 718.675 217.4 716.775 217.4C714.875 217.4 713.25 216.908 711.9 215.925C710.567 214.942 709.592 213.675 708.975 212.125C708.542 211.058 708.267 209.933 708.15 208.75C708.033 207.567 707.975 206.05 707.975 204.2C707.975 202.35 708.033 200.833 708.15 199.65C708.267 198.467 708.542 197.342 708.975 196.275C709.592 194.725 710.567 193.458 711.9 192.475ZM721.575 197.275C720.692 195.092 719.092 194 716.775 194C714.458 194 712.858 195.092 711.975 197.275C711.442 198.608 711.175 200.917 711.175 204.2C711.175 207.483 711.442 209.792 711.975 211.125C712.858 213.308 714.458 214.4 716.775 214.4C719.092 214.4 720.692 213.308 721.575 211.125C722.108 209.792 722.375 207.483 722.375 204.2C722.375 200.917 722.108 198.608 721.575 197.275ZM734.369 217H731.169V191.4H734.369L742.244 204.15H742.519L750.369 191.4H753.569V217H750.369V197.1H750.119L743.744 207.4H740.994L734.619 197.1H734.369V217ZM771.013 194.8C770.179 194.267 769.163 194 767.963 194C766.763 194 765.738 194.267 764.888 194.8C764.054 195.333 763.454 196.075 763.088 197.025C762.738 197.825 762.513 199.217 762.413 201.2H773.513C773.413 199.217 773.188 197.825 772.838 197.025C772.471 196.075 771.863 195.333 771.013 194.8ZM762.963 192.4C764.346 191.467 766.013 191 767.963 191C769.913 191 771.571 191.467 772.938 192.4C774.321 193.333 775.288 194.542 775.838 196.025C776.121 196.742 776.329 197.583 776.463 198.55C776.613 199.517 776.696 200.375 776.713 201.125C776.746 201.858 776.763 202.883 776.763 204.2H762.363C762.363 205.333 762.371 206.208 762.388 206.825C762.404 207.425 762.471 208.15 762.588 209C762.721 209.85 762.913 210.558 763.163 211.125C764.129 213.308 765.896 214.4 768.463 214.4C770.396 214.4 772.896 214.225 775.963 213.875V216.875C772.929 217.225 770.429 217.4 768.463 217.4C766.396 217.4 764.654 216.917 763.238 215.95C761.821 214.983 760.796 213.725 760.163 212.175C759.729 211.125 759.454 210 759.338 208.8C759.221 207.6 759.163 206.067 759.163 204.2C759.163 202.883 759.171 201.858 759.188 201.125C759.221 200.375 759.304 199.517 759.438 198.55C759.588 197.583 759.804 196.742 760.088 196.025C760.638 194.542 761.596 193.333 762.963 192.4ZM785.556 191.4H788.756V201.2H798.356V191.4H801.556V217H798.356V204.2H788.756V217H785.556V191.4ZM813.45 214H823.95V194.4H817.55C817.533 196.367 817.425 198.342 817.225 200.325C817.025 202.308 816.6 204.583 815.95 207.15C815.317 209.717 814.483 212 813.45 214ZM810.175 214C811.875 210.65 812.992 207.217 813.525 203.7C814.075 200.183 814.35 196.083 814.35 191.4H827.15V214H830.35V223.4H827.15V217H811.15V223.4H807.95V214H810.175ZM849.544 204.2H844.644C844.027 204.2 843.544 204.217 843.194 204.25C842.86 204.283 842.435 204.408 841.919 204.625C841.402 204.825 840.944 205.133 840.544 205.55C839.61 206.533 839.144 207.825 839.144 209.425C839.144 210.842 839.544 212.025 840.344 212.975C841.16 213.925 842.26 214.4 843.644 214.4C844.444 214.4 845.152 214.283 845.769 214.05C846.402 213.817 846.919 213.525 847.319 213.175C847.735 212.825 848.085 212.367 848.369 211.8C848.669 211.233 848.885 210.708 849.019 210.225C849.169 209.725 849.285 209.133 849.369 208.45C849.452 207.767 849.502 207.208 849.519 206.775C849.535 206.342 849.544 205.825 849.544 205.225V204.2ZM845.544 191C846.977 191 848.235 191.225 849.319 191.675C850.402 192.108 851.294 192.942 851.994 194.175C852.494 195.058 852.744 196.425 852.744 198.275V217H849.544V213.925H849.294C847.61 216.242 845.527 217.4 843.044 217.4C841.044 217.4 839.36 216.65 837.994 215.15C836.627 213.65 835.944 211.758 835.944 209.475C835.944 207.075 836.677 205.142 838.144 203.675C838.677 203.158 839.244 202.733 839.844 202.4C840.444 202.067 841.069 201.842 841.719 201.725C842.385 201.592 842.902 201.517 843.269 201.5C843.652 201.467 844.127 201.45 844.694 201.45H849.544V198.4C849.544 196.95 849.394 195.967 849.094 195.45C848.81 194.967 848.402 194.608 847.869 194.375C847.352 194.125 846.577 194 845.544 194C843.544 194 841.144 194.175 838.344 194.525V191.475C841.094 191.158 843.494 191 845.544 191ZM862.338 217V191.4H865.538V214H875.138V191.4H878.338V214H881.538V223.4H878.338V217H862.338ZM900.731 217V197.65H900.481L891.131 217H887.931V191.4H891.131V210.75H891.381L900.756 191.4H903.931V217H900.731ZM926.325 217V197.65H926.075L916.725 217H913.525V191.4H916.725V210.75H916.975L926.35 191.4H929.525V217H926.325Z" fill="white"/>
<rect x="1.5" y="13.5" width="29" height="44" stroke="#00FF29" stroke-width="3"/>
<rect x="286.5" y="94.5" width="24" height="44" stroke="#00FF29" stroke-width="3"/>
<rect x="601.5" y="1.5" width="24" height="53" stroke="#00FF29" stroke-width="3"/>
<rect x="1061.5" y="2.5" width="24" height="53" stroke="#00FF29" stroke-width="3"/>
<rect x="3.5" y="94.5" width="24" height="44" stroke="#00FF29" stroke-width="3"/>
<rect x="600.5" y="177.5" width="27" height="44" stroke="#00FF29" stroke-width="3"/>
<rect x="164.5" y="177.5" width="24" height="44" stroke="#00FF29" stroke-width="3"/>
<rect x="754.5" y="85.5" width="27" height="50" stroke="#00FF29" stroke-width="3"/>
</svg>
