<svg width="1458" height="576" viewBox="0 0 1458 576" fill="none" xmlns="http://www.w3.org/2000/svg">
<path d="M3 125H1445.5" stroke="#00FF29" stroke-width="3"/>
<path d="M0 191H1442.5" stroke="#00FF29" stroke-width="3"/>
<path d="M15 269H1457.5" stroke="#00FF29" stroke-width="3"/>
<path d="M164.575 51.425C168.625 48.475 173.5 47 179.2 47C184.9 47 189.75 48.475 193.75 51.425C197.8 54.375 200.75 58.175 202.6 62.825C203.9 66.025 204.725 69.4 205.075 72.95C205.425 76.5 205.6 81.05 205.6 86.6C205.6 92.15 205.425 96.7 205.075 100.25C204.725 103.8 203.9 107.175 202.6 110.375C200.75 115.025 197.8 118.825 193.75 121.775C189.75 124.725 184.9 126.2 179.2 126.2C173.5 126.2 168.625 124.725 164.575 121.775C160.575 118.825 157.65 115.025 155.8 110.375C154.5 107.175 153.675 103.8 153.325 100.25C152.975 96.7 152.8 92.15 152.8 86.6C152.8 81.05 152.975 76.5 153.325 72.95C153.675 69.4 154.5 66.025 155.8 62.825C157.65 58.175 160.575 54.375 164.575 51.425ZM193.6 65.825C190.95 59.275 186.15 56 179.2 56C172.25 56 167.45 59.275 164.8 65.825C163.2 69.825 162.4 76.75 162.4 86.6C162.4 96.45 163.2 103.375 164.8 107.375C167.45 113.925 172.25 117.2 179.2 117.2C186.15 117.2 190.95 113.925 193.6 107.375C195.2 103.375 196 96.45 196 86.6C196 76.75 195.2 69.825 193.6 65.825ZM231.981 48.2H241.581V77.6H270.381V48.2H279.981V125H270.381V86.6H241.581V125H231.981V48.2ZM347.163 125V66.95H346.413L318.363 125H308.763V48.2H318.363V106.25H319.113L347.238 48.2H356.763V125H347.163ZM395.144 97.4H414.344V123.275C414.344 125.325 414.294 126.95 414.194 128.15C414.144 129.35 413.794 130.925 413.144 132.875C412.544 134.875 411.644 136.675 410.444 138.275C406.944 143.025 401.844 145.4 395.144 145.4V136.4C398.444 136.4 400.944 135.275 402.644 133.025C403.294 132.175 403.769 131.15 404.069 129.95C404.419 128.8 404.619 127.8 404.669 126.95C404.719 126.15 404.744 124.925 404.744 123.275V115.4H395.144V97.4ZM539.106 48.2H587.106V125H577.506V57.2H548.706V125H539.106V48.2ZM625.263 51.425C629.313 48.475 634.188 47 639.888 47C645.588 47 650.438 48.475 654.438 51.425C658.488 54.375 661.438 58.175 663.288 62.825C664.588 66.025 665.413 69.4 665.763 72.95C666.113 76.5 666.288 81.05 666.288 86.6C666.288 92.15 666.113 96.7 665.763 100.25C665.413 103.8 664.588 107.175 663.288 110.375C661.438 115.025 658.488 118.825 654.438 121.775C650.438 124.725 645.588 126.2 639.888 126.2C634.188 126.2 629.313 124.725 625.263 121.775C621.263 118.825 618.338 115.025 616.488 110.375C615.188 107.175 614.363 103.8 614.013 100.25C613.663 96.7 613.488 92.15 613.488 86.6C613.488 81.05 613.663 76.5 614.013 72.95C614.363 69.4 615.188 66.025 616.488 62.825C618.338 58.175 621.263 54.375 625.263 51.425ZM654.288 65.825C651.638 59.275 646.838 56 639.888 56C632.938 56 628.138 59.275 625.488 65.825C623.888 69.825 623.088 76.75 623.088 86.6C623.088 96.45 623.888 103.375 625.488 107.375C628.138 113.925 632.938 117.2 639.888 117.2C646.838 117.2 651.638 113.925 654.288 107.375C655.888 103.375 656.688 96.45 656.688 86.6C656.688 76.75 655.888 69.825 654.288 65.825ZM711.869 125V88.85H706.619L689.744 125H679.769L698.819 84.875L684.044 48.2H693.794L706.994 81.35H711.869V48.2H721.469V81.35H726.344L739.544 48.2H749.294L734.519 84.875L753.569 125H743.594L726.719 88.85H721.469V125H711.869ZM807.85 86.6H793.15C791.3 86.6 789.85 86.65 788.8 86.75C787.8 86.85 786.525 87.225 784.975 87.875C783.425 88.475 782.05 89.4 780.85 90.65C778.05 93.6 776.65 97.475 776.65 102.275C776.65 106.525 777.85 110.075 780.25 112.925C782.7 115.775 786 117.2 790.15 117.2C792.55 117.2 794.675 116.85 796.525 116.15C798.425 115.45 799.975 114.575 801.175 113.525C802.425 112.475 803.475 111.1 804.325 109.4C805.225 107.7 805.875 106.125 806.275 104.675C806.725 103.175 807.075 101.4 807.325 99.35C807.575 97.3 807.725 95.625 807.775 94.325C807.825 93.025 807.85 91.475 807.85 89.675V86.6ZM795.85 47C800.15 47 803.925 47.675 807.175 49.025C810.425 50.325 813.1 52.825 815.2 56.525C816.7 59.175 817.45 63.275 817.45 68.825V125H807.85V115.775H807.1C802.05 122.725 795.8 126.2 788.35 126.2C782.35 126.2 777.3 123.95 773.2 119.45C769.1 114.95 767.05 109.275 767.05 102.425C767.05 95.225 769.25 89.425 773.65 85.025C775.25 83.475 776.95 82.2 778.75 81.2C780.55 80.2 782.425 79.525 784.375 79.175C786.375 78.775 787.925 78.55 789.025 78.5C790.175 78.4 791.6 78.35 793.3 78.35H807.85V69.2C807.85 64.85 807.4 61.9 806.5 60.35C805.65 58.9 804.425 57.825 802.825 57.125C801.275 56.375 798.95 56 795.85 56C789.85 56 782.65 56.525 774.25 57.575V48.425C782.5 47.475 789.7 47 795.85 47ZM894.231 48.2V125H884.631V57.2H865.431V100.7C865.431 105.05 864.856 108.775 863.706 111.875C862.556 114.975 860.656 117.7 858.006 120.05C855.406 122.35 852.456 123.95 849.156 124.85C845.906 125.75 841.731 126.2 836.631 126.2V117.2C840.281 117.2 843.256 116.95 845.556 116.45C847.856 115.95 849.806 114.975 851.406 113.525C853.106 111.975 854.256 110.25 854.856 108.35C855.506 106.4 855.831 103.85 855.831 100.7V48.2H894.231ZM949.188 107C953.938 92.4 959.263 72.8 965.163 48.2H974.988C974.738 49.15 974.138 51.525 973.188 55.325C972.288 59.075 971.713 61.5 971.463 62.6C971.213 63.65 970.663 65.875 969.813 69.275C968.963 72.625 968.338 75 967.938 76.4C967.588 77.75 967.013 79.975 966.213 83.075C965.413 86.125 964.738 88.525 964.188 90.275C963.688 92.025 963.013 94.35 962.163 97.25C961.313 100.15 960.513 102.725 959.763 104.975C959.063 107.225 958.238 109.75 957.288 112.55C956.388 115.35 955.463 118.125 954.513 120.875C953.313 124.275 952.363 126.825 951.663 128.525C951.013 130.275 950.063 132.25 948.813 134.45C947.563 136.65 946.213 138.325 944.763 139.475C940.063 143.425 932.813 145.4 923.013 145.4V136.4C930.163 136.4 935.063 135.375 937.713 133.325C938.863 132.475 939.913 131.175 940.863 129.425C941.863 127.675 942.638 126.05 943.188 124.55C943.788 123.05 944.888 120 946.488 115.4H942.588C937.188 105.6 932.663 95.25 929.013 84.35C925.413 73.45 922.113 61.4 919.113 48.2H928.938C934.138 72.1 940.638 91.7 948.438 107H949.188ZM1039.69 19.4H1049.29C1049.29 25.55 1046.84 30.5 1041.94 34.25C1037.09 37.95 1031.04 39.8 1023.79 39.8C1016.54 39.8 1010.47 37.95 1005.57 34.25C1000.72 30.5 998.294 25.55 998.294 19.4H1007.89C1007.89 22.8 1009.24 25.55 1011.94 27.65C1014.69 29.75 1018.64 30.8 1023.79 30.8C1028.94 30.8 1032.87 29.75 1035.57 27.65C1038.32 25.55 1039.69 22.8 1039.69 19.4ZM1038.19 125V66.95H1037.44L1009.39 125H999.794V48.2H1009.39V106.25H1010.14L1038.27 48.2H1047.79V125H1038.19ZM1086.18 97.4H1105.38V123.275C1105.38 125.325 1105.33 126.95 1105.23 128.15C1105.18 129.35 1104.83 130.925 1104.18 132.875C1103.58 134.875 1102.68 136.675 1101.48 138.275C1097.98 143.025 1092.88 145.4 1086.18 145.4V136.4C1089.48 136.4 1091.98 135.275 1093.68 133.025C1094.33 132.175 1094.8 131.15 1095.1 129.95C1095.45 128.8 1095.65 127.8 1095.7 126.95C1095.75 126.15 1095.78 124.925 1095.78 123.275V115.4H1086.18V97.4ZM164.8 221.3H182.8C185.2 221.3 186.875 221.175 187.825 220.925C189.875 220.425 191.5 219.325 192.7 217.625C193.9 215.925 194.5 213.8 194.5 211.25C194.5 208.7 193.9 206.575 192.7 204.875C191.5 203.175 189.875 202.075 187.825 201.575C186.775 201.325 185.1 201.2 182.8 201.2H164.8V221.3ZM164.8 260H179.8C182.65 260 184.9 259.8 186.55 259.4C189.5 258.65 191.8 257 193.45 254.45C195.15 251.9 196 248.8 196 245.15C196 241.45 195.15 238.325 193.45 235.775C191.75 233.225 189.45 231.6 186.55 230.9C184.9 230.5 182.65 230.3 179.8 230.3H164.8V260ZM155.2 269V192.2H182.8C185.9 192.2 188.375 192.425 190.225 192.875C194.325 193.875 197.65 196.025 200.2 199.325C202.8 202.575 204.1 206.55 204.1 211.25C204.1 214.45 203.325 217.35 201.775 219.95C200.275 222.5 198.25 224.55 195.7 226.1C202.3 230.85 205.6 237.2 205.6 245.15C205.6 251 204.1 255.975 201.1 260.075C198.1 264.125 194.125 266.8 189.175 268.1C186.925 268.7 183.8 269 179.8 269H155.2ZM265.131 202.4C262.631 200.8 259.581 200 255.981 200C252.381 200 249.306 200.8 246.756 202.4C244.256 204 242.456 206.225 241.356 209.075C240.306 211.475 239.631 215.65 239.331 221.6H272.631C272.331 215.65 271.656 211.475 270.606 209.075C269.506 206.225 267.681 204 265.131 202.4ZM240.981 195.2C245.131 192.4 250.131 191 255.981 191C261.831 191 266.806 192.4 270.906 195.2C275.056 198 277.956 201.625 279.606 206.075C280.456 208.225 281.081 210.75 281.481 213.65C281.931 216.55 282.181 219.125 282.231 221.375C282.331 223.575 282.381 226.65 282.381 230.6H239.181C239.181 234 239.206 236.625 239.256 238.475C239.306 240.275 239.506 242.45 239.856 245C240.256 247.55 240.831 249.675 241.581 251.375C244.481 257.925 249.781 261.2 257.481 261.2C263.281 261.2 270.781 260.675 279.981 259.625V268.625C270.881 269.675 263.381 270.2 257.481 270.2C251.281 270.2 246.056 268.75 241.806 265.85C237.556 262.95 234.481 259.175 232.581 254.525C231.281 251.375 230.456 248 230.106 244.4C229.756 240.8 229.581 236.2 229.581 230.6C229.581 226.65 229.606 223.575 229.656 221.375C229.756 219.125 230.006 216.55 230.406 213.65C230.856 210.75 231.506 208.225 232.356 206.075C234.006 201.625 236.881 198 240.981 195.2ZM356.763 192.2V269H347.163V201.2H327.963V244.7C327.963 249.05 327.388 252.775 326.238 255.875C325.088 258.975 323.188 261.7 320.538 264.05C317.938 266.35 314.988 267.95 311.688 268.85C308.438 269.75 304.263 270.2 299.163 270.2V261.2C302.813 261.2 305.788 260.95 308.088 260.45C310.388 259.95 312.338 258.975 313.938 257.525C315.638 255.975 316.788 254.25 317.388 252.35C318.038 250.4 318.363 247.85 318.363 244.7V192.2H356.763ZM423.944 269V210.95H423.194L395.144 269H385.544V192.2H395.144V250.25H395.894L424.019 192.2H433.544V269H423.944ZM471.925 269H462.325V192.2H471.925V223.475L501.925 192.2H514.75L487.525 220.625L518.275 269H506.575L481.3 227L471.925 236.375V269ZM577.506 269V210.95H576.756L548.706 269H539.106V192.2H548.706V250.25H549.456L577.581 192.2H587.106V269H577.506ZM625.488 251H644.688V269H625.488V251Z" fill="white"/>
<path d="M0 335H1442.5" stroke="#00FF29" stroke-width="3"/>
<path d="M3 413H1445.5" stroke="#00FF29" stroke-width="3"/>
<path d="M0 479H1442.5" stroke="#00FF29" stroke-width="3"/>
<path d="M15 557H1457.5" stroke="#00FF29" stroke-width="3"/>
<path d="M155.2 413H145.6V336.2H155.2L178.825 374.45H179.65L203.2 336.2H212.8V413H203.2V353.3H202.45L183.325 384.2H175.075L155.95 353.3H155.2V413ZM241.356 339.425C245.406 336.475 250.281 335 255.981 335C261.681 335 266.531 336.475 270.531 339.425C274.581 342.375 277.531 346.175 279.381 350.825C280.681 354.025 281.506 357.4 281.856 360.95C282.206 364.5 282.381 369.05 282.381 374.6C282.381 380.15 282.206 384.7 281.856 388.25C281.506 391.8 280.681 395.175 279.381 398.375C277.531 403.025 274.581 406.825 270.531 409.775C266.531 412.725 261.681 414.2 255.981 414.2C250.281 414.2 245.406 412.725 241.356 409.775C237.356 406.825 234.431 403.025 232.581 398.375C231.281 395.175 230.456 391.8 230.106 388.25C229.756 384.7 229.581 380.15 229.581 374.6C229.581 369.05 229.756 364.5 230.106 360.95C230.456 357.4 231.281 354.025 232.581 350.825C234.431 346.175 237.356 342.375 241.356 339.425ZM270.381 353.825C267.731 347.275 262.931 344 255.981 344C249.031 344 244.231 347.275 241.581 353.825C239.981 357.825 239.181 364.75 239.181 374.6C239.181 384.45 239.981 391.375 241.581 395.375C244.231 401.925 249.031 405.2 255.981 405.2C262.931 405.2 267.731 401.925 270.381 395.375C271.981 391.375 272.781 384.45 272.781 374.6C272.781 364.75 271.981 357.825 270.381 353.825ZM327.963 413V376.85H322.713L305.838 413H295.863L314.913 372.875L300.138 336.2H309.888L323.088 369.35H327.963V336.2H337.563V369.35H342.438L355.638 336.2H365.388L350.613 372.875L369.663 413H359.688L342.813 376.85H337.563V413H327.963ZM418.694 346.4C416.194 344.8 413.144 344 409.544 344C405.944 344 402.869 344.8 400.319 346.4C397.819 348 396.019 350.225 394.919 353.075C393.869 355.475 393.194 359.65 392.894 365.6H426.194C425.894 359.65 425.219 355.475 424.169 353.075C423.069 350.225 421.244 348 418.694 346.4ZM394.544 339.2C398.694 336.4 403.694 335 409.544 335C415.394 335 420.369 336.4 424.469 339.2C428.619 342 431.519 345.625 433.169 350.075C434.019 352.225 434.644 354.75 435.044 357.65C435.494 360.55 435.744 363.125 435.794 365.375C435.894 367.575 435.944 370.65 435.944 374.6H392.744C392.744 378 392.769 380.625 392.819 382.475C392.869 384.275 393.069 386.45 393.419 389C393.819 391.55 394.394 393.675 395.144 395.375C398.044 401.925 403.344 405.2 411.044 405.2C416.844 405.2 424.344 404.675 433.544 403.625V412.625C424.444 413.675 416.944 414.2 411.044 414.2C404.844 414.2 399.619 412.75 395.369 409.85C391.119 406.95 388.044 403.175 386.144 398.525C384.844 395.375 384.019 392 383.669 388.4C383.319 384.8 383.144 380.2 383.144 374.6C383.144 370.65 383.169 367.575 383.219 365.375C383.319 363.125 383.569 360.55 383.969 357.65C384.419 354.75 385.069 352.225 385.919 350.075C387.569 345.625 390.444 342 394.544 339.2ZM519.925 336.2V345.2H491.125V413H481.525V345.2H452.725V336.2H519.925ZM548.706 385.4H567.906V411.275C567.906 413.325 567.856 414.95 567.756 416.15C567.706 417.35 567.356 418.925 566.706 420.875C566.106 422.875 565.206 424.675 564.006 426.275C560.506 431.025 555.406 433.4 548.706 433.4V424.4C552.006 424.4 554.506 423.275 556.206 421.025C556.856 420.175 557.331 419.15 557.631 417.95C557.981 416.8 558.181 415.8 558.231 414.95C558.281 414.15 558.306 412.925 558.306 411.275V403.4H548.706V385.4ZM750.269 336.2V345.2H721.469V413H711.869V345.2H683.069V336.2H750.269ZM807.85 374.6H793.15C791.3 374.6 789.85 374.65 788.8 374.75C787.8 374.85 786.525 375.225 784.975 375.875C783.425 376.475 782.05 377.4 780.85 378.65C778.05 381.6 776.65 385.475 776.65 390.275C776.65 394.525 777.85 398.075 780.25 400.925C782.7 403.775 786 405.2 790.15 405.2C792.55 405.2 794.675 404.85 796.525 404.15C798.425 403.45 799.975 402.575 801.175 401.525C802.425 400.475 803.475 399.1 804.325 397.4C805.225 395.7 805.875 394.125 806.275 392.675C806.725 391.175 807.075 389.4 807.325 387.35C807.575 385.3 807.725 383.625 807.775 382.325C807.825 381.025 807.85 379.475 807.85 377.675V374.6ZM795.85 335C800.15 335 803.925 335.675 807.175 337.025C810.425 338.325 813.1 340.825 815.2 344.525C816.7 347.175 817.45 351.275 817.45 356.825V413H807.85V403.775H807.1C802.05 410.725 795.8 414.2 788.35 414.2C782.35 414.2 777.3 411.95 773.2 407.45C769.1 402.95 767.05 397.275 767.05 390.425C767.05 383.225 769.25 377.425 773.65 373.025C775.25 371.475 776.95 370.2 778.75 369.2C780.55 368.2 782.425 367.525 784.375 367.175C786.375 366.775 787.925 366.55 789.025 366.5C790.175 366.4 791.6 366.35 793.3 366.35H807.85V357.2C807.85 352.85 807.4 349.9 806.5 348.35C805.65 346.9 804.425 345.825 802.825 345.125C801.275 344.375 798.95 344 795.85 344C789.85 344 782.65 344.525 774.25 345.575V336.425C782.5 335.475 789.7 335 795.85 335ZM855.831 413H846.231V336.2H855.831V367.475L885.831 336.2H898.656L871.431 364.625L902.181 413H890.481L865.206 371L855.831 380.375V413ZM1047.79 336.2V413H1038.19V345.2H1018.99V388.7C1018.99 393.05 1018.42 396.775 1017.27 399.875C1016.12 402.975 1014.22 405.7 1011.57 408.05C1008.97 410.35 1006.02 411.95 1002.72 412.85C999.469 413.75 995.294 414.2 990.194 414.2V405.2C993.844 405.2 996.819 404.95 999.119 404.45C1001.42 403.95 1003.37 402.975 1004.97 401.525C1006.67 399.975 1007.82 398.25 1008.42 396.35C1009.07 394.4 1009.39 391.85 1009.39 388.7V336.2H1047.79ZM1102.75 395C1107.5 380.4 1112.83 360.8 1118.73 336.2H1128.55C1128.3 337.15 1127.7 339.525 1126.75 343.325C1125.85 347.075 1125.28 349.5 1125.03 350.6C1124.78 351.65 1124.23 353.875 1123.38 357.275C1122.53 360.625 1121.9 363 1121.5 364.4C1121.15 365.75 1120.58 367.975 1119.78 371.075C1118.98 374.125 1118.3 376.525 1117.75 378.275C1117.25 380.025 1116.58 382.35 1115.73 385.25C1114.88 388.15 1114.08 390.725 1113.33 392.975C1112.63 395.225 1111.8 397.75 1110.85 400.55C1109.95 403.35 1109.03 406.125 1108.08 408.875C1106.88 412.275 1105.93 414.825 1105.23 416.525C1104.58 418.275 1103.63 420.25 1102.38 422.45C1101.13 424.65 1099.78 426.325 1098.33 427.475C1093.63 431.425 1086.38 433.4 1076.58 433.4V424.4C1083.73 424.4 1088.63 423.375 1091.28 421.325C1092.43 420.475 1093.48 419.175 1094.43 417.425C1095.43 415.675 1096.2 414.05 1096.75 412.55C1097.35 411.05 1098.45 408 1100.05 403.4H1096.15C1090.75 393.6 1086.23 383.25 1082.58 372.35C1078.98 361.45 1075.68 349.4 1072.68 336.2H1082.5C1087.7 360.1 1094.2 379.7 1102 395H1102.75ZM1175.86 385.4C1172.26 385.4 1168.96 384.675 1165.96 383.225C1162.96 381.775 1160.48 379.825 1158.53 377.375C1157.28 375.825 1156.28 374.225 1155.53 372.575C1154.78 370.925 1154.26 369.1 1153.96 367.1C1153.71 365.1 1153.53 363.45 1153.43 362.15C1153.38 360.85 1153.36 359.025 1153.36 356.675V336.2H1162.96V356.675C1162.96 359.425 1162.98 361.475 1163.03 362.825C1163.13 364.175 1163.43 365.7 1163.93 367.4C1164.48 369.05 1165.28 370.5 1166.33 371.75C1169.03 374.85 1172.71 376.4 1177.36 376.4C1182.01 376.4 1185.68 374.85 1188.38 371.75C1189.43 370.5 1190.21 369.05 1190.71 367.4C1191.26 365.7 1191.56 364.175 1191.61 362.825C1191.71 361.475 1191.76 359.425 1191.76 356.675V336.2H1201.36V413H1191.76V375.8H1191.01C1189.16 378.7 1186.86 381.025 1184.11 382.775C1181.41 384.525 1178.66 385.4 1175.86 385.4ZM1220.54 413V336.2H1230.14V404H1249.34V336.2H1258.94V404H1278.14V336.2H1287.74V413H1220.54ZM1340.07 346.4C1337.57 344.8 1334.52 344 1330.92 344C1327.32 344 1324.24 344.8 1321.69 346.4C1319.19 348 1317.39 350.225 1316.29 353.075C1315.24 355.475 1314.57 359.65 1314.27 365.6H1347.57C1347.27 359.65 1346.59 355.475 1345.54 353.075C1344.44 350.225 1342.62 348 1340.07 346.4ZM1315.92 339.2C1320.07 336.4 1325.07 335 1330.92 335C1336.77 335 1341.74 336.4 1345.84 339.2C1349.99 342 1352.89 345.625 1354.54 350.075C1355.39 352.225 1356.02 354.75 1356.42 357.65C1356.87 360.55 1357.12 363.125 1357.17 365.375C1357.27 367.575 1357.32 370.65 1357.32 374.6H1314.12C1314.12 378 1314.14 380.625 1314.19 382.475C1314.24 384.275 1314.44 386.45 1314.79 389C1315.19 391.55 1315.77 393.675 1316.52 395.375C1319.42 401.925 1324.72 405.2 1332.42 405.2C1338.22 405.2 1345.72 404.675 1354.92 403.625V412.625C1345.82 413.675 1338.32 414.2 1332.42 414.2C1326.22 414.2 1320.99 412.75 1316.74 409.85C1312.49 406.95 1309.42 403.175 1307.52 398.525C1306.22 395.375 1305.39 392 1305.04 388.4C1304.69 384.8 1304.52 380.2 1304.52 374.6C1304.52 370.65 1304.54 367.575 1304.59 365.375C1304.69 363.125 1304.94 360.55 1305.34 357.65C1305.79 354.75 1306.44 352.225 1307.29 350.075C1308.94 345.625 1311.82 342 1315.92 339.2ZM177.7 529.4C174.1 529.4 170.8 528.675 167.8 527.225C164.8 525.775 162.325 523.825 160.375 521.375C159.125 519.825 158.125 518.225 157.375 516.575C156.625 514.925 156.1 513.1 155.8 511.1C155.55 509.1 155.375 507.45 155.275 506.15C155.225 504.85 155.2 503.025 155.2 500.675V480.2H164.8V500.675C164.8 503.425 164.825 505.475 164.875 506.825C164.975 508.175 165.275 509.7 165.775 511.4C166.325 513.05 167.125 514.5 168.175 515.75C170.875 518.85 174.55 520.4 179.2 520.4C183.85 520.4 187.525 518.85 190.225 515.75C191.275 514.5 192.05 513.05 192.55 511.4C193.1 509.7 193.4 508.175 193.45 506.825C193.55 505.475 193.6 503.425 193.6 500.675V480.2H203.2V557H193.6V519.8H192.85C191 522.7 188.7 525.025 185.95 526.775C183.25 528.525 180.5 529.4 177.7 529.4ZM270.381 557V498.95H269.631L241.581 557H231.981V480.2H241.581V538.25H242.331L270.456 480.2H279.981V557H270.381ZM366.363 480.2V489.2H337.563V557H327.963V489.2H299.163V480.2H366.363ZM423.944 518.6H409.244C407.394 518.6 405.944 518.65 404.894 518.75C403.894 518.85 402.619 519.225 401.069 519.875C399.519 520.475 398.144 521.4 396.944 522.65C394.144 525.6 392.744 529.475 392.744 534.275C392.744 538.525 393.944 542.075 396.344 544.925C398.794 547.775 402.094 549.2 406.244 549.2C408.644 549.2 410.769 548.85 412.619 548.15C414.519 547.45 416.069 546.575 417.269 545.525C418.519 544.475 419.569 543.1 420.419 541.4C421.319 539.7 421.969 538.125 422.369 536.675C422.819 535.175 423.169 533.4 423.419 531.35C423.669 529.3 423.819 527.625 423.869 526.325C423.919 525.025 423.944 523.475 423.944 521.675V518.6ZM411.944 479C416.244 479 420.019 479.675 423.269 481.025C426.519 482.325 429.194 484.825 431.294 488.525C432.794 491.175 433.544 495.275 433.544 500.825V557H423.944V547.775H423.194C418.144 554.725 411.894 558.2 404.444 558.2C398.444 558.2 393.394 555.95 389.294 551.45C385.194 546.95 383.144 541.275 383.144 534.425C383.144 527.225 385.344 521.425 389.744 517.025C391.344 515.475 393.044 514.2 394.844 513.2C396.644 512.2 398.519 511.525 400.469 511.175C402.469 510.775 404.019 510.55 405.119 510.5C406.269 510.4 407.694 510.35 409.394 510.35H423.944V501.2C423.944 496.85 423.494 493.9 422.594 492.35C421.744 490.9 420.519 489.825 418.919 489.125C417.369 488.375 415.044 488 411.944 488C405.944 488 398.744 488.525 390.344 489.575V480.425C398.594 479.475 405.794 479 411.944 479ZM495.475 490.4C492.975 488.8 489.925 488 486.325 488C482.725 488 479.65 488.8 477.1 490.4C474.6 492 472.8 494.225 471.7 497.075C470.65 499.475 469.975 503.65 469.675 509.6H502.975C502.675 503.65 502 499.475 500.95 497.075C499.85 494.225 498.025 492 495.475 490.4ZM471.325 483.2C475.475 480.4 480.475 479 486.325 479C492.175 479 497.15 480.4 501.25 483.2C505.4 486 508.3 489.625 509.95 494.075C510.8 496.225 511.425 498.75 511.825 501.65C512.275 504.55 512.525 507.125 512.575 509.375C512.675 511.575 512.725 514.65 512.725 518.6H469.525C469.525 522 469.55 524.625 469.6 526.475C469.65 528.275 469.85 530.45 470.2 533C470.6 535.55 471.175 537.675 471.925 539.375C474.825 545.925 480.125 549.2 487.825 549.2C493.625 549.2 501.125 548.675 510.325 547.625V556.625C501.225 557.675 493.725 558.2 487.825 558.2C481.625 558.2 476.4 556.75 472.15 553.85C467.9 550.95 464.825 547.175 462.925 542.525C461.625 539.375 460.8 536 460.45 532.4C460.1 528.8 459.925 524.2 459.925 518.6C459.925 514.65 459.95 511.575 460 509.375C460.1 507.125 460.35 504.55 460.75 501.65C461.2 498.75 461.85 496.225 462.7 494.075C464.35 489.625 467.225 486 471.325 483.2ZM596.706 480.2V489.2H567.906V557H558.306V489.2H529.506V480.2H596.706ZM614.013 532.4C613.663 528.8 613.488 524.2 613.488 518.6C613.488 513 613.663 508.4 614.013 504.8C614.413 501.2 615.313 497.825 616.713 494.675C621.263 484.225 629.738 479 642.138 479C647.138 479 653.888 479.425 662.388 480.275V489.275C653.788 488.425 647.038 488 642.138 488C637.838 488 634.413 488.825 631.863 490.475C629.363 492.075 627.313 494.525 625.713 497.825C624.913 499.525 624.288 501.65 623.838 504.2C623.438 506.75 623.213 508.95 623.163 510.8C623.113 512.6 623.088 515.2 623.088 518.6C623.088 522 623.113 524.625 623.163 526.475C623.213 528.275 623.438 530.45 623.838 533C624.288 535.55 624.913 537.675 625.713 539.375C627.313 542.675 629.363 545.15 631.863 546.8C634.413 548.4 637.838 549.2 642.138 549.2C647.988 549.2 655.238 548.55 663.888 547.25V556.25C655.288 557.55 648.038 558.2 642.138 558.2C629.738 558.2 621.263 552.975 616.713 542.525C615.313 539.375 614.413 536 614.013 532.4ZM730.994 527.9H716.069C715.719 527.9 715.119 527.9 714.269 527.9C713.469 527.85 712.844 527.825 712.394 527.825L700.094 557H690.119L703.019 525.65C699.119 523.85 696.019 521.075 693.719 517.325C691.419 513.525 690.269 509.1 690.269 504.05C690.269 498.2 691.769 493.25 694.769 489.2C697.769 485.1 701.744 482.4 706.694 481.1C708.944 480.5 712.069 480.2 716.069 480.2H740.669V557H730.994V527.9ZM731.069 518.9V489.2H716.069C713.219 489.2 710.969 489.4 709.319 489.8C706.369 490.55 704.044 492.2 702.344 494.75C700.694 497.3 699.869 500.4 699.869 504.05C699.869 507.7 700.694 510.8 702.344 513.35C704.044 515.9 706.369 517.55 709.319 518.3C710.969 518.7 713.219 518.9 716.069 518.9H731.069ZM785.65 539.6C787.65 537.6 790.25 536.6 793.45 536.6C796.65 536.6 799.25 537.6 801.25 539.6C803.25 541.6 804.25 544.2 804.25 547.4C804.25 550.6 803.25 553.2 801.25 555.2C799.25 557.2 796.65 558.2 793.45 558.2C790.25 558.2 787.65 557.2 785.65 555.2C783.65 553.2 782.65 550.6 782.65 547.4C782.65 544.2 783.65 541.6 785.65 539.6ZM788.65 518.6C788.65 514.65 789.15 511.075 790.15 507.875C791.15 504.625 793.125 501.475 796.075 498.425C798.375 496.075 800.1 494.225 801.25 492.875C802.45 491.525 803.725 489.85 805.075 487.85C806.425 485.85 807.375 483.85 807.925 481.85C808.475 479.8 808.75 477.55 808.75 475.1C808.75 469.85 807.275 465.9 804.325 463.25C801.375 460.55 796.7 459.2 790.3 459.2C785.65 459.2 779.25 460.125 771.1 461.975V452.975C779 451.125 785.4 450.2 790.3 450.2C799.3 450.2 806.225 452.4 811.075 456.8C815.925 461.2 818.35 467.3 818.35 475.1C818.35 478.15 817.975 481.025 817.225 483.725C816.525 486.375 815.4 488.925 813.85 491.375C812.35 493.825 810.825 496 809.275 497.9C807.725 499.75 805.725 501.925 803.275 504.425C801.725 506.025 800.55 507.75 799.75 509.6C798.95 511.4 798.5 512.875 798.4 514.025C798.3 515.125 798.25 516.65 798.25 518.6H788.65Z" fill="white"/>
</svg>
