<svg width="1446" height="448" viewBox="0 0 1446 448" fill="none" xmlns="http://www.w3.org/2000/svg">
<ellipse cx="471.5" cy="195.5" rx="50.5" ry="76.5" fill="#00FF29"/>
<path d="M596.571 12.5179C595.594 12.5179 594.75 12.7522 594.04 13.221C593.344 13.6897 592.875 14.3326 592.634 15.1496C592.259 16.3951 592.071 18.25 592.071 20.7143C592.071 21.5714 592.078 22.2545 592.092 22.7634C592.118 23.2723 592.179 23.8616 592.272 24.5312C592.366 25.2009 592.513 25.7835 592.714 26.279C593.036 27.096 593.531 27.7388 594.201 28.2076C594.871 28.6763 595.661 28.9107 596.571 28.9107C597.509 28.9107 598.326 28.6763 599.022 28.2076C599.719 27.7254 600.188 27.0826 600.429 26.279C600.857 24.846 601.071 22.9911 601.071 20.7143C601.071 18.2366 600.857 16.3817 600.429 15.1496C600.147 14.3326 599.672 13.6897 599.002 13.221C598.346 12.7522 597.536 12.5179 596.571 12.5179ZM596.973 10.1071C598.446 10.1071 599.705 10.5089 600.75 11.3125C601.795 12.1027 602.518 13.1138 602.92 14.346C603.402 15.8192 603.643 17.942 603.643 20.7143C603.643 21.7321 603.629 22.5223 603.603 23.0848C603.589 23.6339 603.516 24.2835 603.382 25.0335C603.261 25.7701 603.08 26.4531 602.839 27.0826C601.728 29.9085 599.504 31.3214 596.17 31.3214C594.844 31.3214 593.652 30.9196 592.594 30.1161C591.536 29.2991 590.772 28.2879 590.304 27.0826C589.768 25.6763 589.5 23.9821 589.5 22C589.5 19.3214 589.507 17.3594 589.52 16.1138C589.533 14.8549 589.574 13.5558 589.641 12.2165C589.708 10.8638 589.808 9.88616 589.942 9.28348C590.424 7.1808 591.362 5.61384 592.754 4.58259C593.612 3.93973 594.502 3.47768 595.426 3.19643C596.364 2.91518 597.181 2.78125 597.877 2.79464C598.587 2.79464 599.431 2.77455 600.408 2.73437C601.386 2.6808 602.25 2.55357 603 2.35268V4.82366C602.223 4.97098 601.205 5.06473 599.946 5.10491C598.688 5.14509 597.609 5.24553 596.712 5.40625C595.828 5.56696 595.058 5.90848 594.402 6.4308C592.955 7.56919 592.192 9.61161 592.112 12.558H592.313C593.036 11.7277 593.752 11.1116 594.462 10.7098C595.172 10.308 596.009 10.1071 596.973 10.1071ZM613.22 11.2924C614.305 10.5022 615.611 10.1071 617.138 10.1071C618.665 10.1071 619.964 10.5022 621.035 11.2924C622.12 12.0826 622.91 13.1004 623.406 14.346C623.754 15.2031 623.975 16.1071 624.069 17.058C624.162 18.0089 624.209 19.2277 624.209 20.7143C624.209 22.2009 624.162 23.4196 624.069 24.3705C623.975 25.3214 623.754 26.2254 623.406 27.0826C622.91 28.3281 622.12 29.346 621.035 30.1362C619.964 30.9263 618.665 31.3214 617.138 31.3214C615.611 31.3214 614.305 30.9263 613.22 30.1362C612.149 29.346 611.366 28.3281 610.87 27.0826C610.522 26.2254 610.301 25.3214 610.207 24.3705C610.113 23.4196 610.066 22.2009 610.066 20.7143C610.066 19.2277 610.113 18.0089 610.207 17.058C610.301 16.1071 610.522 15.2031 610.87 14.346C611.366 13.1004 612.149 12.0826 613.22 11.2924ZM620.995 15.1496C620.285 13.3951 618.999 12.5179 617.138 12.5179C615.276 12.5179 613.991 13.3951 613.281 15.1496C612.852 16.221 612.638 18.0759 612.638 20.7143C612.638 23.3527 612.852 25.2076 613.281 26.279C613.991 28.0335 615.276 28.9107 617.138 28.9107C618.999 28.9107 620.285 28.0335 620.995 26.279C621.424 25.2076 621.638 23.3527 621.638 20.7143C621.638 18.0759 621.424 16.221 620.995 15.1496ZM644.133 10.4286V31H641.561V12.8393H636.419V24.4911C636.419 25.6562 636.265 26.654 635.956 27.4844C635.648 28.3147 635.14 29.0446 634.43 29.6741C633.733 30.2902 632.943 30.7187 632.059 30.9598C631.189 31.2009 630.07 31.3214 628.704 31.3214V28.9107C629.682 28.9107 630.479 28.8437 631.095 28.7098C631.711 28.5759 632.233 28.3147 632.662 27.9263C633.117 27.5112 633.425 27.0491 633.586 26.5402C633.76 26.0179 633.847 25.3348 633.847 24.4911V10.4286H644.133ZM654.434 18.2232H658.431C659.503 18.2232 660.34 18.3036 660.943 18.4643C662.268 18.8125 663.333 19.5357 664.137 20.6339C664.94 21.7187 665.342 23.0446 665.342 24.6116C665.342 26.1786 664.94 27.5112 664.137 28.6094C663.333 29.6942 662.268 30.4107 660.943 30.7589C660.34 30.9196 659.503 31 658.431 31H651.842V10.4286H654.434V18.2232ZM654.414 20.6339V28.5893H658.431C659.195 28.5893 659.797 28.5357 660.239 28.4286C661.03 28.2277 661.646 27.7857 662.088 27.1027C662.543 26.4196 662.771 25.5893 662.771 24.6116C662.771 23.6339 662.543 22.8036 662.088 22.1205C661.646 21.4375 661.03 20.9955 660.239 20.7946C659.797 20.6875 659.195 20.6339 658.431 20.6339H654.414ZM669.837 31V10.4286H672.408V28.5893H677.551V10.4286H680.123V28.5893H685.266V10.4286H687.837V31H669.837ZM703.261 31V15.4509H703.06L695.546 31H692.975V10.4286H695.546V25.9777H695.747L703.281 10.4286H705.832V31H703.261ZM715.47 20.7143C715.47 21.625 715.477 22.3281 715.49 22.8237C715.503 23.3058 715.557 23.8884 715.651 24.5714C715.758 25.2545 715.912 25.8237 716.113 26.279C716.876 28.0335 718.229 28.9107 720.171 28.9107C721.523 28.9107 723.599 28.6161 726.398 28.0268V30.4978C723.72 31.0469 721.644 31.3214 720.171 31.3214C718.564 31.3214 717.211 30.933 716.113 30.1562C715.015 29.3795 714.211 28.3683 713.702 27.1228C713.354 26.279 713.133 25.375 713.039 24.4107C712.945 23.4464 712.898 22.2143 712.898 20.7143C712.898 19.2277 712.945 18.0089 713.039 17.058C713.133 16.1071 713.354 15.2031 713.702 14.346C714.198 13.1004 714.981 12.0826 716.052 11.2924C717.137 10.5022 718.443 10.1071 719.97 10.1071C721.497 10.1071 722.796 10.5022 723.867 11.2924C724.952 12.0826 725.742 13.1004 726.238 14.346C726.586 15.2031 726.807 16.1071 726.901 17.058C726.994 18.0089 727.041 19.2277 727.041 20.7143H715.47ZM724.41 18.3036C724.343 17.0045 724.148 15.9531 723.827 15.1496C723.117 13.3951 721.831 12.5179 719.97 12.5179C718.108 12.5179 716.823 13.3951 716.113 15.1496C715.791 15.9531 715.597 17.0045 715.53 18.3036H724.41ZM764.96 20.7143H761.022C760.527 20.7143 760.138 20.7277 759.857 20.7545C759.589 20.7812 759.248 20.8817 758.833 21.0558C758.417 21.2165 758.049 21.4643 757.728 21.7991C756.978 22.5893 756.603 23.6272 756.603 24.9129C756.603 26.0246 756.938 26.9687 757.607 27.7455C758.29 28.5223 759.161 28.9107 760.219 28.9107C761.237 28.9107 762.127 28.6696 762.891 28.1875C763.654 27.692 764.196 27.0558 764.518 26.279C764.813 25.5826 764.96 24.3371 764.96 22.5424V20.7143ZM761.746 10.1071C762.897 10.1071 763.908 10.2879 764.779 10.6496C765.65 10.9978 766.366 11.6674 766.929 12.6585C767.33 13.3683 767.531 14.4665 767.531 15.9531V31H764.96V28.529H764.759C763.406 30.3906 761.732 31.3214 759.737 31.3214C759.04 31.3214 758.257 31.1272 757.386 30.7388C756.516 30.3504 755.792 29.7277 755.217 28.8705C754.426 27.692 754.031 26.3862 754.031 24.9531C754.031 23.0246 754.621 21.471 755.799 20.2924C756.228 19.8772 756.683 19.5357 757.165 19.2679C757.647 19 758.15 18.8192 758.672 18.7254C759.208 18.6183 759.623 18.558 759.917 18.5446C760.225 18.5179 760.607 18.5045 761.062 18.5045H764.96V16.0536C764.96 14.8884 764.839 14.0982 764.598 13.683C764.371 13.2946 764.042 13.0067 763.614 12.8192C763.199 12.6183 762.576 12.5179 761.746 12.5179C760.42 12.5179 758.491 12.7121 755.96 13.1004V10.6496C758.464 10.2879 760.393 10.1071 761.746 10.1071ZM775.241 10.4286H788.098V31H785.526V12.8393H777.812V31H775.241V10.4286ZM797.735 20.7143C797.735 21.625 797.742 22.3281 797.756 22.8237C797.769 23.3058 797.823 23.8884 797.916 24.5714C798.023 25.2545 798.177 25.8237 798.378 26.279C799.142 28.0335 800.494 28.9107 802.436 28.9107C803.789 28.9107 805.865 28.6161 808.664 28.0268V30.4978C805.985 31.0469 803.91 31.3214 802.436 31.3214C800.829 31.3214 799.477 30.933 798.378 30.1562C797.28 29.3795 796.477 28.3683 795.968 27.1228C795.619 26.279 795.398 25.375 795.305 24.4107C795.211 23.4464 795.164 22.2143 795.164 20.7143C795.164 19.2277 795.211 18.0089 795.305 17.058C795.398 16.1071 795.619 15.2031 795.968 14.346C796.463 13.1004 797.247 12.0826 798.318 11.2924C799.403 10.5022 800.709 10.1071 802.235 10.1071C803.762 10.1071 805.061 10.5022 806.133 11.2924C807.218 12.0826 808.008 13.1004 808.503 14.346C808.852 15.2031 809.073 16.1071 809.166 17.058C809.26 18.0089 809.307 19.2277 809.307 20.7143H797.735ZM806.675 18.3036C806.608 17.0045 806.414 15.9531 806.093 15.1496C805.383 13.3951 804.097 12.5179 802.235 12.5179C800.374 12.5179 799.088 13.3951 798.378 15.1496C798.057 15.9531 797.863 17.0045 797.796 18.3036H806.675ZM823.525 31.3214C821.811 31.3214 820.351 30.3772 819.146 28.4888H818.945V38.7143H816.373V10.4286H818.945V12.9397H819.146C820.351 11.0513 821.811 10.1071 823.525 10.1071C824.851 10.1071 826.03 10.529 827.061 11.3728C828.092 12.2031 828.842 13.3683 829.311 14.8683C829.485 15.4308 829.612 16.0603 829.693 16.7567C829.786 17.4531 829.84 18.0491 829.853 18.5446C829.867 19.0268 829.873 19.75 829.873 20.7143C829.873 21.6786 829.867 22.4085 829.853 22.904C829.84 23.3862 829.786 23.9754 829.693 24.6719C829.612 25.3683 829.485 25.9978 829.311 26.5603C828.842 28.0603 828.092 29.2321 827.061 30.0759C826.03 30.9062 824.851 31.3214 823.525 31.3214ZM820.833 28.0469C821.463 28.6228 822.226 28.9107 823.123 28.9107C824.021 28.9107 824.777 28.6228 825.393 28.0469C826.023 27.4576 826.485 26.7277 826.78 25.8571C827.128 24.7991 827.302 23.0848 827.302 20.7143C827.302 18.3437 827.128 16.6295 826.78 15.5714C826.485 14.7009 826.023 13.9777 825.393 13.4018C824.777 12.8125 824.021 12.5179 823.123 12.5179C822.226 12.5179 821.463 12.8125 820.833 13.4018C820.217 13.9777 819.762 14.7009 819.467 15.5714C819.119 16.6295 818.945 18.3437 818.945 20.7143C818.945 23.0848 819.119 24.7991 819.467 25.8571C819.762 26.7277 820.217 27.4576 820.833 28.0469ZM852.368 10.4286V12.8393H844.654V31H842.083V12.8393H834.368V10.4286H852.368ZM862.348 31C860.647 27.8929 859.341 24.6786 858.43 21.3571C857.52 18.0223 856.843 14.3795 856.401 10.4286H859.113C860.024 18.3304 861.738 24.6652 864.256 29.433H864.457C866.225 23.5804 867.658 17.2455 868.756 10.4286H871.468C870.45 15.7455 869.432 20.4732 868.415 24.6116C867.397 28.7366 866.171 32.6942 864.738 36.4844C864.283 37.7031 863.332 38.4531 861.886 38.7344C860.814 38.9353 859.354 39.0357 857.506 39.0357V36.7455C859.341 36.7455 860.56 36.692 861.162 36.5848C861.711 36.4777 862.16 36.0491 862.508 35.2991C863.057 34.0938 863.593 32.6607 864.116 31H862.348ZM885.224 31.3214C883.51 31.3214 882.05 30.3772 880.845 28.4888H880.644V38.7143H878.073V10.4286H880.644V12.9397H880.845C882.05 11.0513 883.51 10.1071 885.224 10.1071C886.55 10.1071 887.729 10.529 888.76 11.3728C889.791 12.2031 890.541 13.3683 891.01 14.8683C891.184 15.4308 891.311 16.0603 891.392 16.7567C891.485 17.4531 891.539 18.0491 891.552 18.5446C891.566 19.0268 891.573 19.75 891.573 20.7143C891.573 21.6786 891.566 22.4085 891.552 22.904C891.539 23.3862 891.485 23.9754 891.392 24.6719C891.311 25.3683 891.184 25.9978 891.01 26.5603C890.541 28.0603 889.791 29.2321 888.76 30.0759C887.729 30.9062 886.55 31.3214 885.224 31.3214ZM882.532 28.0469C883.162 28.6228 883.925 28.9107 884.823 28.9107C885.72 28.9107 886.477 28.6228 887.093 28.0469C887.722 27.4576 888.184 26.7277 888.479 25.8571C888.827 24.7991 889.001 23.0848 889.001 20.7143C889.001 18.3437 888.827 16.6295 888.479 15.5714C888.184 14.7009 887.722 13.9777 887.093 13.4018C886.477 12.8125 885.72 12.5179 884.823 12.5179C883.925 12.5179 883.162 12.8125 882.532 13.4018C881.916 13.9777 881.461 14.7009 881.166 15.5714C880.818 16.6295 880.644 18.3437 880.644 20.7143C880.644 23.0848 880.818 24.7991 881.166 25.8571C881.461 26.7277 881.916 27.4576 882.532 28.0469ZM901.23 18.2232H902.376C903.447 18.2232 904.284 18.3036 904.887 18.4643C906.213 18.8125 907.277 19.5357 908.081 20.6339C908.884 21.7187 909.286 23.0446 909.286 24.6116C909.286 26.1786 908.884 27.5112 908.081 28.6094C907.277 29.6942 906.213 30.4107 904.887 30.7589C904.284 30.9196 903.447 31 902.376 31H898.639V10.4286H901.23V18.2232ZM901.21 20.6339V28.5893H902.376C903.139 28.5893 903.742 28.5357 904.184 28.4286C904.974 28.2277 905.59 27.7857 906.032 27.1027C906.487 26.4196 906.715 25.5893 906.715 24.6116C906.715 23.6339 906.487 22.8036 906.032 22.1205C905.59 21.4375 904.974 20.9955 904.184 20.7946C903.742 20.6875 903.139 20.6339 902.376 20.6339H901.21ZM914.068 10.4286V31H911.496V10.4286H914.068Z" fill="white"/>
<path d="M399.714 438H397.143V417.429H399.714V425.806L407.75 417.429H411.185L403.893 425.042L412.129 438H408.996L402.225 426.75L399.714 429.261V438ZM420.22 418.292C421.305 417.502 422.611 417.107 424.138 417.107C425.665 417.107 426.964 417.502 428.035 418.292C429.12 419.083 429.91 420.1 430.406 421.346C430.754 422.203 430.975 423.107 431.069 424.058C431.162 425.009 431.209 426.228 431.209 427.714C431.209 429.201 431.162 430.42 431.069 431.371C430.975 432.321 430.754 433.225 430.406 434.083C429.91 435.328 429.12 436.346 428.035 437.136C426.964 437.926 425.665 438.321 424.138 438.321C422.611 438.321 421.305 437.926 420.22 437.136C419.149 436.346 418.366 435.328 417.87 434.083C417.522 433.225 417.301 432.321 417.207 431.371C417.113 430.42 417.066 429.201 417.066 427.714C417.066 426.228 417.113 425.009 417.207 424.058C417.301 423.107 417.522 422.203 417.87 421.346C418.366 420.1 419.149 419.083 420.22 418.292ZM427.995 422.15C427.285 420.395 425.999 419.518 424.138 419.518C422.276 419.518 420.991 420.395 420.281 422.15C419.852 423.221 419.638 425.076 419.638 427.714C419.638 430.353 419.852 432.208 420.281 433.279C420.991 435.033 422.276 435.911 424.138 435.911C425.999 435.911 427.285 435.033 427.995 433.279C428.424 432.208 428.638 430.353 428.638 427.714C428.638 425.076 428.424 423.221 427.995 422.15ZM445.427 438.321C443.713 438.321 442.253 437.377 441.048 435.489H440.847V445.714H438.276V417.429H440.847V419.94H441.048C442.253 418.051 443.713 417.107 445.427 417.107C446.753 417.107 447.932 417.529 448.963 418.373C449.994 419.203 450.744 420.368 451.213 421.868C451.387 422.431 451.515 423.06 451.595 423.757C451.689 424.453 451.742 425.049 451.756 425.545C451.769 426.027 451.776 426.75 451.776 427.714C451.776 428.679 451.769 429.408 451.756 429.904C451.742 430.386 451.689 430.975 451.595 431.672C451.515 432.368 451.387 432.998 451.213 433.56C450.744 435.06 449.994 436.232 448.963 437.076C447.932 437.906 446.753 438.321 445.427 438.321ZM442.735 435.047C443.365 435.623 444.128 435.911 445.026 435.911C445.923 435.911 446.68 435.623 447.296 435.047C447.925 434.458 448.387 433.728 448.682 432.857C449.03 431.799 449.204 430.085 449.204 427.714C449.204 425.344 449.03 423.629 448.682 422.571C448.387 421.701 447.925 420.978 447.296 420.402C446.68 419.812 445.923 419.518 445.026 419.518C444.128 419.518 443.365 419.812 442.735 420.402C442.119 420.978 441.664 421.701 441.369 422.571C441.021 423.629 440.847 425.344 440.847 427.714C440.847 430.085 441.021 431.799 441.369 432.857C441.664 433.728 442.119 434.458 442.735 435.047ZM461.353 418.292C462.438 417.502 463.744 417.107 465.271 417.107C466.797 417.107 468.097 417.502 469.168 418.292C470.253 419.083 471.043 420.1 471.539 421.346C471.887 422.203 472.108 423.107 472.201 424.058C472.295 425.009 472.342 426.228 472.342 427.714C472.342 429.201 472.295 430.42 472.201 431.371C472.108 432.321 471.887 433.225 471.539 434.083C471.043 435.328 470.253 436.346 469.168 437.136C468.097 437.926 466.797 438.321 465.271 438.321C463.744 438.321 462.438 437.926 461.353 437.136C460.282 436.346 459.498 435.328 459.003 434.083C458.655 433.225 458.434 432.321 458.34 431.371C458.246 430.42 458.199 429.201 458.199 427.714C458.199 426.228 458.246 425.009 458.34 424.058C458.434 423.107 458.655 422.203 459.003 421.346C459.498 420.1 460.282 419.083 461.353 418.292ZM469.128 422.15C468.418 420.395 467.132 419.518 465.271 419.518C463.409 419.518 462.123 420.395 461.414 422.15C460.985 423.221 460.771 425.076 460.771 427.714C460.771 430.353 460.985 432.208 461.414 433.279C462.123 435.033 463.409 435.911 465.271 435.911C467.132 435.911 468.418 435.033 469.128 433.279C469.556 432.208 469.771 430.353 469.771 427.714C469.771 425.076 469.556 423.221 469.128 422.15ZM494.837 417.429V419.839H487.123V438H484.551V419.839H476.837V417.429H494.837ZM502.546 438H499.975V417.429H502.546V425.806L510.582 417.429H514.017L506.725 425.042L514.961 438H511.828L505.057 426.75L502.546 429.261V438ZM530.827 438V422.451H530.626L523.113 438H520.541V417.429H523.113V432.978H523.314L530.847 417.429H533.398V438H530.827ZM543.036 427.714C543.036 428.625 543.043 429.328 543.056 429.824C543.07 430.306 543.123 430.888 543.217 431.571C543.324 432.254 543.478 432.824 543.679 433.279C544.443 435.033 545.795 435.911 547.737 435.911C549.09 435.911 551.166 435.616 553.965 435.027V437.498C551.286 438.047 549.21 438.321 547.737 438.321C546.13 438.321 544.777 437.933 543.679 437.156C542.581 436.379 541.777 435.368 541.268 434.123C540.92 433.279 540.699 432.375 540.605 431.411C540.512 430.446 540.465 429.214 540.465 427.714C540.465 426.228 540.512 425.009 540.605 424.058C540.699 423.107 540.92 422.203 541.268 421.346C541.764 420.1 542.547 419.083 543.619 418.292C544.704 417.502 546.009 417.107 547.536 417.107C549.063 417.107 550.362 417.502 551.434 418.292C552.518 419.083 553.309 420.1 553.804 421.346C554.152 422.203 554.373 423.107 554.467 424.058C554.561 425.009 554.608 426.228 554.608 427.714H543.036ZM551.976 425.304C551.909 424.004 551.715 422.953 551.393 422.15C550.684 420.395 549.398 419.518 547.536 419.518C545.675 419.518 544.389 420.395 543.679 422.15C543.358 422.953 543.164 424.004 543.097 425.304H551.976ZM584.812 425.223H589.633C590.276 425.223 590.725 425.19 590.979 425.123C591.528 424.989 591.964 424.694 592.285 424.239C592.607 423.783 592.767 423.214 592.767 422.531C592.767 421.848 592.607 421.279 592.285 420.824C591.964 420.368 591.528 420.074 590.979 419.94C590.698 419.873 590.249 419.839 589.633 419.839H584.812V425.223ZM584.812 435.589H588.83C589.593 435.589 590.196 435.536 590.638 435.429C591.428 435.228 592.044 434.786 592.486 434.103C592.941 433.42 593.169 432.589 593.169 431.612C593.169 430.621 592.941 429.783 592.486 429.1C592.031 428.417 591.415 427.982 590.638 427.795C590.196 427.687 589.593 427.634 588.83 427.634H584.812V435.589ZM582.241 438V417.429H589.633C590.464 417.429 591.127 417.489 591.622 417.609C592.72 417.877 593.611 418.453 594.294 419.337C594.991 420.208 595.339 421.272 595.339 422.531C595.339 423.388 595.131 424.165 594.716 424.862C594.314 425.545 593.772 426.094 593.089 426.509C594.857 427.781 595.741 429.482 595.741 431.612C595.741 433.179 595.339 434.511 594.535 435.609C593.732 436.694 592.667 437.411 591.341 437.759C590.738 437.92 589.901 438 588.83 438H582.241ZM604.735 427.714C604.735 428.625 604.742 429.328 604.756 429.824C604.769 430.306 604.823 430.888 604.916 431.571C605.023 432.254 605.177 432.824 605.378 433.279C606.142 435.033 607.494 435.911 609.436 435.911C610.789 435.911 612.865 435.616 615.664 435.027V437.498C612.985 438.047 610.91 438.321 609.436 438.321C607.829 438.321 606.477 437.933 605.378 437.156C604.28 436.379 603.477 435.368 602.968 434.123C602.619 433.279 602.398 432.375 602.305 431.411C602.211 430.446 602.164 429.214 602.164 427.714C602.164 426.228 602.211 425.009 602.305 424.058C602.398 423.107 602.619 422.203 602.968 421.346C603.463 420.1 604.247 419.083 605.318 418.292C606.403 417.502 607.709 417.107 609.235 417.107C610.762 417.107 612.061 417.502 613.133 418.292C614.218 419.083 615.008 420.1 615.503 421.346C615.852 422.203 616.073 423.107 616.166 424.058C616.26 425.009 616.307 426.228 616.307 427.714H604.735ZM613.675 425.304C613.608 424.004 613.414 422.953 613.093 422.15C612.383 420.395 611.097 419.518 609.235 419.518C607.374 419.518 606.088 420.395 605.378 422.15C605.057 422.953 604.863 424.004 604.796 425.304H613.675ZM630.525 438.321C628.811 438.321 627.351 437.377 626.146 435.489H625.945V445.714H623.373V417.429H625.945V419.94H626.146C627.351 418.051 628.811 417.107 630.525 417.107C631.851 417.107 633.03 417.529 634.061 418.373C635.092 419.203 635.842 420.368 636.311 421.868C636.485 422.431 636.612 423.06 636.693 423.757C636.786 424.453 636.84 425.049 636.853 425.545C636.867 426.027 636.873 426.75 636.873 427.714C636.873 428.679 636.867 429.408 636.853 429.904C636.84 430.386 636.786 430.975 636.693 431.672C636.612 432.368 636.485 432.998 636.311 433.56C635.842 435.06 635.092 436.232 634.061 437.076C633.03 437.906 631.851 438.321 630.525 438.321ZM627.833 435.047C628.463 435.623 629.226 435.911 630.123 435.911C631.021 435.911 631.777 435.623 632.393 435.047C633.023 434.458 633.485 433.728 633.78 432.857C634.128 431.799 634.302 430.085 634.302 427.714C634.302 425.344 634.128 423.629 633.78 422.571C633.485 421.701 633.023 420.978 632.393 420.402C631.777 419.812 631.021 419.518 630.123 419.518C629.226 419.518 628.463 419.812 627.833 420.402C627.217 420.978 626.762 421.701 626.467 422.571C626.119 423.629 625.945 425.344 625.945 427.714C625.945 430.085 626.119 431.799 626.467 432.857C626.762 433.728 627.217 434.458 627.833 435.047ZM650.268 425.062H650.469L654.949 417.429H658.304L651.855 426.73V426.931L658.746 438H655.371L650.469 428.598H650.268L645.366 438H641.991L648.882 426.931V426.73L642.433 417.429H645.788L650.268 425.062ZM664.506 417.429H667.078V425.304H674.792V417.429H677.363V438H674.792V427.714H667.078V438H664.506V417.429ZM695.358 438V422.451H695.157L687.644 438H685.073V417.429H687.644V432.978H687.845L695.378 417.429H697.93V438H695.358ZM707.568 427.714C707.568 428.625 707.574 429.328 707.588 429.824C707.601 430.306 707.655 430.888 707.748 431.571C707.855 432.254 708.009 432.824 708.21 433.279C708.974 435.033 710.326 435.911 712.268 435.911C713.621 435.911 715.697 435.616 718.496 435.027V437.498C715.818 438.047 713.742 438.321 712.268 438.321C710.661 438.321 709.309 437.933 708.21 437.156C707.112 436.379 706.309 435.368 705.8 434.123C705.451 433.279 705.23 432.375 705.137 431.411C705.043 430.446 704.996 429.214 704.996 427.714C704.996 426.228 705.043 425.009 705.137 424.058C705.23 423.107 705.451 422.203 705.8 421.346C706.295 420.1 707.079 419.083 708.15 418.292C709.235 417.502 710.541 417.107 712.068 417.107C713.594 417.107 714.893 417.502 715.965 418.292C717.05 419.083 717.84 420.1 718.335 421.346C718.684 422.203 718.905 423.107 718.998 424.058C719.092 425.009 719.139 426.228 719.139 427.714H707.568ZM716.507 425.304C716.44 424.004 716.246 422.953 715.925 422.15C715.215 420.395 713.929 419.518 712.068 419.518C710.206 419.518 708.92 420.395 708.21 422.15C707.889 422.953 707.695 424.004 707.628 425.304H716.507ZM757.057 438V422.451H756.857L749.343 438H746.772V417.429H749.343V432.978H749.544L757.078 417.429H759.629V438H757.057ZM787.905 417.429H790.476V425.304H798.19V417.429H800.762V438H798.19V427.714H790.476V438H787.905V417.429ZM818.757 438V422.451H818.556L811.042 438H808.471V417.429H811.042V432.978H811.243L818.777 417.429H821.328V438H818.757ZM834.18 438V428.317H832.774L828.254 438H825.582L830.685 427.252L826.727 417.429H829.339L832.874 426.308H834.18V417.429H836.752V426.308H838.057L841.593 417.429H844.205L840.247 427.252L845.35 438H842.678L838.158 428.317H836.752V438H834.18ZM849.604 417.429H852.175V425.304H859.89V417.429H862.461V438H859.89V427.714H852.175V438H849.604V417.429ZM880.456 438V422.451H880.255L872.742 438H870.17V417.429H872.742V432.978H872.943L880.476 417.429H883.027V438H880.456ZM892.665 427.714C892.665 428.625 892.672 429.328 892.685 429.824C892.699 430.306 892.752 430.888 892.846 431.571C892.953 432.254 893.107 432.824 893.308 433.279C894.071 435.033 895.424 435.911 897.366 435.911C898.719 435.911 900.795 435.616 903.594 435.027V437.498C900.915 438.047 898.839 438.321 897.366 438.321C895.759 438.321 894.406 437.933 893.308 437.156C892.21 436.379 891.406 435.368 890.897 434.123C890.549 433.279 890.328 432.375 890.234 431.411C890.141 430.446 890.094 429.214 890.094 427.714C890.094 426.228 890.141 425.009 890.234 424.058C890.328 423.107 890.549 422.203 890.897 421.346C891.393 420.1 892.176 419.083 893.248 418.292C894.333 417.502 895.638 417.107 897.165 417.107C898.692 417.107 899.991 417.502 901.063 418.292C902.147 419.083 902.938 420.1 903.433 421.346C903.781 422.203 904.002 423.107 904.096 424.058C904.19 425.009 904.237 426.228 904.237 427.714H892.665ZM901.605 425.304C901.538 424.004 901.344 422.953 901.022 422.15C900.313 420.395 899.027 419.518 897.165 419.518C895.304 419.518 894.018 420.395 893.308 422.15C892.987 422.953 892.792 424.004 892.725 425.304H901.605ZM937.896 430.607C936.932 430.607 936.048 430.413 935.244 430.025C934.441 429.636 933.778 429.114 933.256 428.458C932.921 428.042 932.653 427.614 932.452 427.172C932.251 426.73 932.11 426.241 932.03 425.705C931.963 425.17 931.916 424.728 931.89 424.379C931.876 424.031 931.869 423.542 931.869 422.913V417.429H934.441V422.913C934.441 423.65 934.448 424.199 934.461 424.56C934.488 424.922 934.568 425.33 934.702 425.786C934.849 426.228 935.064 426.616 935.345 426.951C936.068 427.781 937.052 428.196 938.298 428.196C939.544 428.196 940.528 427.781 941.251 426.951C941.532 426.616 941.74 426.228 941.874 425.786C942.021 425.33 942.102 424.922 942.115 424.56C942.142 424.199 942.155 423.65 942.155 422.913V417.429H944.727V438H942.155V428.036H941.954C941.459 428.812 940.843 429.435 940.106 429.904C939.383 430.373 938.646 430.607 937.896 430.607ZM962.722 427.714H958.784C958.289 427.714 957.9 427.728 957.619 427.754C957.351 427.781 957.009 427.882 956.594 428.056C956.179 428.217 955.811 428.464 955.489 428.799C954.739 429.589 954.364 430.627 954.364 431.913C954.364 433.025 954.699 433.969 955.369 434.746C956.052 435.522 956.922 435.911 957.98 435.911C958.998 435.911 959.889 435.67 960.652 435.188C961.416 434.692 961.958 434.056 962.28 433.279C962.574 432.583 962.722 431.337 962.722 429.542V427.714ZM959.507 417.107C960.659 417.107 961.67 417.288 962.541 417.65C963.411 417.998 964.128 418.667 964.69 419.658C965.092 420.368 965.293 421.467 965.293 422.953V438H962.722V435.529H962.521C961.168 437.391 959.494 438.321 957.498 438.321C956.802 438.321 956.018 438.127 955.148 437.739C954.277 437.35 953.554 436.728 952.978 435.871C952.188 434.692 951.793 433.386 951.793 431.953C951.793 430.025 952.382 428.471 953.561 427.292C953.989 426.877 954.445 426.536 954.927 426.268C955.409 426 955.911 425.819 956.434 425.725C956.969 425.618 957.384 425.558 957.679 425.545C957.987 425.518 958.369 425.504 958.824 425.504H962.722V423.054C962.722 421.888 962.601 421.098 962.36 420.683C962.132 420.295 961.804 420.007 961.376 419.819C960.96 419.618 960.338 419.518 959.507 419.518C958.181 419.518 956.253 419.712 953.722 420.1V417.65C956.226 417.288 958.155 417.107 959.507 417.107ZM972.5 431.411C972.406 430.446 972.359 429.214 972.359 427.714C972.359 426.214 972.406 424.982 972.5 424.018C972.594 423.054 972.815 422.15 973.163 421.306C973.672 420.06 974.475 419.049 975.574 418.272C976.672 417.496 978.025 417.107 979.632 417.107C981.105 417.107 983.181 417.382 985.859 417.931V420.402C983.06 419.812 980.984 419.518 979.632 419.518C977.69 419.518 976.337 420.395 975.574 422.15C975.373 422.605 975.219 423.174 975.112 423.857C975.018 424.54 974.964 425.129 974.951 425.625C974.938 426.107 974.931 426.804 974.931 427.714C974.931 428.625 974.938 429.328 974.951 429.824C974.964 430.306 975.018 430.888 975.112 431.571C975.219 432.254 975.373 432.824 975.574 433.279C976.337 435.033 977.69 435.911 979.632 435.911C980.984 435.911 983.06 435.616 985.859 435.027V437.498C983.181 438.047 981.105 438.321 979.632 438.321C978.025 438.321 976.672 437.933 975.574 437.156C974.475 436.379 973.672 435.368 973.163 434.123C972.815 433.279 972.594 432.375 972.5 431.411ZM1009 417.429V419.839H1001.28V438H998.711V419.839H990.997V417.429H1009ZM1024.42 438V422.451H1024.22L1016.71 438H1014.14V417.429H1016.71V432.978H1016.91L1024.44 417.429H1026.99V438H1024.42Z" fill="white"/>
<path d="M110.714 173.786H149.286C154.429 173.786 158.018 173.518 160.054 172.982C164.446 171.911 167.929 169.554 170.5 165.911C173.071 162.268 174.357 157.714 174.357 152.25C174.357 146.786 173.071 142.232 170.5 138.589C167.929 134.946 164.446 132.589 160.054 131.518C157.804 130.982 154.214 130.714 149.286 130.714H110.714V173.786ZM110.714 256.714H142.857C148.964 256.714 153.786 256.286 157.321 255.429C163.643 253.821 168.571 250.286 172.107 244.821C175.75 239.357 177.571 232.714 177.571 224.893C177.571 216.964 175.75 210.268 172.107 204.804C168.464 199.339 163.536 195.857 157.321 194.357C153.786 193.5 148.964 193.071 142.857 193.071H110.714V256.714ZM90.1428 276V111.429H149.286C155.929 111.429 161.232 111.911 165.196 112.875C173.982 115.018 181.107 119.625 186.571 126.696C192.143 133.661 194.929 142.179 194.929 152.25C194.929 159.107 193.268 165.321 189.946 170.893C186.732 176.357 182.393 180.75 176.929 184.071C191.071 194.25 198.143 207.857 198.143 224.893C198.143 237.429 194.929 248.089 188.5 256.875C182.071 265.554 173.554 271.286 162.946 274.071C158.125 275.357 151.429 276 142.857 276H90.1428Z" fill="white"/>
<path d="M311.888 278.571C298.174 278.571 286.495 271.018 276.853 255.911H275.246V337.714H254.674V111.429H275.246V131.518H276.853C286.495 116.411 298.174 108.857 311.888 108.857C322.496 108.857 331.924 112.232 340.174 118.982C348.424 125.625 354.424 134.946 358.174 146.946C359.567 151.446 360.585 156.482 361.228 162.054C361.978 167.625 362.406 172.393 362.513 176.357C362.621 180.214 362.674 186 362.674 193.714C362.674 201.429 362.621 207.268 362.513 211.232C362.406 215.089 361.978 219.804 361.228 225.375C360.585 230.946 359.567 235.982 358.174 240.482C354.424 252.482 348.424 261.857 340.174 268.607C331.924 275.25 322.496 278.571 311.888 278.571ZM290.353 252.375C295.388 256.982 301.495 259.286 308.674 259.286C315.853 259.286 321.906 256.982 326.835 252.375C331.87 247.661 335.567 241.821 337.924 234.857C340.71 226.393 342.103 212.679 342.103 193.714C342.103 174.75 340.71 161.036 337.924 152.571C335.567 145.607 331.87 139.821 326.835 135.214C321.906 130.5 315.853 128.143 308.674 128.143C301.495 128.143 295.388 130.5 290.353 135.214C285.424 139.821 281.781 145.607 279.424 152.571C276.638 161.036 275.246 174.75 275.246 193.714C275.246 212.679 276.638 226.393 279.424 234.857C281.781 241.821 285.424 247.661 290.353 252.375Z" fill="white"/>
<path d="M439.295 118.339C447.973 112.018 458.42 108.857 470.634 108.857C482.848 108.857 493.241 112.018 501.812 118.339C510.491 124.661 516.812 132.804 520.777 142.768C523.562 149.625 525.33 156.857 526.08 164.464C526.83 172.071 527.205 181.821 527.205 193.714C527.205 205.607 526.83 215.357 526.08 222.964C525.33 230.571 523.562 237.804 520.777 244.661C516.812 254.625 510.491 262.768 501.812 269.089C493.241 275.411 482.848 278.571 470.634 278.571C458.42 278.571 447.973 275.411 439.295 269.089C430.723 262.768 424.455 254.625 420.491 244.661C417.705 237.804 415.937 230.571 415.187 222.964C414.437 215.357 414.062 205.607 414.062 193.714C414.062 181.821 414.437 172.071 415.187 164.464C415.937 156.857 417.705 149.625 420.491 142.768C424.455 132.804 430.723 124.661 439.295 118.339ZM501.491 149.196C495.812 135.161 485.527 128.143 470.634 128.143C455.741 128.143 445.455 135.161 439.777 149.196C436.348 157.768 434.634 172.607 434.634 193.714C434.634 214.821 436.348 229.661 439.777 238.232C445.455 252.268 455.741 259.286 470.634 259.286C485.527 259.286 495.812 252.268 501.491 238.232C504.92 229.661 506.634 214.821 506.634 193.714C506.634 172.607 504.92 157.768 501.491 149.196Z" fill="white"/>
<path d="M598.522 256.714H666.022V130.714H624.879C624.772 143.357 624.076 156.054 622.79 168.804C621.504 181.554 618.772 196.179 614.594 212.679C610.522 229.179 605.165 243.857 598.522 256.714ZM577.469 256.714C588.397 235.179 595.576 213.107 599.004 190.5C602.54 167.893 604.308 141.536 604.308 111.429H686.594V256.714H707.165V317.143H686.594V276H583.737V317.143H563.165V256.714H577.469Z" fill="white"/>
<path d="M763.696 193.714C763.696 201 763.75 206.625 763.857 210.589C763.964 214.446 764.393 219.107 765.143 224.571C766 230.036 767.232 234.589 768.839 238.232C774.946 252.268 785.768 259.286 801.304 259.286C812.125 259.286 828.732 256.929 851.125 252.214V271.982C829.696 276.375 813.089 278.571 801.304 278.571C788.446 278.571 777.625 275.464 768.839 269.25C760.054 263.036 753.625 254.946 749.554 244.982C746.768 238.232 745 231 744.25 223.286C743.5 215.571 743.125 205.714 743.125 193.714C743.125 181.821 743.5 172.071 744.25 164.464C745 156.857 746.768 149.625 749.554 142.768C753.518 132.804 759.786 124.661 768.357 118.339C777.036 112.018 787.482 108.857 799.696 108.857C811.911 108.857 822.304 112.018 830.875 118.339C839.554 124.661 845.875 132.804 849.839 142.768C852.625 149.625 854.393 156.857 855.143 164.464C855.893 172.071 856.268 181.821 856.268 193.714H763.696ZM835.214 174.429C834.679 164.036 833.125 155.625 830.554 149.196C824.875 135.161 814.589 128.143 799.696 128.143C784.803 128.143 774.518 135.161 768.839 149.196C766.268 155.625 764.714 164.036 764.179 174.429H835.214Z" fill="white"/>
<path d="M1128.76 128.143C1120.94 128.143 1114.19 130.018 1108.51 133.768C1102.94 137.518 1099.19 142.661 1097.26 149.196C1094.26 159.161 1092.76 174 1092.76 193.714C1092.76 200.571 1092.81 206.036 1092.92 210.107C1093.13 214.179 1093.62 218.893 1094.37 224.25C1095.12 229.607 1096.29 234.268 1097.9 238.232C1100.47 244.768 1104.44 249.911 1109.79 253.661C1115.15 257.411 1121.47 259.286 1128.76 259.286C1136.26 259.286 1142.79 257.411 1148.37 253.661C1153.94 249.804 1157.69 244.661 1159.62 238.232C1163.04 226.768 1164.76 211.929 1164.76 193.714C1164.76 173.893 1163.04 159.054 1159.62 149.196C1157.37 142.661 1153.56 137.518 1148.21 133.768C1142.96 130.018 1136.47 128.143 1128.76 128.143ZM1131.97 108.857C1143.76 108.857 1153.83 112.071 1162.19 118.5C1170.54 124.821 1176.33 132.911 1179.54 142.768C1183.4 154.554 1185.33 171.536 1185.33 193.714C1185.33 201.857 1185.22 208.179 1185.01 212.679C1184.9 217.071 1184.31 222.268 1183.24 228.268C1182.28 234.161 1180.83 239.625 1178.9 244.661C1170.01 267.268 1152.22 278.571 1125.54 278.571C1114.94 278.571 1105.4 275.357 1096.94 268.929C1088.47 262.393 1082.37 254.304 1078.62 244.661C1074.33 233.411 1072.19 219.857 1072.19 204C1072.19 182.571 1072.24 166.875 1072.35 156.911C1072.46 146.839 1072.78 136.446 1073.31 125.732C1073.85 114.911 1074.65 107.089 1075.72 102.268C1079.58 85.4464 1087.08 72.9107 1098.22 64.6607C1105.08 59.5178 1112.21 55.8214 1119.6 53.5714C1127.1 51.3214 1133.63 50.25 1139.21 50.3571C1144.88 50.3571 1151.63 50.1964 1159.46 49.875C1167.28 49.4464 1174.19 48.4286 1180.19 46.8214V66.5893C1173.97 67.7678 1165.83 68.5178 1155.76 68.8393C1145.69 69.1607 1137.06 69.9643 1129.88 71.25C1122.81 72.5357 1116.65 75.2678 1111.4 79.4464C1099.83 88.5536 1093.72 104.893 1093.08 128.464H1094.69C1100.47 121.821 1106.21 116.893 1111.88 113.679C1117.56 110.464 1124.26 108.857 1131.97 108.857Z" fill="white"/>
<path d="M1262.59 173.786H1271.75C1280.33 173.786 1287.02 174.429 1291.84 175.714C1302.45 178.5 1310.97 184.286 1317.4 193.071C1323.83 201.75 1327.04 212.357 1327.04 224.893C1327.04 237.429 1323.83 248.089 1317.4 256.875C1310.97 265.554 1302.45 271.286 1291.84 274.071C1287.02 275.357 1280.33 276 1271.75 276H1241.86V111.429H1262.59V173.786ZM1262.43 193.071V256.714H1271.75C1277.86 256.714 1282.68 256.286 1286.22 255.429C1292.54 253.821 1297.47 250.286 1301 244.821C1304.65 239.357 1306.47 232.714 1306.47 224.893C1306.47 217.071 1304.65 210.429 1301 204.964C1297.47 199.5 1292.54 195.964 1286.22 194.357C1282.68 193.5 1277.86 193.071 1271.75 193.071H1262.43ZM1365.29 111.429V276H1344.72V111.429H1365.29Z" fill="white"/>
<path d="M0 110H1442.5" stroke="#00FF29" stroke-width="3"/>
<path d="M3 277H1445.5" stroke="#00FF29" stroke-width="3"/>
<path d="M474.5 96.5C477.333 84.6667 487.8 56.9 507 40.5C526.2 24.1 560.333 20.6667 575 21" stroke="#00FF29" stroke-width="3"/>
<path d="M321.5 345.5C321.5 374.797 298.193 398.5 269.5 398.5C240.807 398.5 217.5 374.797 217.5 345.5C217.5 316.203 240.807 292.5 269.5 292.5C298.193 292.5 321.5 316.203 321.5 345.5Z" stroke="#00FF29" stroke-width="3"/>
<path d="M1205.5 84.5C1205.5 126.501 1172.12 160.5 1131 160.5C1089.88 160.5 1056.5 126.501 1056.5 84.5C1056.5 42.4986 1089.88 8.5 1131 8.5C1172.12 8.5 1205.5 42.4986 1205.5 84.5Z" stroke="#00FF29" stroke-width="3"/>
<path d="M299.5 396.5C302.333 403.5 311.5 419.2 325.5 426C339.5 432.8 368.333 432.167 381 431" stroke="#00FF29" stroke-width="3"/>
</svg>
