<svg width="1405" height="533" viewBox="0 0 1405 533" fill="none" xmlns="http://www.w3.org/2000/svg">
<path d="M9.48591 30.0356L27.8295 47.1168L24.7423 50.3465L4.71155 31.471V28.2414L24.7423 9.36595L27.8295 12.5956L9.48591 29.6768V30.0356Z" fill="white"/>
<path d="M49.2154 42.2006C50.1727 41.2437 51.4171 40.7652 52.9488 40.7652C54.4804 40.7652 55.7248 41.2437 56.6821 42.2006C57.6394 43.1575 58.118 44.4015 58.118 45.9326C58.118 47.4637 57.6394 48.7077 56.6821 49.6647C55.7248 50.6216 54.4804 51.1 52.9488 51.1C51.4171 51.1 50.1727 50.6216 49.2154 49.6647C48.2582 48.7077 47.7795 47.4637 47.7795 45.9326C47.7795 44.4015 48.2582 43.1575 49.2154 42.2006ZM55.2462 32.1528H50.6513L50.2923 0H55.6052L55.2462 32.1528Z" fill="white"/>
<path d="M112.664 27.7031H140.233V32.0093H112.664V27.7031Z" fill="white"/>
<path d="M236.699 32.0093H193.048V27.7031H236.699L220.473 12.5956L223.56 9.36595L243.591 28.2414V31.471L223.56 50.3465L220.473 47.1168L236.699 32.0093Z" fill="white"/>
<path d="M310.19 32.0093L326.416 47.1168L323.328 50.3465L303.298 31.471V28.2414L323.328 9.36595L326.416 12.5956L310.19 27.7031H353.841V32.0093H310.19Z" fill="white"/>
<path d="M406.664 27.7031H434.234V32.0093H406.664V27.7031Z" fill="white"/>
<path d="M505.257 30.0356V29.6768L486.913 12.5956L490 9.36595L510.031 28.2414V31.471L490 50.3465L486.913 47.1168L505.257 30.0356Z" fill="white"/>
<path d="M532.817 30.0356V29.6768L514.473 12.5956L517.561 9.36595L537.591 28.2414V31.471L517.561 50.3465L514.473 47.1168L532.817 30.0356Z" fill="white"/>
<path d="M602.081 30.0356L620.425 47.1168L617.338 50.3465L597.307 31.471V28.2414L617.338 9.36595L620.425 12.5956L602.081 29.6768V30.0356Z" fill="white"/>
<path d="M629.641 30.0356L647.985 47.1168L644.898 50.3465L624.867 31.471V28.2414L644.898 9.36595L647.985 12.5956L629.641 29.6768V30.0356Z" fill="white"/>
<path d="M700.665 27.7031H728.234V32.0093H700.665V27.7031Z" fill="white"/>
<path d="M52.9488 100.908H9.29744V96.6021H52.9488L36.7231 81.4945L39.8103 78.2649L59.8411 97.1403V100.37L39.8103 119.245L36.7231 116.016L52.9488 100.908Z" fill="white"/>
<path d="M126.44 100.908L142.665 116.016L139.578 119.245L119.548 100.37V97.1403L139.578 78.2649L142.665 81.4945L126.44 96.6021H170.091V100.908H126.44Z" fill="white"/>
<path d="M275.567 98.9346V98.5757L268.208 91.7217H229.798V87.4155H263.577L257.223 81.4945L260.31 78.2649L280.341 97.1403V100.37L260.31 119.245L257.223 116.016L263.577 110.095H229.798V105.789H268.208L275.567 98.9346Z" fill="white"/>
<path d="M390.591 110.382V114.688H340.048V110.382H390.591ZM347.622 91.6858V92.0447L390.591 101.231V105.645L340.048 94.736V88.9945L390.591 78.0855V82.4993L347.622 91.6858Z" fill="white"/>
<path d="M408.818 81.4945L411.905 78.2649L431.936 97.1403V100.37L411.905 119.245L408.818 116.016L427.162 98.9346V98.5757L408.818 81.4945Z" fill="white"/>
<path d="M537.591 110.382V114.688H487.048V110.382H537.591ZM494.622 91.6858V92.0447L537.591 101.231V105.645L487.048 94.736V88.9945L537.591 78.0855V82.4993L494.622 91.6858Z" fill="white"/>
<path d="M606.317 98.9346V98.5757L598.958 91.7217H560.548V87.4155H594.327L587.973 81.4945L591.061 78.2649L611.091 97.1403V100.37L591.061 119.245L587.973 116.016L594.327 110.095H560.548V105.789H598.958L606.317 98.9346Z" fill="white"/>
<path d="M666.212 105.789H689.186V110.095H666.212V105.789ZM666.212 87.4155H689.186V91.7217H666.212V87.4155Z" fill="white"/>
<path d="M702.962 105.789H725.936V110.095H702.962V105.789ZM702.962 87.4155H725.936V91.7217H702.962V87.4155Z" fill="white"/>
<path d="M739.568 81.4945L742.656 78.2649L762.686 97.1403V100.37L742.656 119.245L739.568 116.016L757.912 98.9346V98.5757L739.568 81.4945Z" fill="white"/>
<path d="M59.8411 179.281V183.587H9.29744V179.281H59.8411ZM16.8718 160.585V160.944L59.8411 170.13V174.544L9.29744 163.635V157.893L59.8411 146.984V151.398L16.8718 160.585Z" fill="white"/>
<path d="M75.9142 174.688H103.483V178.994H75.9142V174.688ZM75.9142 156.314H103.483V160.621H75.9142V156.314Z" fill="white"/>
<path d="M174.507 167.834V167.475L156.163 150.393L159.25 147.164L179.281 166.039V169.269L159.25 188.144L156.163 184.915L174.507 167.834Z" fill="white"/>
<path d="M202.067 167.834V167.475L183.723 150.393L186.81 147.164L206.841 166.039V169.269L186.81 188.144L183.723 184.915L202.067 167.834Z" fill="white"/>
<path d="M259.664 174.688H287.234V178.994H259.664V174.688ZM259.664 156.314H287.234V160.621H259.664V156.314Z" fill="white"/>
<path d="M333.164 174.688H360.734V178.994H333.164V174.688ZM333.164 156.314H360.734V160.621H333.164V156.314Z" fill="white"/>
<path d="M418.331 167.834L436.675 184.915L433.587 188.144L413.557 169.269V166.039L433.587 147.164L436.675 150.393L418.331 167.475V167.834Z" fill="white"/>
<path d="M445.891 167.834L464.235 184.915L461.148 188.144L441.117 169.269V166.039L461.148 147.164L464.235 150.393L445.891 167.475V167.834Z" fill="white"/>
<path d="M516.914 165.501H544.484V169.807H516.914V165.501Z" fill="white"/>
<path d="M560.557 179.711H569.747V188.324H560.557V179.711ZM560.557 151.578H569.747V160.19H560.557V151.578Z" fill="white"/>
<path d="M627.165 174.688H654.734V178.994H627.165V174.688ZM627.165 156.314H654.734V160.621H627.165V156.314Z" fill="white"/>
<path d="M700.665 174.688H728.234V178.994H700.665V174.688ZM700.665 156.314H728.234V160.621H700.665V156.314Z" fill="white"/>
<path d="M9.30642 248.61H18.4962V257.223H9.30642V248.61ZM9.30642 220.477H18.4962V229.089H9.30642V220.477Z" fill="white"/>
<path d="M75.9142 243.586H103.483V247.893H75.9142V243.586ZM75.9142 225.213H103.483V229.52H75.9142V225.213Z" fill="white"/>
<path d="M151.712 243.586H174.686V247.893H151.712V243.586ZM151.712 225.213H174.686V229.52H151.712V225.213Z" fill="white"/>
<path d="M188.462 243.586H211.436V247.893H188.462V243.586ZM188.462 225.213H211.436V229.52H188.462V225.213Z" fill="white"/>
<path d="M232.966 248.897C233.923 247.94 235.167 247.462 236.699 247.462C238.231 247.462 239.475 247.94 240.432 248.897C241.389 249.854 241.868 251.098 241.868 252.629C241.868 254.161 241.389 255.405 240.432 256.361C239.475 257.318 238.231 257.797 236.699 257.797C235.167 257.797 233.923 257.318 232.966 256.361C232.008 255.405 231.53 254.161 231.53 252.629C231.53 251.098 232.008 249.854 232.966 248.897ZM238.996 238.85H234.401L234.042 206.697H239.355L238.996 238.85Z" fill="white"/>
<path d="M298.712 243.586H321.686V247.893H298.712V243.586ZM298.712 225.213H321.686V229.52H298.712V225.213Z" fill="white"/>
<path d="M335.462 243.586H358.436V247.893H335.462V243.586ZM335.462 225.213H358.436V229.52H335.462V225.213Z" fill="white"/>
<path d="M379.966 248.897C380.923 247.94 382.167 247.462 383.699 247.462C385.231 247.462 386.475 247.94 387.432 248.897C388.39 249.854 388.868 251.098 388.868 252.629C388.868 254.161 388.39 255.405 387.432 256.361C386.475 257.318 385.231 257.797 383.699 257.797C382.167 257.797 380.923 257.318 379.966 256.361C379.008 255.405 378.53 254.161 378.53 252.629C378.53 251.098 379.008 249.854 379.966 248.897ZM385.996 238.85H381.402L381.043 206.697H386.355L385.996 238.85Z" fill="white"/>
<path d="M443.414 243.586H470.984V247.893H443.414V243.586ZM443.414 225.213H470.984V229.52H443.414V225.213Z" fill="white"/>
<path d="M574.341 248.18V252.486H523.798V248.18H574.341ZM531.372 229.484V229.843L574.341 239.029V243.443L523.798 232.534V226.792L574.341 215.883V220.297L531.372 229.484Z" fill="white"/>
<path d="M592.568 219.292L595.656 216.063L615.686 234.938V238.168L595.656 257.043L592.568 253.814L610.912 236.732V236.374L592.568 219.292Z" fill="white"/>
<path d="M663.915 243.586H691.484V247.893H663.915V243.586ZM663.915 225.213H691.484V229.52H663.915V225.213Z" fill="white"/>
<path d="M4.05641 331.684L0 329.782L28.3231 270.034L32.3795 271.935L4.05641 331.684ZM31.6257 331.684L27.5693 329.782L55.8924 270.034L59.9488 271.935L31.6257 331.684Z" fill="white"/>
<path d="M114.315 331.684L110.259 329.782L138.582 270.034L142.639 271.935L114.315 331.684Z" fill="white"/>
<path d="M197.651 307.39L184.441 311.696L182.933 307.641L196.359 303.263L188.031 291.78L191.836 289.376L199.949 300.536L208.098 289.376L211.903 291.78L203.539 303.263L216.964 307.641L215.457 311.696L202.246 307.39V321.528H197.651V307.39Z" fill="white"/>
<path d="M234.401 307.39L221.191 311.696L219.683 307.641L233.109 303.263L224.781 291.78L228.586 289.376L236.699 300.536L244.848 289.376L248.653 291.78L240.289 303.263L253.714 307.641L252.207 311.696L238.996 307.39V321.528H234.401V307.39Z" fill="white"/>
<path d="M298.066 331.684L294.009 329.782L322.332 270.034L326.389 271.935L298.066 331.684Z" fill="white"/>
<path d="M381.402 307.39L368.191 311.696L366.684 307.641L380.109 303.263L371.781 291.78L375.586 289.376L383.699 300.536L391.848 289.376L395.653 291.78L387.289 303.263L400.714 307.641L399.207 311.696L385.996 307.39V321.528H381.402V307.39Z" fill="white"/>
<path d="M454.902 307.39L441.691 311.696L440.184 307.641L453.609 303.263L445.281 291.78L449.086 289.376L457.199 300.536L465.348 289.376L469.153 291.78L460.789 303.263L474.214 307.641L472.707 311.696L459.496 307.39V321.528H454.902V307.39Z" fill="white"/>
<path d="M518.566 331.684L514.509 329.782L542.832 270.034L546.889 271.935L518.566 331.684Z" fill="white"/>
<path d="M636.471 300.392L647.384 315.356C647.695 314.16 647.85 312.473 647.85 310.296V303.155H652.445V310.296C652.445 314.292 651.811 317.402 650.543 319.626L655.245 326.122H649.681L647.527 323.179C644.321 325.524 640.025 326.696 634.64 326.696C631.936 326.696 629.256 326.337 626.599 325.619C623.967 324.878 621.825 323.825 620.174 322.461C618.953 323.825 617.326 324.878 615.291 325.619C613.257 326.337 611.091 326.696 608.794 326.696C605.683 326.696 602.835 326.134 600.25 325.009C597.69 323.885 595.596 322.186 593.968 319.914C592.365 317.617 591.563 314.949 591.563 311.911C591.563 308.514 592.509 305.667 594.399 303.371C596.29 301.074 598.731 299.34 601.722 298.167L599.999 295.799C598.922 294.316 598.097 292.892 597.522 291.529C596.972 290.141 596.697 288.586 596.697 286.864C596.697 283.395 597.821 280.536 600.071 278.287C602.321 276.014 605.216 274.878 608.758 274.878C612.324 274.878 615.232 276.026 617.481 278.323C619.755 280.596 620.891 283.431 620.891 286.828C620.891 289.986 619.874 292.785 617.84 295.225C615.806 297.641 612.826 299.363 608.902 300.392L619.168 314.423C619.288 313.801 619.408 312.964 619.527 311.911C619.647 310.859 619.779 309.902 619.922 309.04C620.09 308.179 620.317 307.33 620.604 306.493C621.298 304.531 622.399 302.832 623.907 301.397C625.415 299.938 627.197 298.849 629.256 298.131L627.927 296.301C626.683 294.579 625.762 293.012 625.163 291.6C624.565 290.189 624.266 288.55 624.266 286.684C624.266 283.191 625.426 280.356 627.748 278.179C630.069 275.979 632.929 274.878 636.327 274.878C639.774 274.878 642.657 275.99 644.979 278.215C647.3 280.44 648.461 283.311 648.461 286.828C648.461 289.986 647.444 292.785 645.409 295.225C643.375 297.641 640.396 299.363 636.471 300.392ZM636.327 279.184C634.126 279.184 632.331 279.878 630.943 281.266C629.555 282.629 628.861 284.435 628.861 286.684C628.861 288.096 629.1 289.328 629.579 290.38C630.057 291.409 630.775 292.569 631.733 293.861L633.815 296.696C640.515 295.069 643.866 291.768 643.866 286.792C643.866 284.495 643.172 282.653 641.784 281.266C640.396 279.878 638.577 279.184 636.327 279.184ZM622.65 318.765C623.895 319.961 625.618 320.87 627.82 321.492C630.021 322.091 632.295 322.39 634.64 322.39C639.163 322.39 642.585 321.457 644.907 319.591L631.912 301.756C628.322 302.952 626.013 304.985 624.984 307.856C624.601 308.909 624.254 310.679 623.943 313.167C623.632 315.631 623.201 317.497 622.65 318.765ZM614.25 281.337C612.886 279.902 611.056 279.184 608.758 279.184C606.461 279.184 604.642 279.89 603.302 281.301C601.962 282.689 601.291 284.543 601.291 286.864C601.291 288.179 601.495 289.304 601.902 290.237C602.332 291.17 602.967 292.21 603.804 293.359L606.245 296.696C607.418 296.361 608.423 296.038 609.261 295.727C610.098 295.392 610.984 294.962 611.917 294.435C612.874 293.885 613.64 293.287 614.215 292.641C614.813 291.971 615.303 291.146 615.686 290.165C616.093 289.16 616.297 288.048 616.297 286.828C616.297 284.579 615.615 282.749 614.25 281.337ZM604.379 301.792C598.898 303.682 596.158 307.055 596.158 311.911C596.158 315.237 597.355 317.82 599.748 319.662C602.165 321.481 605.18 322.39 608.794 322.39C612.575 322.39 615.339 321.337 617.086 319.232L604.379 301.792Z" fill="white"/>
<path d="M670.807 317.509H679.997V326.122H670.807V317.509Z" fill="white"/>
<path d="M746.676 301.684C744.259 302.497 742.297 303.777 740.789 305.524C739.305 307.246 738.563 309.375 738.563 311.911C738.563 314.902 739.688 317.402 741.938 319.411C744.211 321.397 747.298 322.39 751.199 322.39C754.861 322.39 757.721 321.457 759.779 319.591L746.676 301.684ZM748.65 296.732C750.062 296.373 751.307 295.954 752.384 295.476C753.485 294.997 754.538 294.375 755.543 293.61C756.548 292.844 757.326 291.887 757.876 290.739C758.427 289.591 758.702 288.287 758.702 286.828C758.702 284.579 758.02 282.749 756.656 281.337C755.292 279.902 753.473 279.184 751.199 279.184C748.95 279.184 747.131 279.89 745.743 281.301C744.379 282.689 743.697 284.543 743.697 286.864C743.697 287.246 743.709 287.605 743.733 287.94C743.756 288.251 743.816 288.586 743.912 288.945C744.032 289.304 744.115 289.603 744.163 289.842C744.235 290.081 744.391 290.416 744.63 290.847C744.869 291.254 745.037 291.553 745.133 291.744C745.228 291.935 745.456 292.294 745.815 292.82C746.198 293.347 746.461 293.718 746.604 293.933C746.748 294.124 747.071 294.567 747.574 295.261C748.076 295.954 748.435 296.445 748.65 296.732ZM762.256 315.392C762.543 314.363 762.686 312.784 762.686 310.655V303.155H767.281V310.655C767.281 314.627 766.647 317.641 765.379 319.698L770.081 326.122H764.517L762.399 323.179C759.527 325.524 755.794 326.696 751.199 326.696C745.934 326.696 741.746 325.26 738.635 322.39C735.524 319.519 733.968 316.026 733.968 311.911C733.968 308.706 734.902 305.871 736.768 303.407C738.635 300.942 741.052 299.16 744.02 298.06C743.039 296.696 742.356 295.739 741.974 295.189C741.591 294.615 741.112 293.813 740.538 292.785C739.987 291.732 739.604 290.763 739.389 289.878C739.197 288.969 739.102 287.976 739.102 286.899C739.102 283.335 740.238 280.44 742.512 278.215C744.809 275.99 747.705 274.878 751.199 274.878C754.741 274.878 757.637 276.014 759.886 278.287C762.16 280.56 763.297 283.407 763.297 286.828C763.297 289.986 762.256 292.797 760.174 295.261C758.115 297.701 755.172 299.423 751.343 300.428L762.256 315.392Z" fill="white"/>
<path d="M23.091 339.901V399.614H18.4962V339.901H23.091Z" fill="white"/>
<path d="M50.6513 339.901V399.614H46.0564V339.901H50.6513Z" fill="white"/>
<path d="M122.715 386.695C123.673 385.738 124.917 385.26 126.449 385.26C127.98 385.26 129.225 385.738 130.182 386.695C131.139 387.652 131.618 388.896 131.618 390.427C131.618 391.958 131.139 393.202 130.182 394.159C129.225 395.116 127.98 395.595 126.449 395.595C124.917 395.595 123.673 395.116 122.715 394.159C121.758 393.202 121.28 391.958 121.28 390.427C121.28 388.896 121.758 387.652 122.715 386.695ZM128.746 376.648H124.151L123.792 344.495H129.105L128.746 376.648Z" fill="white"/>
<path d="M159.465 386.695C160.423 385.738 161.667 385.26 163.199 385.26C164.73 385.26 165.975 385.738 166.932 386.695C167.889 387.652 168.368 388.896 168.368 390.427C168.368 391.958 167.889 393.202 166.932 394.159C165.975 395.116 164.73 395.595 163.199 395.595C161.667 395.595 160.423 395.116 159.465 394.159C158.508 393.202 158.03 391.958 158.03 390.427C158.03 388.896 158.508 387.652 159.465 386.695ZM165.496 376.648H160.901L160.542 344.495H165.855L165.496 376.648Z" fill="white"/>
<path d="M229.807 386.408H238.996V395.021H229.807V386.408ZM229.807 358.274H238.996V366.887H229.807V358.274Z" fill="white"/>
<path d="M266.557 386.408H275.746V395.021H266.557V386.408ZM266.557 358.274H275.746V366.887H266.557V358.274Z" fill="white"/>
<path d="M358.257 374.53V374.171L339.913 357.09L343 353.861L363.031 372.736V375.966L343 394.841L339.913 391.612L358.257 374.53Z" fill="white"/>
<path d="M385.817 374.53V374.171L367.473 357.09L370.561 353.861L390.591 372.736V375.966L370.561 394.841L367.473 391.612L385.817 374.53Z" fill="white"/>
<path d="M455.081 374.53L473.425 391.612L470.337 394.841L450.307 375.966V372.736L470.337 353.861L473.425 357.09L455.081 374.171V374.53Z" fill="white"/>
<path d="M482.641 374.53L500.985 391.612L497.898 394.841L477.867 375.966V372.736L497.898 353.861L500.985 357.09L482.641 374.171V374.53Z" fill="white"/>
<path d="M555.962 349.231H578.936V353.538H555.962V349.231Z" fill="white"/>
<path d="M653.083 400.583L624.759 340.834L628.816 338.933L657.139 398.681L653.083 400.583Z" fill="white"/>
<path d="M698.367 395.021H730.531V399.327H698.367V395.021Z" fill="white"/>
<path d="M25.4962 408.442L27.4705 412.209C22.8757 414.53 19.3218 417.903 16.809 422.329C14.2962 426.755 13.0398 432.209 13.0398 438.692C13.0398 445.176 14.2962 450.642 16.809 455.092C19.3218 459.518 22.8757 462.879 27.4705 465.175L25.4962 468.943C20.1116 466.336 15.9235 462.484 12.9321 457.389C9.94061 452.293 8.44488 446.061 8.44488 438.692C8.44488 431.324 9.94061 425.104 12.9321 420.032C15.9235 414.937 20.1116 411.073 25.4962 408.442Z" fill="white"/>
<path d="M63.7008 412.108L58.3937 413.899C60.1168 417.482 64.0454 428.161 65.1482 432.088L70.5242 430.228C69.3525 426.37 65.2171 415.415 63.7008 412.108ZM94.3026 416.517L87.9617 414.726C86.5832 425.061 82.3789 436.084 76.934 443.043C69.9728 451.862 59.7032 458.477 49.8472 461.37L54.6029 466.193C64.3211 462.748 74.5217 455.652 81.6208 446.281C87.2725 438.84 90.9943 428.988 93.062 420.444C93.3377 419.342 93.8202 417.688 94.3026 416.517ZM44.4712 416.241L39.0263 418.24C40.6804 421.202 45.4361 432.846 46.7457 437.118L52.1906 435.12C50.6054 430.641 46.2632 420.1 44.4712 416.241Z" fill="white"/>
<path d="M112.574 408.442C117.959 411.073 122.147 414.937 125.139 420.032C128.13 425.104 129.626 431.324 129.626 438.692C129.626 446.061 128.13 452.293 125.139 457.389C122.147 462.484 117.959 466.336 112.574 468.943L110.6 465.175C115.195 462.879 118.749 459.518 121.262 455.092C123.774 450.642 125.031 445.176 125.031 438.692C125.031 432.209 123.774 426.755 121.262 422.329C118.749 417.903 115.195 414.53 110.6 412.209L112.574 408.442Z" fill="white"/>
<path d="M179.29 463.92H211.454V468.226H179.29V463.92Z" fill="white"/>
<path d="M256.739 469.482L252.682 467.58L281.005 407.831L285.062 409.733L256.739 469.482Z" fill="white"/>
<path d="M330.885 418.13H353.859V422.437H330.885V418.13Z" fill="white"/>
<path d="M399.79 463.92H431.954V468.226H399.79V463.92Z" fill="white"/>
<path d="M436.54 463.92H468.704V468.226H436.54V463.92Z" fill="white"/>
<path d="M510.04 463.92H542.204V468.226H510.04V463.92Z" fill="white"/>
<path d="M546.79 463.92H578.954V468.226H546.79V463.92Z" fill="white"/>
<path d="M583.54 463.92H615.704V468.226H583.54V463.92Z" fill="white"/>
<path d="M670.825 455.307H680.015V463.92H670.825V455.307Z" fill="white"/>
<path d="M698.385 455.307H707.575V463.92H698.385V455.307Z" fill="white"/>
<path d="M18.4782 524.206H27.668V532.818H18.4782V524.206ZM46.0475 524.206H55.2372V532.818H46.0475V524.206ZM73.6167 524.206H82.8065V532.818H73.6167V524.206Z" fill="white"/>
<path d="M889.371 46.4112V50.7152H838.849V46.4112H889.371ZM846.42 27.7248V28.0834L889.371 37.2652V41.6768L838.849 30.7734V25.0348L889.371 14.1314V18.543L846.42 27.7248Z" fill="white"/>
<path d="M965.243 0L967.217 3.76598C962.624 6.08534 959.071 9.45679 956.56 13.8803C954.048 18.3038 952.792 23.7555 952.792 30.2354C952.792 36.7153 954.048 42.1789 956.56 46.6264C959.071 51.0499 962.624 54.4094 967.217 56.7049L965.243 60.4708C959.861 57.8645 955.675 54.0149 952.684 48.9218C949.694 43.8288 948.199 37.6 948.199 30.2354C948.199 22.8708 949.694 16.654 952.684 11.5849C955.675 6.49183 959.861 2.63021 965.243 0Z" fill="white"/>
<path d="M1017.94 14.9563C1017.94 13.976 1017.95 13.1989 1017.97 12.625C1018.02 12.0511 1018.19 11.2979 1018.47 10.3654C1018.79 9.40896 1019.23 8.54817 1019.8 7.78302C1021.48 5.51148 1023.92 4.37571 1027.12 4.37571V8.67968C1025.54 8.67968 1024.35 9.21768 1023.53 10.2937C1023.22 10.7002 1022.98 11.1903 1022.82 11.7642C1022.67 12.3141 1022.59 12.7924 1022.56 13.1989C1022.54 13.5814 1022.53 14.1672 1022.53 14.9563V23.3132H1017.94V14.9563ZM1031.71 14.9563C1031.71 13.976 1031.73 13.1989 1031.75 12.625C1031.8 12.0511 1031.97 11.2979 1032.25 10.3654C1032.56 9.40896 1033.01 8.54817 1033.58 7.78302C1035.25 5.51148 1037.69 4.37571 1040.9 4.37571V8.67968C1039.32 8.67968 1038.13 9.21768 1037.31 10.2937C1037 10.7002 1036.76 11.1903 1036.59 11.7642C1036.45 12.3141 1036.37 12.7924 1036.34 13.1989C1036.32 13.5814 1036.31 14.1672 1036.31 14.9563V23.3132H1031.71V14.9563Z" fill="white"/>
<path d="M1059.44 34.9698L1077.78 52.0422L1074.69 55.2702L1054.67 36.4044V33.1765L1074.69 14.3107L1077.78 17.5387L1059.44 34.6111V34.9698Z" fill="white"/>
<path d="M1114.37 13.3065C1114.37 14.2868 1114.34 15.0639 1114.3 15.6378C1114.27 16.2116 1114.11 16.9768 1113.79 17.9332C1113.51 18.8658 1113.08 19.7146 1112.5 20.4797C1110.83 22.7513 1108.39 23.8871 1105.18 23.8871V19.5831C1106.76 19.5831 1107.96 19.0451 1108.77 17.9691C1109.08 17.5626 1109.31 17.0844 1109.45 16.5344C1109.62 15.9606 1109.72 15.4824 1109.74 15.0998C1109.76 14.6933 1109.78 14.0955 1109.78 13.3065V4.94957H1114.37V13.3065ZM1100.59 13.3065C1100.59 14.2868 1100.57 15.0639 1100.52 15.6378C1100.49 16.2116 1100.33 16.9768 1100.02 17.9332C1099.73 18.8658 1099.3 19.7146 1098.72 20.4797C1097.05 22.7513 1094.61 23.8871 1091.4 23.8871V19.5831C1092.98 19.5831 1094.18 19.0451 1094.99 17.9691C1095.3 17.5626 1095.53 17.0844 1095.67 16.5344C1095.84 15.9606 1095.94 15.4824 1095.96 15.0998C1095.99 14.6933 1096 14.0955 1096 13.3065V4.94957H1100.59V13.3065Z" fill="white"/>
<path d="M1178.65 32.6385H1192.43V36.9424H1178.65V50.8586H1174.06V36.9424H1160.28V32.6385H1174.06V18.7223H1178.65V32.6385Z" fill="white"/>
<path d="M1238.34 14.9563C1238.34 13.976 1238.35 13.1989 1238.38 12.625C1238.42 12.0511 1238.59 11.2979 1238.88 10.3654C1239.19 9.40896 1239.63 8.54817 1240.21 7.78302C1241.88 5.51148 1244.32 4.37571 1247.53 4.37571V8.67968C1245.95 8.67968 1244.75 9.21768 1243.94 10.2937C1243.63 10.7002 1243.39 11.1903 1243.22 11.7642C1243.08 12.3141 1242.99 12.7924 1242.97 13.1989C1242.95 13.5814 1242.93 14.1672 1242.93 14.9563V23.3132H1238.34V14.9563ZM1252.12 14.9563C1252.12 13.976 1252.13 13.1989 1252.16 12.625C1252.2 12.0511 1252.37 11.2979 1252.66 10.3654C1252.97 9.40896 1253.41 8.54817 1253.99 7.78302C1255.66 5.51148 1258.1 4.37571 1261.31 4.37571V8.67968C1259.73 8.67968 1258.53 9.21768 1257.72 10.2937C1257.41 10.7002 1257.17 11.1903 1257 11.7642C1256.86 12.3141 1256.77 12.7924 1256.75 13.1989C1256.72 13.5814 1256.71 14.1672 1256.71 14.9563V23.3132H1252.12V14.9563Z" fill="white"/>
<path d="M1272.78 41.8203H1300.34V46.1243H1272.78V41.8203ZM1272.78 23.4567H1300.34V27.7606H1272.78V23.4567Z" fill="white"/>
<path d="M1334.77 13.3065C1334.77 14.2868 1334.75 15.0639 1334.7 15.6378C1334.68 16.2116 1334.51 16.9768 1334.2 17.9332C1333.91 18.8658 1333.48 19.7146 1332.91 20.4797C1331.23 22.7513 1328.79 23.8871 1325.59 23.8871V19.5831C1327.17 19.5831 1328.36 19.0451 1329.18 17.9691C1329.49 17.5626 1329.71 17.0844 1329.86 16.5344C1330.03 15.9606 1330.12 15.4824 1330.14 15.0998C1330.17 14.6933 1330.18 14.0955 1330.18 13.3065V4.94957H1334.77V13.3065ZM1321 13.3065C1321 14.2868 1320.97 15.0639 1320.92 15.6378C1320.9 16.2116 1320.73 16.9768 1320.42 17.9332C1320.13 18.8658 1319.7 19.7146 1319.13 20.4797C1317.45 22.7513 1315.01 23.8871 1311.81 23.8871V19.5831C1313.39 19.5831 1314.58 19.0451 1315.4 17.9691C1315.71 17.5626 1315.94 17.0844 1316.08 16.5344C1316.25 15.9606 1316.34 15.4824 1316.37 15.0998C1316.39 14.6933 1316.4 14.0955 1316.4 13.3065V4.94957H1321V13.3065Z" fill="white"/>
<path d="M1387.47 0C1392.85 2.63021 1397.03 6.49183 1400.03 11.5849C1403.02 16.654 1404.51 22.8708 1404.51 30.2354C1404.51 37.6 1403.02 43.8288 1400.03 48.9218C1397.03 54.0149 1392.85 57.8645 1387.47 60.4708L1385.49 56.7049C1390.09 54.4094 1393.64 51.0499 1396.15 46.6264C1398.66 42.1789 1399.92 36.7153 1399.92 30.2354C1399.92 23.7555 1398.66 18.3038 1396.15 13.8803C1393.64 9.45679 1390.09 6.08534 1385.49 3.76598L1387.47 0Z" fill="white"/>
<path d="M882.481 105.806H838.849V101.502H882.481L866.263 86.4023L869.349 83.1743L889.371 102.04V105.268L869.349 124.134L866.263 120.906L882.481 105.806Z" fill="white"/>
<path d="M994.801 103.833V103.475L987.445 96.6242H949.051V92.3202H982.816L976.465 86.4023L979.551 83.1743L999.573 102.04V105.268L979.551 124.134L976.465 120.906L982.816 114.988H949.051V110.684H987.445L994.801 103.833Z" fill="white"/>
<path d="M843.451 174.454L830.246 178.758L828.739 174.705L842.159 170.33L833.834 158.852L837.638 156.449L845.747 167.604L853.892 156.449L857.696 158.852L849.335 170.33L862.755 174.705L861.248 178.758L848.044 174.454V188.586H843.451V174.454Z" fill="white"/>
<path d="M907.733 170.366H930.698V174.67H907.733V170.366Z" fill="white"/>
<path d="M944.467 170.366H967.432V174.67H944.467V170.366Z" fill="white"/>
<path d="M981.202 170.366H1004.17V174.67H981.202V170.366Z" fill="white"/>
<path d="M1068.43 184.569H1077.62V193.177H1068.43V184.569ZM1095.99 184.569H1105.17V193.177H1095.99V184.569ZM1123.55 184.569H1132.73V193.177H1123.55V184.569Z" fill="white"/>
<path d="M1245.35 167.46L1256.26 182.417C1256.57 181.221 1256.72 179.535 1256.72 177.36V170.222H1261.31V177.36C1261.31 181.353 1260.68 184.461 1259.41 186.685L1264.11 193.177H1258.55L1256.4 190.236C1253.19 192.579 1248.9 193.751 1243.52 193.751C1240.81 193.751 1238.13 193.392 1235.48 192.675C1232.85 191.933 1230.71 190.881 1229.06 189.518C1227.84 190.881 1226.21 191.933 1224.18 192.675C1222.14 193.392 1219.98 193.751 1217.68 193.751C1214.57 193.751 1211.73 193.189 1209.14 192.065C1206.58 190.941 1204.49 189.243 1202.86 186.972C1201.26 184.676 1200.46 182.01 1200.46 178.974C1200.46 175.578 1201.4 172.733 1203.29 170.437C1205.18 168.142 1207.62 166.408 1210.61 165.237L1208.89 162.87C1207.81 161.387 1206.99 159.964 1206.41 158.601C1205.86 157.215 1205.59 155.66 1205.59 153.939C1205.59 150.472 1206.71 147.614 1208.96 145.367C1211.21 143.095 1214.11 141.959 1217.65 141.959C1221.21 141.959 1224.12 143.107 1226.37 145.403C1228.64 147.674 1229.77 150.508 1229.77 153.903C1229.77 157.059 1228.76 159.857 1226.72 162.296C1224.69 164.711 1221.71 166.432 1217.79 167.46L1228.05 181.484C1228.17 180.863 1228.29 180.026 1228.41 178.974C1228.53 177.921 1228.66 176.965 1228.81 176.104C1228.97 175.243 1229.2 174.395 1229.49 173.558C1230.18 171.597 1231.28 169.899 1232.79 168.465C1234.3 167.006 1236.08 165.918 1238.13 165.201L1236.81 163.372C1235.56 161.65 1234.64 160.084 1234.04 158.673C1233.45 157.262 1233.15 155.625 1233.15 153.759C1233.15 150.268 1234.31 147.435 1236.63 145.259C1238.95 143.059 1241.81 141.959 1245.2 141.959C1248.65 141.959 1251.53 143.071 1253.85 145.295C1256.17 147.519 1257.33 150.388 1257.33 153.903C1257.33 157.059 1256.31 159.857 1254.28 162.296C1252.25 164.711 1249.27 166.432 1245.35 167.46ZM1245.2 146.263C1243 146.263 1241.21 146.957 1239.82 148.344C1238.43 149.707 1237.74 151.512 1237.74 153.759C1237.74 155.17 1237.98 156.402 1238.46 157.454C1238.94 158.482 1239.65 159.642 1240.61 160.933L1242.69 163.766C1249.39 162.14 1252.74 158.841 1252.74 153.867C1252.74 151.572 1252.04 149.73 1250.66 148.344C1249.27 146.957 1247.45 146.263 1245.2 146.263ZM1231.53 185.824C1232.78 187.02 1234.5 187.928 1236.7 188.55C1238.9 189.148 1241.17 189.447 1243.52 189.447C1248.04 189.447 1251.46 188.514 1253.78 186.649L1240.79 168.823C1237.2 170.019 1234.89 172.051 1233.86 174.921C1233.48 175.973 1233.14 177.742 1232.82 180.229C1232.51 182.692 1232.08 184.557 1231.53 185.824ZM1223.14 148.415C1221.77 146.981 1219.94 146.263 1217.65 146.263C1215.35 146.263 1213.53 146.969 1212.19 148.379C1210.85 149.766 1210.18 151.619 1210.18 153.939C1210.18 155.254 1210.39 156.378 1210.79 157.31C1211.22 158.243 1211.86 159.283 1212.69 160.431L1215.13 163.766C1216.31 163.431 1217.31 163.109 1218.15 162.798C1218.99 162.463 1219.87 162.033 1220.8 161.507C1221.76 160.957 1222.53 160.359 1223.1 159.713C1223.7 159.044 1224.19 158.219 1224.57 157.238C1224.98 156.234 1225.18 155.122 1225.18 153.903C1225.18 151.655 1224.5 149.826 1223.14 148.415ZM1213.27 168.859C1207.79 170.748 1205.05 174.12 1205.05 178.974C1205.05 182.297 1206.25 184.88 1208.64 186.721C1211.06 188.538 1214.07 189.447 1217.68 189.447C1221.46 189.447 1224.22 188.394 1225.97 186.29L1213.27 168.859Z" fill="white"/>
<path d="M857.05 241.561V241.202L838.714 224.129L841.8 220.901L861.822 239.767V242.995L841.8 261.861L838.714 258.633L857.05 241.561Z" fill="white"/>
<path d="M884.598 241.561V241.202L866.263 224.129L869.349 220.901L889.371 239.767V242.995L869.349 261.861L866.263 258.633L884.598 241.561Z" fill="white"/>
<path d="M953.833 241.561L972.168 258.633L969.083 261.861L949.06 242.995V239.767L969.083 220.901L972.168 224.129L953.833 241.202V241.561Z" fill="white"/>
<path d="M981.381 241.561L999.717 258.633L996.631 261.861L976.609 242.995V239.767L996.631 220.901L999.717 224.129L981.381 241.202V241.561Z" fill="white"/>
<path d="M834.265 285.138H857.229V289.442H834.265V285.138Z" fill="white"/>
<path d="M894.609 336.463L866.299 276.746L870.353 274.845L898.664 334.562L894.609 336.463Z" fill="white"/>
<path d="M903.14 330.904H935.291V335.208H903.14V330.904Z" fill="white"/>
<path d="M965.243 275.454L967.217 279.22C962.624 281.54 959.071 284.911 956.56 289.335C954.048 293.758 952.792 299.21 952.792 305.69C952.792 312.17 954.048 317.633 956.56 322.081C959.071 326.504 962.624 329.864 967.217 332.159L965.243 335.925C959.861 333.319 955.675 329.469 952.684 324.376C949.694 319.283 948.199 313.054 948.199 305.69C948.199 298.325 949.694 292.108 952.684 287.039C955.675 281.946 959.861 278.085 965.243 275.454Z" fill="white"/>
<path d="M1003.43 279.118L998.126 280.909C999.849 284.49 1003.78 295.164 1004.88 299.089L1010.25 297.23C1009.08 293.373 1004.95 282.424 1003.43 279.118ZM1034.02 283.526L1027.68 281.735C1026.3 292.065 1022.1 303.083 1016.66 310.038C1009.7 318.853 999.435 325.464 989.584 328.356L994.337 333.176C1004.05 329.733 1014.25 322.64 1021.34 313.275C1026.99 305.838 1030.71 295.99 1032.78 287.451C1033.06 286.349 1033.54 284.696 1034.02 283.526ZM984.21 283.25L978.767 285.247C980.421 288.208 985.175 299.846 986.483 304.116L991.926 302.119C990.342 297.643 986.001 287.107 984.21 283.25Z" fill="white"/>
<path d="M1052.28 275.454C1057.67 278.085 1061.85 281.946 1064.84 287.039C1067.83 292.108 1069.33 298.325 1069.33 305.69C1069.33 313.054 1067.83 319.283 1064.84 324.376C1061.85 329.469 1057.67 333.319 1052.28 335.925L1050.31 332.159C1054.9 329.864 1058.46 326.504 1060.97 322.081C1063.48 317.633 1064.73 312.17 1064.73 305.69C1064.73 299.21 1063.48 293.758 1060.97 289.335C1058.46 284.911 1054.9 281.54 1050.31 279.22L1052.28 275.454Z" fill="white"/>
<path d="M1082.24 330.904H1114.39V335.208H1082.24V330.904Z" fill="white"/>
<path d="M1122.92 336.463L1118.86 334.562L1147.17 274.845L1151.23 276.746L1122.92 336.463Z" fill="white"/>
<path d="M1160.3 285.138H1183.26V289.442H1160.3V285.138Z" fill="white"/>
</svg>
