<svg width="1112" height="188" viewBox="0 0 1112 188" fill="none" xmlns="http://www.w3.org/2000/svg">
<path d="M3.8 20.8H10.2V40.4H29.4V20.8H35.8V72H29.4V46.4H10.2V72H3.8V20.8Z" fill="white"/>
<path d="M77.0875 27.6C75.4208 26.5333 73.3875 26 70.9875 26C68.5875 26 66.5375 26.5333 64.8375 27.6C63.1708 28.6666 61.9708 30.15 61.2375 32.05C60.5375 33.65 60.0875 36.4333 59.8875 40.4H82.0875C81.8875 36.4333 81.4375 33.65 80.7375 32.05C80.0042 30.15 78.7875 28.6666 77.0875 27.6ZM60.9875 22.8C63.7542 20.9333 67.0875 20 70.9875 20C74.8875 20 78.2042 20.9333 80.9375 22.8C83.7042 24.6666 85.6375 27.0833 86.7375 30.05C87.3042 31.4833 87.7208 33.1666 87.9875 35.1C88.2875 37.0333 88.4542 38.75 88.4875 40.25C88.5542 41.7166 88.5875 43.7666 88.5875 46.4H59.7875C59.7875 48.6666 59.8042 50.4166 59.8375 51.65C59.8708 52.85 60.0042 54.3 60.2375 56C60.5042 57.7 60.8875 59.1166 61.3875 60.25C63.3208 64.6166 66.8542 66.8 71.9875 66.8C75.8542 66.8 80.8542 66.45 86.9875 65.75V71.75C80.9208 72.45 75.9208 72.8 71.9875 72.8C67.8542 72.8 64.3708 71.8333 61.5375 69.9C58.7042 67.9666 56.6542 65.45 55.3875 62.35C54.5208 60.25 53.9708 58 53.7375 55.6C53.5042 53.2 53.3875 50.1333 53.3875 46.4C53.3875 43.7666 53.4042 41.7166 53.4375 40.25C53.5042 38.75 53.6708 37.0333 53.9375 35.1C54.2375 33.1666 54.6708 31.4833 55.2375 30.05C56.3375 27.0833 58.2542 24.6666 60.9875 22.8Z" fill="white"/>
<path d="M157.363 20.8H189.363V72H182.963V26.8H163.762V72H157.363V20.8Z" fill="white"/>
<path d="M226.35 72.8C222.083 72.8 218.45 70.45 215.45 65.75H214.95V91.2H208.55V20.8H214.95V27.05H215.45C218.45 22.35 222.083 20 226.35 20C229.65 20 232.583 21.05 235.15 23.15C237.717 25.2166 239.583 28.1166 240.75 31.85C241.183 33.25 241.5 34.8166 241.7 36.5499C241.933 38.2833 242.067 39.7666 242.1 41C242.133 42.2 242.15 44 242.15 46.4C242.15 48.8 242.133 50.6166 242.1 51.85C242.067 53.05 241.933 54.5166 241.7 56.25C241.5 57.9833 241.183 59.55 240.75 60.95C239.583 64.6833 237.717 67.6 235.15 69.7C232.583 71.7666 229.65 72.8 226.35 72.8ZM219.65 64.65C221.217 66.0833 223.117 66.8 225.35 66.8C227.583 66.8 229.467 66.0833 231 64.65C232.567 63.1833 233.717 61.3666 234.45 59.2C235.317 56.5666 235.75 52.3 235.75 46.4C235.75 40.5 235.317 36.2333 234.45 33.6C233.717 31.4333 232.567 29.6333 231 28.2C229.467 26.7333 227.583 26 225.35 26C223.117 26 221.217 26.7333 219.65 28.2C218.117 29.6333 216.983 31.4333 216.25 33.6C215.383 36.2333 214.95 40.5 214.95 46.4C214.95 52.3 215.383 56.5666 216.25 59.2C216.983 61.3666 218.117 63.1833 219.65 64.65Z" fill="white"/>
<path d="M285.288 52.6H275.338C275.104 52.6 274.704 52.6 274.138 52.6C273.604 52.5666 273.188 52.55 272.888 52.55L264.688 72H258.038L266.638 51.1C264.038 49.9 261.971 48.05 260.438 45.5499C258.904 43.0166 258.138 40.0666 258.138 36.7C258.138 32.8 259.138 29.5 261.138 26.8C263.138 24.0666 265.788 22.2666 269.088 21.4C270.588 21 272.671 20.8 275.338 20.8H291.738V72H285.288V52.6ZM285.338 46.6V26.8H275.338C273.438 26.8 271.938 26.9333 270.838 27.2C268.871 27.7 267.321 28.8 266.188 30.5C265.088 32.2 264.538 34.2666 264.538 36.7C264.538 39.1333 265.088 41.2 266.188 42.9C267.321 44.6 268.871 45.7 270.838 46.2C271.938 46.4666 273.438 46.6 275.338 46.6H285.338Z" fill="white"/>
<path d="M310.925 72H304.525V20.8H310.925L326.675 46.2999H327.225L342.925 20.8H349.325V72H342.925V32.2H342.425L329.675 52.8H324.175L311.425 32.2H310.925V72Z" fill="white"/>
<path d="M430.75 60C433.917 50.2666 437.467 37.2 441.4 20.8H447.95C447.783 21.4333 447.383 23.0166 446.75 25.55C446.15 28.05 445.767 29.6666 445.6 30.4C445.433 31.1 445.067 32.5833 444.5 34.85C443.933 37.0833 443.517 38.6666 443.25 39.6C443.017 40.5 442.633 41.9833 442.1 44.0499C441.567 46.0833 441.117 47.6833 440.75 48.85C440.417 50.0166 439.967 51.5666 439.4 53.5C438.833 55.4333 438.3 57.15 437.8 58.65C437.333 60.15 436.783 61.8333 436.15 63.7C435.55 65.5666 434.933 67.4166 434.3 69.25C433.5 71.5166 432.867 73.2166 432.4 74.35C431.967 75.5166 431.333 76.8333 430.5 78.3C429.667 79.7666 428.767 80.8833 427.8 81.65C424.667 84.2833 419.833 85.6 413.3 85.6V79.6C418.067 79.6 421.333 78.9166 423.1 77.55C423.867 76.9833 424.567 76.1166 425.2 74.95C425.867 73.7833 426.383 72.7 426.75 71.7C427.15 70.7 427.883 68.6666 428.95 65.6H426.35C422.75 59.0666 419.733 52.1666 417.3 44.9C414.9 37.6333 412.7 29.6 410.7 20.8H417.25C420.717 36.7333 425.05 49.8 430.25 60H430.75Z" fill="white"/>
<path d="M477.288 72V47.9H473.788L462.538 72H455.888L468.588 45.25L458.738 20.8H465.238L474.038 42.9H477.288V20.8H483.688V42.9H486.938L495.738 20.8H502.238L492.388 45.25L505.088 72H498.438L487.188 47.9H483.688V72H477.288Z" fill="white"/>
<path d="M581.863 53.6C579.463 53.6 577.263 53.1166 575.263 52.15C573.263 51.1833 571.613 49.8833 570.313 48.25C569.479 47.2166 568.813 46.15 568.313 45.05C567.813 43.95 567.463 42.7333 567.263 41.4C567.096 40.0666 566.979 38.9666 566.912 38.1C566.879 37.2333 566.863 36.0166 566.863 34.45V20.8H573.263V34.45C573.263 36.2833 573.279 37.65 573.313 38.55C573.379 39.45 573.579 40.4666 573.912 41.6C574.279 42.7 574.813 43.6666 575.513 44.5C577.313 46.5666 579.763 47.6 582.863 47.6C585.963 47.6 588.413 46.5666 590.213 44.5C590.913 43.6666 591.429 42.7 591.763 41.6C592.129 40.4666 592.329 39.45 592.363 38.55C592.429 37.65 592.463 36.2833 592.463 34.45V20.8H598.863V72H592.463V47.2H591.963C590.729 49.1333 589.196 50.6833 587.363 51.85C585.563 53.0166 583.729 53.6 581.863 53.6Z" fill="white"/>
<path d="M656.45 20.8V26.8H637.25V72H630.85V26.8H611.65V20.8H656.45Z" fill="white"/>
<path d="M675.488 22.95C678.188 20.9833 681.438 20 685.238 20C689.038 20 692.271 20.9833 694.938 22.95C697.638 24.9166 699.604 27.45 700.838 30.55C701.704 32.6833 702.254 34.9333 702.488 37.2999C702.721 39.6666 702.838 42.7 702.838 46.4C702.838 50.1 702.721 53.1333 702.488 55.5C702.254 57.8666 701.704 60.1166 700.838 62.25C699.604 65.35 697.638 67.8833 694.938 69.85C692.271 71.8166 689.038 72.8 685.238 72.8C681.438 72.8 678.188 71.8166 675.488 69.85C672.821 67.8833 670.871 65.35 669.638 62.25C668.771 60.1166 668.221 57.8666 667.988 55.5C667.754 53.1333 667.638 50.1 667.638 46.4C667.638 42.7 667.754 39.6666 667.988 37.2999C668.221 34.9333 668.771 32.6833 669.638 30.55C670.871 27.45 672.821 24.9166 675.488 22.95ZM694.838 32.55C693.071 28.1833 689.871 26 685.238 26C680.604 26 677.404 28.1833 675.638 32.55C674.571 35.2166 674.037 39.8333 674.037 46.4C674.037 52.9666 674.571 57.5833 675.638 60.25C677.404 64.6166 680.604 66.8 685.238 66.8C689.871 66.8 693.071 64.6166 694.838 60.25C695.904 57.5833 696.438 52.9666 696.438 46.4C696.438 39.8333 695.904 35.2166 694.838 32.55Z" fill="white"/>
<path d="M736.425 26C733.992 26 731.892 26.5833 730.125 27.75C728.392 28.9166 727.225 30.5166 726.625 32.55C725.692 35.65 725.225 40.2666 725.225 46.4C725.225 48.5333 725.242 50.2333 725.275 51.5C725.342 52.7666 725.492 54.2333 725.725 55.9C725.958 57.5666 726.325 59.0166 726.825 60.25C727.625 62.2833 728.858 63.8833 730.525 65.05C732.192 66.2166 734.158 66.8 736.425 66.8C738.758 66.8 740.792 66.2166 742.525 65.05C744.258 63.85 745.425 62.25 746.025 60.25C747.092 56.6833 747.625 52.0666 747.625 46.4C747.625 40.2333 747.092 35.6166 746.025 32.55C745.325 30.5166 744.142 28.9166 742.475 27.75C740.842 26.5833 738.825 26 736.425 26ZM737.425 20C741.092 20 744.225 21 746.825 23C749.425 24.9666 751.225 27.4833 752.225 30.55C753.425 34.2166 754.025 39.5 754.025 46.4C754.025 48.9333 753.992 50.9 753.925 52.3C753.892 53.6666 753.708 55.2833 753.375 57.15C753.075 58.9833 752.625 60.6833 752.025 62.25C749.258 69.2833 743.725 72.8 735.425 72.8C732.125 72.8 729.158 71.8 726.525 69.8C723.892 67.7666 721.992 65.25 720.825 62.25C719.492 58.75 718.825 54.5333 718.825 49.6C718.825 42.9333 718.842 38.05 718.875 34.95C718.908 31.8166 719.008 28.5833 719.175 25.25C719.342 21.8833 719.592 19.45 719.925 17.95C721.125 12.7166 723.458 8.81662 726.925 6.24995C729.058 4.64995 731.275 3.49995 733.575 2.79995C735.908 2.09995 737.942 1.76662 739.675 1.79995C741.442 1.79995 743.542 1.74995 745.975 1.64995C748.408 1.51662 750.558 1.19995 752.425 0.699951V6.84995C750.492 7.21662 747.958 7.44995 744.825 7.54996C741.692 7.64995 739.008 7.89995 736.775 8.29996C734.575 8.69995 732.658 9.54995 731.025 10.85C727.425 13.6833 725.525 18.7666 725.325 26.1H725.825C727.625 24.0333 729.408 22.5 731.175 21.5C732.942 20.5 735.025 20 737.425 20Z" fill="white"/>
<path d="M778.063 40.2H780.912C783.579 40.2 785.662 40.4 787.162 40.8C790.462 41.6666 793.113 43.4666 795.113 46.2C797.113 48.9 798.113 52.2 798.113 56.1C798.113 60 797.113 63.3166 795.113 66.05C793.113 68.75 790.462 70.5333 787.162 71.4C785.662 71.8 783.579 72 780.912 72H771.613V20.8H778.063V40.2ZM778.013 46.2V66H780.912C782.812 66 784.312 65.8666 785.412 65.6C787.379 65.1 788.913 64 790.013 62.3C791.146 60.6 791.713 58.5333 791.713 56.1C791.713 53.6666 791.146 51.6 790.013 49.9C788.913 48.2 787.379 47.1 785.412 46.6C784.312 46.3333 782.812 46.2 780.912 46.2H778.013ZM810.013 20.8V72H803.613V20.8H810.013Z" fill="white"/>
<path d="M891.438 60C894.604 50.2666 898.154 37.2 902.088 20.8H908.638C908.471 21.4333 908.071 23.0166 907.438 25.55C906.838 28.05 906.454 29.6666 906.287 30.4C906.121 31.1 905.754 32.5833 905.188 34.85C904.621 37.0833 904.204 38.6666 903.938 39.6C903.704 40.5 903.321 41.9833 902.787 44.0499C902.254 46.0833 901.804 47.6833 901.438 48.85C901.104 50.0166 900.654 51.5666 900.088 53.5C899.521 55.4333 898.988 57.15 898.488 58.65C898.021 60.15 897.471 61.8333 896.838 63.7C896.238 65.5666 895.621 67.4166 894.988 69.25C894.188 71.5166 893.554 73.2166 893.088 74.35C892.654 75.5166 892.021 76.8333 891.188 78.3C890.354 79.7666 889.454 80.8833 888.488 81.65C885.354 84.2833 880.521 85.6 873.988 85.6V79.6C878.754 79.6 882.021 78.9166 883.787 77.55C884.554 76.9833 885.254 76.1166 885.888 74.95C886.554 73.7833 887.071 72.7 887.438 71.7C887.838 70.7 888.571 68.6666 889.638 65.6H887.037C883.437 59.0666 880.421 52.1666 877.988 44.9C875.588 37.6333 873.388 29.6 871.388 20.8H877.938C881.404 36.7333 885.738 49.8 890.938 60H891.438Z" fill="white"/>
<path d="M951.125 43.85C956.225 46.3166 958.775 50.5666 958.775 56.6C958.775 61.3666 957.075 65.2666 953.675 68.3C950.275 71.3 945.942 72.8 940.675 72.8C936.108 72.8 930.942 72.6333 925.175 72.3V66.3C931.108 66.6333 936.275 66.8 940.675 66.8C944.175 66.8 946.992 65.8833 949.125 64.05C951.292 62.2166 952.375 59.7333 952.375 56.6C952.375 54.1 951.658 51.9833 950.225 50.25C948.792 48.4833 946.925 47.35 944.625 46.85C943.258 46.55 941.208 46.4 938.475 46.4H931.575V40.4H938.525C941.425 40.4 943.642 40.25 945.175 39.95C947.008 39.5833 948.575 38.8 949.875 37.6C951.208 36.3666 951.875 34.8833 951.875 33.15C951.875 31.2166 950.892 29.55 948.925 28.15C946.992 26.7166 944.258 26 940.725 26C937.492 26 932.642 26.2666 926.175 26.8V20.8C931.875 20.2666 936.725 20 940.725 20C945.925 20 950.142 21.2666 953.375 23.8C956.642 26.3333 958.275 29.45 958.275 33.15C958.275 37.9833 955.892 41.3833 951.125 43.35V43.85Z" fill="white"/>
<path d="M982.763 72H976.363V20.8H982.763V41.65L1002.76 20.8H1011.31L993.162 39.75L1013.66 72H1005.86L989.013 44L982.763 50.25V72Z" fill="white"/>
<path d="M1053.15 72V33.3H1052.65L1033.95 72H1027.55V20.8H1033.95V59.5H1034.45L1053.2 20.8H1059.55V72H1053.15Z" fill="white"/>
<path d="M1105.34 1.59995H1111.74C1111.74 5.69995 1110.1 8.99995 1106.84 11.5C1103.6 13.9666 1099.57 15.2 1094.74 15.2C1089.9 15.2 1085.85 13.9666 1082.59 11.5C1079.35 8.99995 1077.74 5.69995 1077.74 1.59995H1084.14C1084.14 3.86662 1085.04 5.69995 1086.84 7.09995C1088.67 8.49995 1091.3 9.19995 1094.74 9.19995C1098.17 9.19995 1100.79 8.49995 1102.59 7.09995C1104.42 5.69995 1105.34 3.86662 1105.34 1.59995ZM1104.34 72V33.3H1103.84L1085.14 72H1078.74V20.8H1085.14V59.5H1085.64L1104.39 20.8H1110.74V72H1104.34Z" fill="white"/>
<path d="M3.8 116.8H10.2V136.4H29.4V116.8H35.8V168H29.4V142.4H10.2V168H3.8V116.8Z" fill="white"/>
<path d="M61.2375 118.95C63.9375 116.983 67.1875 116 70.9875 116C74.7875 116 78.0208 116.983 80.6875 118.95C83.3875 120.917 85.3542 123.45 86.5875 126.55C87.4542 128.683 88.0042 130.933 88.2375 133.3C88.4708 135.667 88.5875 138.7 88.5875 142.4C88.5875 146.1 88.4708 149.133 88.2375 151.5C88.0042 153.867 87.4542 156.117 86.5875 158.25C85.3542 161.35 83.3875 163.883 80.6875 165.85C78.0208 167.817 74.7875 168.8 70.9875 168.8C67.1875 168.8 63.9375 167.817 61.2375 165.85C58.5708 163.883 56.6208 161.35 55.3875 158.25C54.5208 156.117 53.9708 153.867 53.7375 151.5C53.5042 149.133 53.3875 146.1 53.3875 142.4C53.3875 138.7 53.5042 135.667 53.7375 133.3C53.9708 130.933 54.5208 128.683 55.3875 126.55C56.6208 123.45 58.5708 120.917 61.2375 118.95ZM80.5875 128.55C78.8208 124.183 75.6208 122 70.9875 122C66.3542 122 63.1542 124.183 61.3875 128.55C60.3208 131.217 59.7875 135.833 59.7875 142.4C59.7875 148.967 60.3208 153.583 61.3875 156.25C63.1542 160.617 66.3542 162.8 70.9875 162.8C75.6208 162.8 78.8208 160.617 80.5875 156.25C81.6542 153.583 82.1875 148.967 82.1875 142.4C82.1875 135.833 81.6542 131.217 80.5875 128.55Z" fill="white"/>
<path d="M163.762 136.2H175.762C177.362 136.2 178.479 136.117 179.113 135.95C180.479 135.617 181.563 134.883 182.363 133.75C183.163 132.617 183.562 131.2 183.562 129.5C183.562 127.8 183.163 126.383 182.363 125.25C181.563 124.117 180.479 123.383 179.113 123.05C178.413 122.883 177.296 122.8 175.762 122.8H163.762V136.2ZM163.762 162H173.762C175.662 162 177.162 161.867 178.262 161.6C180.229 161.1 181.763 160 182.863 158.3C183.996 156.6 184.562 154.533 184.562 152.1C184.562 149.633 183.996 147.55 182.863 145.85C181.729 144.15 180.196 143.067 178.262 142.6C177.162 142.333 175.662 142.2 173.762 142.2H163.762V162ZM157.363 168V116.8H175.762C177.829 116.8 179.479 116.95 180.712 117.25C183.446 117.917 185.663 119.35 187.363 121.55C189.096 123.717 189.963 126.367 189.963 129.5C189.963 131.633 189.446 133.567 188.413 135.3C187.413 137 186.063 138.367 184.363 139.4C188.763 142.567 190.962 146.8 190.962 152.1C190.962 156 189.962 159.317 187.962 162.05C185.962 164.75 183.312 166.533 180.012 167.4C178.512 167.8 176.429 168 173.762 168H157.363Z" fill="white"/>
<path d="M226.35 168.8C222.083 168.8 218.45 166.45 215.45 161.75H214.95V187.2H208.55V116.8H214.95V123.05H215.45C218.45 118.35 222.083 116 226.35 116C229.65 116 232.583 117.05 235.15 119.15C237.717 121.217 239.583 124.117 240.75 127.85C241.183 129.25 241.5 130.817 241.7 132.55C241.933 134.283 242.067 135.767 242.1 137C242.133 138.2 242.15 140 242.15 142.4C242.15 144.8 242.133 146.617 242.1 147.85C242.067 149.05 241.933 150.517 241.7 152.25C241.5 153.983 241.183 155.55 240.75 156.95C239.583 160.683 237.717 163.6 235.15 165.7C232.583 167.767 229.65 168.8 226.35 168.8ZM219.65 160.65C221.217 162.083 223.117 162.8 225.35 162.8C227.583 162.8 229.467 162.083 231 160.65C232.567 159.183 233.717 157.367 234.45 155.2C235.317 152.567 235.75 148.3 235.75 142.4C235.75 136.5 235.317 132.233 234.45 129.6C233.717 127.433 232.567 125.633 231 124.2C229.467 122.733 227.583 122 225.35 122C223.117 122 221.217 122.733 219.65 124.2C218.117 125.633 216.983 127.433 216.25 129.6C215.383 132.233 214.95 136.5 214.95 142.4C214.95 148.3 215.383 152.567 216.25 155.2C216.983 157.367 218.117 159.183 219.65 160.65Z" fill="white"/>
<path d="M265.988 118.95C268.688 116.983 271.938 116 275.738 116C279.538 116 282.771 116.983 285.438 118.95C288.138 120.917 290.104 123.45 291.338 126.55C292.204 128.683 292.754 130.933 292.988 133.3C293.221 135.667 293.338 138.7 293.338 142.4C293.338 146.1 293.221 149.133 292.988 151.5C292.754 153.867 292.204 156.117 291.338 158.25C290.104 161.35 288.138 163.883 285.438 165.85C282.771 167.817 279.538 168.8 275.738 168.8C271.938 168.8 268.688 167.817 265.988 165.85C263.321 163.883 261.371 161.35 260.138 158.25C259.271 156.117 258.721 153.867 258.487 151.5C258.254 149.133 258.138 146.1 258.138 142.4C258.138 138.7 258.254 135.667 258.487 133.3C258.721 130.933 259.271 128.683 260.138 126.55C261.371 123.45 263.321 120.917 265.988 118.95ZM285.338 128.55C283.571 124.183 280.371 122 275.738 122C271.104 122 267.904 124.183 266.138 128.55C265.071 131.217 264.538 135.833 264.538 142.4C264.538 148.967 265.071 153.583 266.138 156.25C267.904 160.617 271.104 162.8 275.738 162.8C280.371 162.8 283.571 160.617 285.338 156.25C286.404 153.583 286.938 148.967 286.938 142.4C286.938 135.833 286.404 131.217 285.338 128.55Z" fill="white"/>
<path d="M315.525 162H336.525V122.8H323.725C323.692 126.733 323.475 130.683 323.075 134.65C322.675 138.617 321.825 143.167 320.525 148.3C319.258 153.433 317.592 158 315.525 162ZM308.975 162C312.375 155.3 314.608 148.433 315.675 141.4C316.775 134.367 317.325 126.167 317.325 116.8H342.925V162H349.325V180.8H342.925V168H310.925V180.8H304.525V162H308.975Z" fill="white"/>
<path d="M384.213 123.6C382.546 122.533 380.513 122 378.113 122C375.713 122 373.663 122.533 371.963 123.6C370.296 124.667 369.096 126.15 368.363 128.05C367.663 129.65 367.213 132.433 367.013 136.4H389.213C389.013 132.433 388.563 129.65 387.863 128.05C387.129 126.15 385.913 124.667 384.213 123.6ZM368.113 118.8C370.879 116.933 374.213 116 378.113 116C382.013 116 385.329 116.933 388.063 118.8C390.829 120.667 392.763 123.083 393.863 126.05C394.429 127.483 394.846 129.167 395.113 131.1C395.413 133.033 395.579 134.75 395.613 136.25C395.679 137.717 395.713 139.767 395.713 142.4H366.913C366.913 144.667 366.929 146.417 366.963 147.65C366.996 148.85 367.129 150.3 367.363 152C367.629 153.7 368.013 155.117 368.513 156.25C370.446 160.617 373.979 162.8 379.113 162.8C382.979 162.8 387.979 162.45 394.113 161.75V167.75C388.046 168.45 383.046 168.8 379.113 168.8C374.979 168.8 371.496 167.833 368.663 165.9C365.829 163.967 363.779 161.45 362.513 158.35C361.646 156.25 361.096 154 360.863 151.6C360.629 149.2 360.513 146.133 360.513 142.4C360.513 139.767 360.529 137.717 360.563 136.25C360.629 134.75 360.796 133.033 361.063 131.1C361.363 129.167 361.796 127.483 362.363 126.05C363.463 123.083 365.379 120.667 368.113 118.8Z" fill="white"/>
<path d="M490.088 168V129.3H489.588L470.888 168H464.488V116.8H470.888V155.5H471.388L490.138 116.8H496.488V168H490.088Z" fill="white"/>
<path d="M566.863 116.8H573.263V136.4H592.463V116.8H598.863V168H592.463V142.4H573.263V168H566.863V116.8Z" fill="white"/>
<path d="M640.15 123.6C638.483 122.533 636.45 122 634.05 122C631.65 122 629.6 122.533 627.9 123.6C626.233 124.667 625.033 126.15 624.3 128.05C623.6 129.65 623.15 132.433 622.95 136.4H645.15C644.95 132.433 644.5 129.65 643.8 128.05C643.067 126.15 641.85 124.667 640.15 123.6ZM624.05 118.8C626.817 116.933 630.15 116 634.05 116C637.95 116 641.267 116.933 644 118.8C646.767 120.667 648.7 123.083 649.8 126.05C650.367 127.483 650.783 129.167 651.05 131.1C651.35 133.033 651.517 134.75 651.55 136.25C651.617 137.717 651.65 139.767 651.65 142.4H622.85C622.85 144.667 622.867 146.417 622.9 147.65C622.933 148.85 623.067 150.3 623.3 152C623.567 153.7 623.95 155.117 624.45 156.25C626.383 160.617 629.917 162.8 635.05 162.8C638.917 162.8 643.917 162.45 650.05 161.75V167.75C643.983 168.45 638.983 168.8 635.05 168.8C630.917 168.8 627.433 167.833 624.6 165.9C621.767 163.967 619.717 161.45 618.45 158.35C617.583 156.25 617.033 154 616.8 151.6C616.567 149.2 616.45 146.133 616.45 142.4C616.45 139.767 616.467 137.717 616.5 136.25C616.567 134.75 616.733 133.033 617 131.1C617.3 129.167 617.733 127.483 618.3 126.05C619.4 123.083 621.317 120.667 624.05 118.8Z" fill="white"/>
<path d="M714.025 168V116.8H720.425V162H733.225V116.8H739.625V162H752.425V116.8H758.825V168H714.025Z" fill="white"/>
<path d="M797.213 168V129.3H796.713L778.013 168H771.613V116.8H778.013V155.5H778.513L797.263 116.8H803.613V168H797.213Z" fill="white"/>
<path d="M840.6 168.8C836.333 168.8 832.7 166.45 829.7 161.75H829.2V187.2H822.8V116.8H829.2V123.05H829.7C832.7 118.35 836.333 116 840.6 116C843.9 116 846.833 117.05 849.4 119.15C851.967 121.217 853.833 124.117 855 127.85C855.433 129.25 855.75 130.817 855.95 132.55C856.183 134.283 856.317 135.767 856.35 137C856.383 138.2 856.4 140 856.4 142.4C856.4 144.8 856.383 146.617 856.35 147.85C856.317 149.05 856.183 150.517 855.95 152.25C855.75 153.983 855.433 155.55 855 156.95C853.833 160.683 851.967 163.6 849.4 165.7C846.833 167.767 843.9 168.8 840.6 168.8ZM833.9 160.65C835.467 162.083 837.367 162.8 839.6 162.8C841.833 162.8 843.717 162.083 845.25 160.65C846.817 159.183 847.967 157.367 848.7 155.2C849.567 152.567 850 148.3 850 142.4C850 136.5 849.567 132.233 848.7 129.6C847.967 127.433 846.817 125.633 845.25 124.2C843.717 122.733 841.833 122 839.6 122C837.367 122 835.467 122.733 833.9 124.2C832.367 125.633 831.233 127.433 830.5 129.6C829.633 132.233 829.2 136.5 829.2 142.4C829.2 148.3 829.633 152.567 830.5 155.2C831.233 157.367 832.367 159.183 833.9 160.65Z" fill="white"/>
<path d="M880.238 118.95C882.938 116.983 886.188 116 889.988 116C893.788 116 897.021 116.983 899.688 118.95C902.388 120.917 904.354 123.45 905.588 126.55C906.454 128.683 907.004 130.933 907.238 133.3C907.471 135.667 907.588 138.7 907.588 142.4C907.588 146.1 907.471 149.133 907.238 151.5C907.004 153.867 906.454 156.117 905.588 158.25C904.354 161.35 902.388 163.883 899.688 165.85C897.021 167.817 893.788 168.8 889.988 168.8C886.188 168.8 882.938 167.817 880.238 165.85C877.571 163.883 875.621 161.35 874.388 158.25C873.521 156.117 872.971 153.867 872.738 151.5C872.504 149.133 872.388 146.1 872.388 142.4C872.388 138.7 872.504 135.667 872.738 133.3C872.971 130.933 873.521 128.683 874.388 126.55C875.621 123.45 877.571 120.917 880.238 118.95ZM899.588 128.55C897.821 124.183 894.621 122 889.988 122C885.354 122 882.154 124.183 880.388 128.55C879.321 131.217 878.787 135.833 878.787 142.4C878.787 148.967 879.321 153.583 880.388 156.25C882.154 160.617 885.354 162.8 889.988 162.8C894.621 162.8 897.821 160.617 899.588 156.25C900.654 153.583 901.188 148.967 901.188 142.4C901.188 135.833 900.654 131.217 899.588 128.55Z" fill="white"/>
<path d="M931.575 168H925.175V116.8H931.575V137.65L951.575 116.8H960.125L941.975 135.75L962.475 168H954.675L937.825 140L931.575 146.25V168Z" fill="white"/>
<path d="M1001.96 168V129.3H1001.46L982.763 168H976.363V116.8H982.763V155.5H983.263L1002.01 116.8H1008.36V168H1001.96Z" fill="white"/>
<path d="M1054.15 97.6H1060.55C1060.55 101.7 1058.92 105 1055.65 107.5C1052.42 109.967 1048.38 111.2 1043.55 111.2C1038.72 111.2 1034.67 109.967 1031.4 107.5C1028.17 105 1026.55 101.7 1026.55 97.6H1032.95C1032.95 99.8666 1033.85 101.7 1035.65 103.1C1037.48 104.5 1040.12 105.2 1043.55 105.2C1046.98 105.2 1049.6 104.5 1051.4 103.1C1053.23 101.7 1054.15 99.8666 1054.15 97.6ZM1053.15 168V129.3H1052.65L1033.95 168H1027.55V116.8H1033.95V155.5H1034.45L1053.2 116.8H1059.55V168H1053.15Z" fill="white"/>
<path fill-rule="evenodd" clip-rule="evenodd" d="M38 5.99994H2V80.9999H38V5.99994ZM0 3.99994V82.9999H40V3.99994H0Z" fill="#00FF29"/>
<path fill-rule="evenodd" clip-rule="evenodd" d="M806 109H770V184H806V109ZM768 107V186H808V107H768Z" fill="#00FF29"/>
<path fill-rule="evenodd" clip-rule="evenodd" d="M506 5.99994H455V80.9999H506V5.99994ZM453 3.99994V82.9999H508V3.99994H453Z" fill="#00FF29"/>
<path fill-rule="evenodd" clip-rule="evenodd" d="M352 109H301V184H352V109ZM299 107V186H354V107H299Z" fill="#00FF29"/>
</svg>
