<svg xmlns="http://www.w3.org/2000/svg" viewBox="0 0 1440 2588"><defs><style>.cls-1,.cls-22,.cls-23,.cls-24,.cls-5,.cls-8{fill:none;stroke-miterlimit:10;}.cls-1,.cls-24,.cls-5,.cls-8{stroke:#fff;}.cls-1,.cls-23,.cls-5{stroke-width:3px;}.cls-2{fill:#00ff29;}.cls-3{fill:#fffdfd;}.cls-4{font-size:44.34px;}.cls-25,.cls-28,.cls-29,.cls-30,.cls-4,.cls-6,.cls-7,.cls-9{fill:#fff;}.cls-25,.cls-30,.cls-4,.cls-9{font-family:Monoid-Bold, Monoid;font-weight:700;}.cls-5,.cls-8{stroke-linecap:round;}.cls-7{font-size:23.08px;}.cls-10,.cls-11,.cls-12,.cls-13,.cls-14,.cls-15,.cls-17,.cls-18,.cls-19,.cls-20,.cls-21,.cls-26,.cls-27,.cls-28,.cls-29,.cls-31,.cls-7{font-family:Monoid-Normal, Monoid;}.cls-9{font-size:55.32px;}.cls-10{font-size:22.66px;}.cls-10,.cls-11,.cls-12,.cls-13,.cls-14,.cls-15,.cls-16,.cls-17,.cls-18,.cls-19,.cls-20,.cls-21{fill:#00ff1e;}.cls-11{font-size:18.79px;}.cls-12{font-size:28.8px;}.cls-13{font-size:21.4px;}.cls-14{font-size:26.2px;}.cls-15{font-size:23.8px;}.cls-16{font-size:19.34px;font-family:MyriadPro-Regular, Myriad Pro;}.cls-17{font-size:21.07px;}.cls-18{font-size:24.06px;}.cls-19{font-size:19.75px;}.cls-20{font-size:19px;}.cls-21{font-size:22.11px;}.cls-22{stroke:#3f3f3f;}.cls-23{stroke:#00ff1e;}.cls-25,.cls-27,.cls-28,.cls-31,.cls-35{font-size:33.16px;}.cls-26{font-weight:400;}.cls-27{fill:#fdfffd;}.cls-29,.cls-30{font-size:22.11px;}.cls-31,.cls-35{fill:#fafffa;}.cls-32{letter-spacing:0.51em;}.cls-33,.cls-34,.cls-35{font-family:Monoid-Oblique, Monoid;font-style:oblique;}.cls-33{letter-spacing:0.55em;}</style></defs><g id="Слой_2" data-name="Слой 2"><rect class="cls-1" x="82.46" y="85" width="940.98" height="603.51" rx="45.45"/><rect class="cls-1" x="179.2" y="115.78" width="748.61" height="500.17" rx="51.72"/><rect class="cls-1" x="214.38" y="136.67" width="680.45" height="455.1" rx="39.93"/><rect class="cls-1" x="125.33" y="752.26" width="859.64" height="96.74"/><rect class="cls-1" x="167.11" y="689.6" width="766.2" height="60.46"/><path class="cls-2" d="M252.44,237.68,267,207h2.57L255,237.68Z"/><path class="cls-2" d="M271.28,237.68,285.8,207h2.58l-14.52,30.64Z"/><path class="cls-2" d="M316.19,209.42a9.86,9.86,0,0,1,5.57,1.67,9.51,9.51,0,0,1,3.76,5.69,23.37,23.37,0,0,1,.53,5.59,24,24,0,0,1-.53,5.6,9.62,9.62,0,0,1-3.76,5.68,9.28,9.28,0,0,1-5.57,1.68h-6.92V209.42Zm0,23.7a7,7,0,0,0,6-2.91,8.24,8.24,0,0,0,1.21-3.2,28.34,28.34,0,0,0,.31-4.64,22,22,0,0,0-.47-5.11,7.74,7.74,0,0,0-2.38-4.1,6.81,6.81,0,0,0-4.65-1.53h-4.57v21.49Z"/><path class="cls-2" d="M330.47,235.33v-2.21h4.71V218.69h-4.71v-2.21h7.06v16.64h4.72v2.21Zm3.81-25.64a2.23,2.23,0,1,1-.57,1.49A2,2,0,0,1,334.28,209.69Z"/><path class="cls-2" d="M355,235.62a28.86,28.86,0,0,1-5.73-.77v-2.26a26.12,26.12,0,0,0,5.73.82,5.9,5.9,0,0,0,1.76-.24,3.53,3.53,0,0,0,1.24-.65,3.33,3.33,0,0,0,.77-.91,3.67,3.67,0,0,0,.4-1,3.93,3.93,0,0,0,.11-1,3.55,3.55,0,0,0-.5-1.89,3.39,3.39,0,0,0-1.34-1.24,7.88,7.88,0,0,0-2.68-.6,10.19,10.19,0,0,1-2.8-.54,5.28,5.28,0,0,1-2.19-1.62,4,4,0,0,1-.9-2.63,4.55,4.55,0,0,1,1.63-3.46,6.55,6.55,0,0,1,4.59-1.49,23.58,23.58,0,0,1,5.78.94v2.26a25.23,25.23,0,0,0-5.78-1,4.25,4.25,0,0,0-2.94.85,2.53,2.53,0,0,0-.93,1.89,2.09,2.09,0,0,0,.46,1.34,2.8,2.8,0,0,0,1.16.85,12.42,12.42,0,0,0,2.67.48,8.66,8.66,0,0,1,3.07.77,5.67,5.67,0,0,1,2.21,2,5.54,5.54,0,0,1,.85,3,5.91,5.91,0,0,1-.42,2.21,6.13,6.13,0,0,1-1.22,1.89,5.54,5.54,0,0,1-2.09,1.36A8.11,8.11,0,0,1,355,235.62Z"/><path class="cls-2" d="M374.71,235.62q-2.35,0-4-2.59h-.19v9.37h-2.35V216.48h2.35v2.3h.19q1.65-2.59,4-2.59a5,5,0,0,1,3.24,1.15,6.57,6.57,0,0,1,2.06,3.21,10.13,10.13,0,0,1,.36,1.73,16.18,16.18,0,0,1,.13,1.63c0,.45,0,1.11,0,2s0,1.55,0,2a16.18,16.18,0,0,1-.13,1.63,9.93,9.93,0,0,1-.36,1.73,6.48,6.48,0,0,1-2.06,3.21A5,5,0,0,1,374.71,235.62Zm-2.46-3a3.13,3.13,0,0,0,4.18,0,4.72,4.72,0,0,0,1.26-2,23.4,23.4,0,0,0,0-9.43,4.78,4.78,0,0,0-1.26-2,3.13,3.13,0,0,0-4.18,0,4.78,4.78,0,0,0-1.26,2,23.4,23.4,0,0,0,0,9.43A4.72,4.72,0,0,0,372.25,232.61Z"/><path class="cls-2" d="M398.78,235.37a16.71,16.71,0,0,1-2.54.25,4.17,4.17,0,0,1-4.12-2.75,5.63,5.63,0,0,1-.36-1.36c0-.34-.05-.78-.05-1.32V211.63H387v-2.21h7.07v20.77c0,.38,0,.68,0,.89a3.47,3.47,0,0,0,.13.75,2.28,2.28,0,0,0,.36.77,2.13,2.13,0,0,0,1.84.81,13.52,13.52,0,0,0,2.36-.31Z"/><path class="cls-2" d="M412.32,216.19a7.19,7.19,0,0,1,2.78.49,4,4,0,0,1,2,1.85,6.29,6.29,0,0,1,.55,3v13.79h-2.35v-2.27h-.19a5.5,5.5,0,0,1-4.6,2.56,5.31,5.31,0,0,1-2.15-.53,4.73,4.73,0,0,1-2-1.71,6.34,6.34,0,0,1-1.08-3.59,5.77,5.77,0,0,1,1.62-4.27,6.11,6.11,0,0,1,1.25-.94,4.63,4.63,0,0,1,1.39-.5,8.77,8.77,0,0,1,1.14-.17c.27,0,.62,0,1,0h3.57v-2.24a4.82,4.82,0,0,0-.33-2.17,2,2,0,0,0-.9-.81,4.43,4.43,0,0,0-1.72-.26,33.09,33.09,0,0,0-5.3.53v-2.24A33.17,33.17,0,0,1,412.32,216.19Zm2.95,9.72h-3.61c-.45,0-.81,0-1.06,0a4,4,0,0,0-.94.27,2.8,2.8,0,0,0-1,.69,4,4,0,0,0-1,2.85,3.82,3.82,0,0,0,.93,2.6,3,3,0,0,0,2.39,1.06,4.4,4.4,0,0,0,2.44-.67,3.64,3.64,0,0,0,1.49-1.74,9.77,9.77,0,0,0,.41-3.42Z"/><path class="cls-2" d="M431.17,233.21q1.9-6.51,3.84-16.73h2.42q-1.1,5.75-2.18,10.25t-2.81,9.94a22.22,22.22,0,0,1-1.08,2.82,5.05,5.05,0,0,1-1.31,1.75c-1.16,1-2.94,1.45-5.36,1.45v-2.21a6.28,6.28,0,0,0,3.63-.75,2.87,2.87,0,0,0,.77-1,9.76,9.76,0,0,0,.56-1.21c.14-.39.4-1.13.78-2.23h-.94a57.55,57.55,0,0,1-3.32-8.72q-1.34-4.59-2.44-10.13h2.41A78.4,78.4,0,0,0,431,233.21Z"/><path class="cls-2" d="M449.26,235.62a28.68,28.68,0,0,1-5.72-.77v-2.26a26.13,26.13,0,0,0,5.72.82,6,6,0,0,0,1.77-.24,3.62,3.62,0,0,0,1.24-.65,3.48,3.48,0,0,0,.76-.91,3.72,3.72,0,0,0,.41-1,4.49,4.49,0,0,0,.11-1,3.47,3.47,0,0,0-.51-1.89,3.37,3.37,0,0,0-1.33-1.24,8,8,0,0,0-2.69-.6,10.35,10.35,0,0,1-2.8-.54,5.28,5.28,0,0,1-2.19-1.62,4,4,0,0,1-.9-2.63,4.55,4.55,0,0,1,1.63-3.46,6.58,6.58,0,0,1,4.59-1.49,23.58,23.58,0,0,1,5.78.94v2.26a25.23,25.23,0,0,0-5.78-1,4.2,4.2,0,0,0-2.93.85,2.53,2.53,0,0,0-.93,1.89,2,2,0,0,0,.46,1.34,2.68,2.68,0,0,0,1.16.85,12.16,12.16,0,0,0,2.66.48,8.72,8.72,0,0,1,3.08.77,5.74,5.74,0,0,1,2.21,2,5.61,5.61,0,0,1,.84,3,5.87,5.87,0,0,1-1.64,4.1,5.5,5.5,0,0,1-2.08,1.36A8.17,8.17,0,0,1,449.26,235.62Z"/><path class="cls-2" d="M493,235a11.68,11.68,0,0,1-3.71.64,5.48,5.48,0,0,1-4.46-2A4.72,4.72,0,0,1,484,232a6.4,6.4,0,0,1-.33-1.57c0-.41,0-1,0-1.73v-9.9h-4.71v-2.32h4.71v-4.71h2.36v4.71H493v2.32h-7.06v9.72c0,.67,0,1.18,0,1.51a5,5,0,0,0,.22,1.14,2.92,2.92,0,0,0,.55,1.1,3.38,3.38,0,0,0,2.74,1.14,9.63,9.63,0,0,0,3.53-.79Z"/><path class="cls-2" d="M506.33,216.19a5.61,5.61,0,0,1,2.43.53,5.29,5.29,0,0,1,1.82,1.44,5.47,5.47,0,0,1,.73,1.18,4.64,4.64,0,0,1,.38,1.34c.07.49.11.9.13,1.21s0,.77,0,1.35v12.09h-2.36V223.24c0-.68,0-1.18,0-1.51a4.18,4.18,0,0,0-.22-1.11,3,3,0,0,0-.58-1.08,3.39,3.39,0,0,0-2.7-1.14,3.43,3.43,0,0,0-2.71,1.14,3.2,3.2,0,0,0-.58,1.08,4.62,4.62,0,0,0-.22,1.11c0,.33,0,.83,0,1.51v12.09h-2.36V209.42h2.36v9.12h.18a5.49,5.49,0,0,1,1.68-1.71A3.73,3.73,0,0,1,506.33,216.19Z"/><path class="cls-2" d="M520.68,225.91c0,.83,0,1.47,0,1.92a12.08,12.08,0,0,0,.16,1.61,6,6,0,0,0,.41,1.56,3.74,3.74,0,0,0,3.72,2.41,23.39,23.39,0,0,0,5.7-.81v2.27a24.43,24.43,0,0,1-5.7.75,6.07,6.07,0,0,1-5.93-3.84,8.82,8.82,0,0,1-.61-2.49c-.08-.88-.12-2-.12-3.38s0-2.48.12-3.35a9.08,9.08,0,0,1,.61-2.49,6.42,6.42,0,0,1,2.16-2.8,6.47,6.47,0,0,1,7.16,0,6.28,6.28,0,0,1,2.16,2.8,8.74,8.74,0,0,1,.61,2.49c.09.87.13,2,.13,3.35Zm8.19-2.21a9.26,9.26,0,0,0-.53-2.89,3.8,3.8,0,0,0-7.07,0,9.26,9.26,0,0,0-.53,2.89Z"/><path class="cls-2" d="M568.38,235a11.74,11.74,0,0,1-3.72.64,5.47,5.47,0,0,1-4.45-2,4.72,4.72,0,0,1-.88-1.64,6.4,6.4,0,0,1-.33-1.57c0-.41,0-1,0-1.73v-9.9h-4.71v-2.32H559v-4.71h2.35v4.71h7.07v2.32h-7.07v9.72c0,.67,0,1.18,0,1.51a5.57,5.57,0,0,0,.21,1.14,3.09,3.09,0,0,0,.56,1.1,3.36,3.36,0,0,0,2.74,1.14,9.63,9.63,0,0,0,3.53-.79Z"/><path class="cls-2" d="M577.22,225.91c0,.83,0,1.47,0,1.92s.07,1,.16,1.61a6,6,0,0,0,.41,1.56,3.74,3.74,0,0,0,3.72,2.41,23.4,23.4,0,0,0,5.71-.81v2.27a24.57,24.57,0,0,1-5.71.75,6,6,0,0,1-5.92-3.84,8.5,8.5,0,0,1-.61-2.49c-.09-.88-.13-2-.13-3.38s0-2.48.13-3.35a8.74,8.74,0,0,1,.61-2.49,6.28,6.28,0,0,1,2.16-2.8,6.47,6.47,0,0,1,7.16,0,6.35,6.35,0,0,1,2.16,2.8,9.08,9.08,0,0,1,.61,2.49c.08.87.13,2,.13,3.35Zm8.18-2.21a9,9,0,0,0-.53-2.89,3.8,3.8,0,0,0-7.07,0,9.26,9.26,0,0,0-.53,2.89Z"/><path class="cls-2" d="M600.09,223.48h.18l4.11-7h3.07l-5.91,8.71v.18l6.32,10h-3.1l-4.49-8.25h-.18l-4.49,8.25h-3.09l6.31-10v-.18l-5.91-8.71H596Z"/><path class="cls-2" d="M624.92,235a11.74,11.74,0,0,1-3.72.64,5.46,5.46,0,0,1-4.45-2,4.74,4.74,0,0,1-.89-1.64,6.9,6.9,0,0,1-.33-1.57c0-.41,0-1,0-1.73v-9.9h-4.71v-2.32h4.71v-4.71h2.36v4.71h7.07v2.32h-7.07v9.72c0,.67,0,1.18,0,1.51a5.57,5.57,0,0,0,.21,1.14,2.92,2.92,0,0,0,.55,1.1,3.38,3.38,0,0,0,2.74,1.14,9.72,9.72,0,0,0,3.54-.79Z"/><path class="cls-2" d="M239,257.31a128,128,0,0,0,2.39,13.87h.17a128.84,128.84,0,0,0,2.39-13.87h4.43a118.17,118.17,0,0,1-3.5,17.59H238a118.17,118.17,0,0,1-3.5-17.59Z"/><path class="cls-2" d="M256.15,257.77a6,6,0,0,1,5.72,0,5.8,5.8,0,0,1,2.07,2,6.84,6.84,0,0,1,.9,2.6,31.56,31.56,0,0,1,0,7.44,6.84,6.84,0,0,1-.9,2.6,5.8,5.8,0,0,1-2.07,2,6,6,0,0,1-5.72,0,6,6,0,0,1-2.07-2,7,7,0,0,1-.89-2.6,31.56,31.56,0,0,1,0-7.44,7,7,0,0,1,.89-2.6A6,6,0,0,1,256.15,257.77Zm2.86,3.39c-.58,0-1,.4-1.3,1.19a21,21,0,0,0,0,7.52c.28.79.72,1.19,1.3,1.19s1-.4,1.31-1.19a21,21,0,0,0,0-7.52C260,261.56,259.6,261.16,259,261.16Z"/><path class="cls-2" d="M275.5,274.9V263.64h-4.22v-4.13h8.62V274.9Zm-1.09-23.21a3,3,0,0,1,2.19-.85,2.93,2.93,0,0,1,2.19.85,3.25,3.25,0,0,1,0,4.38,2.93,2.93,0,0,1-2.19.85,3,3,0,0,1-2.19-.85,3.25,3.25,0,0,1,0-4.38Z"/><path class="cls-2" d="M292.28,257a3.12,3.12,0,0,1,2.87,1.39h.14v-7.71h4.4V274.9h-4.4v-1.11h-.14a3.14,3.14,0,0,1-2.87,1.39A3.08,3.08,0,0,1,290,274.1a6.41,6.41,0,0,1-1.46-3,34.9,34.9,0,0,1,0-10,6.49,6.49,0,0,1,1.46-3A3.1,3.1,0,0,1,292.28,257Zm2.39,4.65a.89.89,0,0,0-.75-.53.9.9,0,0,0-.76.53,4,4,0,0,0-.45,1.31,28.53,28.53,0,0,0,0,6.22,4,4,0,0,0,.45,1.31.9.9,0,0,0,.76.53.89.89,0,0,0,.75-.53,3.81,3.81,0,0,0,.45-1.31,28.53,28.53,0,0,0,0-6.22A3.73,3.73,0,0,0,294.67,261.69Z"/><path class="cls-3" d="M330.67,255.76a4.35,4.35,0,0,1,4,2.6h.18V249h2.36V274.9h-2.36v-2.3h-.18a4.42,4.42,0,0,1-1.71,2,4.36,4.36,0,0,1-2.3.64,5,5,0,0,1-3.24-1.15,6.5,6.5,0,0,1-2.06-3.21,10.34,10.34,0,0,1-.36-1.73c-.08-.64-.13-1.18-.14-1.63s0-1.12,0-2,0-1.55,0-2,.06-1,.14-1.63a10.34,10.34,0,0,1,.36-1.73,6.5,6.5,0,0,1,2.06-3.21A5,5,0,0,1,330.67,255.76Zm2.45,3a3.12,3.12,0,0,0-4.17,0,4.82,4.82,0,0,0-1.26,2,23.35,23.35,0,0,0,0,9.42,4.82,4.82,0,0,0,1.26,2,3.12,3.12,0,0,0,4.17,0,4.74,4.74,0,0,0,1.27-2,23.84,23.84,0,0,0,0-9.42A4.74,4.74,0,0,0,333.12,258.77Z"/><path class="cls-3" d="M344.29,274.9v-2.21H349V258.27h-4.71v-2.21h7.06v16.63h4.71v2.21Zm3.81-25.63a2.23,2.23,0,1,1-.57,1.49A2,2,0,0,1,348.1,249.27Z"/><path class="cls-3" d="M368.85,275.2a29,29,0,0,1-5.72-.78v-2.26a26.24,26.24,0,0,0,5.72.83,5.6,5.6,0,0,0,1.77-.25,3.69,3.69,0,0,0,1.24-.64,3.49,3.49,0,0,0,.77-.91,3.87,3.87,0,0,0,.4-1,3.93,3.93,0,0,0,.11-1,3.55,3.55,0,0,0-.5-1.89,3.37,3.37,0,0,0-1.34-1.23,7.42,7.42,0,0,0-2.68-.6,11,11,0,0,1-2.8-.54,5.46,5.46,0,0,1-2.19-1.62,4.06,4.06,0,0,1-.9-2.64,4.59,4.59,0,0,1,1.62-3.46,6.59,6.59,0,0,1,4.6-1.49,24.08,24.08,0,0,1,5.78.94V259a24.82,24.82,0,0,0-5.78-1,4.25,4.25,0,0,0-2.94.86,2.53,2.53,0,0,0-.93,1.88,2.12,2.12,0,0,0,.46,1.35,2.72,2.72,0,0,0,1.16.84,11.25,11.25,0,0,0,2.67.48,8.85,8.85,0,0,1,3.07.78,5.62,5.62,0,0,1,3.06,5.07,5.69,5.69,0,0,1-.43,2.21,6.08,6.08,0,0,1-1.21,1.9,5.64,5.64,0,0,1-2.09,1.35A7.91,7.91,0,0,1,368.85,275.2Z"/><path class="cls-3" d="M388.53,275.2q-2.36,0-4-2.6h-.19V282H382V256.06h2.35v2.3h.19q1.65-2.6,4-2.6a5.06,5.06,0,0,1,3.24,1.15,6.57,6.57,0,0,1,2.06,3.21,10.34,10.34,0,0,1,.36,1.73c.08.64.12,1.19.13,1.63s0,1.12,0,2,0,1.55,0,2a16.18,16.18,0,0,1-.13,1.63,10.34,10.34,0,0,1-.36,1.73,6.57,6.57,0,0,1-2.06,3.21A5.06,5.06,0,0,1,388.53,275.2Zm-2.46-3a3.13,3.13,0,0,0,4.18,0,4.82,4.82,0,0,0,1.26-2,23.35,23.35,0,0,0,0-9.42,4.82,4.82,0,0,0-1.26-2,3.13,3.13,0,0,0-4.18,0,4.82,4.82,0,0,0-1.26,2,23.35,23.35,0,0,0,0,9.42A4.82,4.82,0,0,0,386.07,272.19Z"/><path class="cls-3" d="M412.6,274.94a16.94,16.94,0,0,1-2.54.26,4.25,4.25,0,0,1-3.18-1.25,4.19,4.19,0,0,1-.94-1.5,5.69,5.69,0,0,1-.36-1.37c0-.33-.05-.77-.05-1.31V251.2h-4.71V249h7.07v20.78c0,.38,0,.67,0,.88a3.66,3.66,0,0,0,.13.76,2.38,2.38,0,0,0,.36.77,2.16,2.16,0,0,0,1.84.81,14.58,14.58,0,0,0,2.36-.31Z"/><path class="cls-3" d="M426.14,255.76a7.42,7.42,0,0,1,2.78.49,4,4,0,0,1,2,1.85,6.34,6.34,0,0,1,.55,3V274.9h-2.35v-2.26h-.19a5.54,5.54,0,0,1-4.6,2.56,5.34,5.34,0,0,1-2.15-.54,4.6,4.6,0,0,1-2-1.71,6.32,6.32,0,0,1-1.08-3.59,5.78,5.78,0,0,1,1.62-4.27,5.72,5.72,0,0,1,1.25-.93,4.4,4.4,0,0,1,1.39-.51,11,11,0,0,1,1.14-.17l1,0h3.57v-2.25a4.82,4.82,0,0,0-.33-2.17,2,2,0,0,0-.9-.8,4.22,4.22,0,0,0-1.72-.27,32.13,32.13,0,0,0-5.3.54v-2.25A34.38,34.38,0,0,1,426.14,255.76Zm2.95,9.72h-3.61a9.81,9.81,0,0,0-1.06,0,3.52,3.52,0,0,0-.95.26,3.13,3.13,0,0,0-1,.69,4,4,0,0,0-1,2.86,3.79,3.79,0,0,0,.93,2.59,3,3,0,0,0,2.38,1.07,4.41,4.41,0,0,0,2.45-.67,3.73,3.73,0,0,0,1.49-1.74,9.85,9.85,0,0,0,.41-3.42Z"/><path class="cls-3" d="M445,272.79q1.9-6.53,3.84-16.73h2.42q-1.1,5.74-2.18,10.25t-2.81,9.94a22,22,0,0,1-1.08,2.81,5.05,5.05,0,0,1-1.31,1.75c-1.16,1-2.94,1.45-5.36,1.45v-2.2a6.29,6.29,0,0,0,3.63-.76,2.87,2.87,0,0,0,.77-1,9.76,9.76,0,0,0,.56-1.21c.14-.38.4-1.12.78-2.23h-.94a57.55,57.55,0,0,1-3.32-8.72q-1.33-4.59-2.44-10.12H440a78.58,78.58,0,0,0,4.84,16.73Z"/><path class="cls-3" d="M468,277.26H464.9a24.1,24.1,0,0,1-4.16-7.19,23.13,23.13,0,0,1,0-16.23,24.15,24.15,0,0,1,4.16-7.2H468a21.72,21.72,0,0,0-4.68,7.05,21.06,21.06,0,0,0,0,16.53A21.79,21.79,0,0,0,468,277.26Z"/><path class="cls-3" d="M475.46,269.27c-.08-.83-.12-1.88-.12-3.16s0-2.34.12-3.16a7.71,7.71,0,0,1,.61-2.32A5.81,5.81,0,0,1,481.9,257a45.39,45.39,0,0,1,4.81.31v4.12a46,46,0,0,0-4.81-.31,1.63,1.63,0,0,0-1.17.4,2.85,2.85,0,0,0-.71,1.2,19.49,19.49,0,0,0,0,6.7,2.85,2.85,0,0,0,.71,1.2,1.67,1.67,0,0,0,1.17.4,34.26,34.26,0,0,0,5-.45v4.12a34,34,0,0,1-5,.45,5.81,5.81,0,0,1-5.83-3.59A7.78,7.78,0,0,1,475.46,269.27Z"/><path class="cls-3" d="M500.6,257a3.37,3.37,0,0,1,3,1.84,5.33,5.33,0,0,1,.63,1.58,8.58,8.58,0,0,1,.24,1.48q0,.6,0,1.68V274.9h-4.4V263.62a4.51,4.51,0,0,0-.26-1.87.89.89,0,0,0-1.68,0,4.51,4.51,0,0,0-.26,1.87V274.9h-4.4V250.72h4.4v7.66H498a3.54,3.54,0,0,1,1.19-1A3.08,3.08,0,0,1,500.6,257Z"/><path class="cls-3" d="M517.11,257a6.89,6.89,0,0,1,2.59.45,3.78,3.78,0,0,1,1.84,1.73,6,6,0,0,1,.52,2.82V274.9h-4.4V274h-.17a3,3,0,0,1-2.44,1.19,4.07,4.07,0,0,1-3.18-1.57,5.67,5.67,0,0,1-1.36-3.88,5.89,5.89,0,0,1,1.51-4.15,5.53,5.53,0,0,1,1.18-1,4.36,4.36,0,0,1,1.29-.5,9.36,9.36,0,0,1,1.06-.18c.27,0,.6,0,1,0h1.14v-1.79a.92.92,0,0,0-.29-.64,1,1,0,0,0-.76-.3,41.71,41.71,0,0,0-4.45.33v-4.14A43.53,43.53,0,0,1,517.11,257Zm.55,10.63h-1.17a1.4,1.4,0,0,0-1.21.49,2.55,2.55,0,0,0-.37,1.54,1.66,1.66,0,0,0,.27,1,.92.92,0,0,0,.79.39,1.41,1.41,0,0,0,1.47-1.13,5.07,5.07,0,0,0,.18-.92,8.34,8.34,0,0,0,0-.94Z"/><path class="cls-3" d="M536.55,261.16a3,3,0,0,0-2.28.91,4.33,4.33,0,0,0-.7,1.06,4.52,4.52,0,0,0-.37,1.29c-.07.47-.11.86-.13,1.15s0,.68,0,1.17v8.16h-4.4V257.31h4.4v1.88h.17a5.68,5.68,0,0,1,1.5-1.6,3.48,3.48,0,0,1,2-.55,22.88,22.88,0,0,1,2.92.22v4.13A25.86,25.86,0,0,0,536.55,261.16Z"/><path class="cls-3" d="M565,268.87a41.11,41.11,0,0,1,0-6.78,8.17,8.17,0,0,1,.65-2.48c1.12-2.56,3.2-3.85,6.24-3.85a20.39,20.39,0,0,1,5,.68v2.27a19,19,0,0,0-5-.74,4.57,4.57,0,0,0-2.51.6,4.31,4.31,0,0,0-1.52,1.81,5.77,5.77,0,0,0-.45,1.57,10.81,10.81,0,0,0-.18,1.61c0,.45,0,1.09,0,1.92s0,1.48,0,1.92a10.81,10.81,0,0,0,.18,1.61,5.77,5.77,0,0,0,.45,1.57,4.31,4.31,0,0,0,1.52,1.81,4.57,4.57,0,0,0,2.51.6,20.76,20.76,0,0,0,5.34-.81v2.26a20.87,20.87,0,0,1-5.34.76q-4.56,0-6.24-3.85A8.17,8.17,0,0,1,565,268.87Z"/><path class="cls-3" d="M585.38,277.26a22,22,0,0,0,4.69-7,21.17,21.17,0,0,0,0-16.53,21.91,21.91,0,0,0-4.69-7.05h3.1a24.12,24.12,0,0,1,4.15,7.2,23,23,0,0,1,0,16.23,24.07,24.07,0,0,1-4.15,7.19Z"/><path class="cls-3" d="M240.38,301.63a4.3,4.3,0,0,1,2.47,2.08,4.4,4.4,0,0,1,.32,1,6.29,6.29,0,0,1,.12.92c0,.26,0,.65,0,1.18v3.92a6.07,6.07,0,0,0,.26,2.21,3,3,0,0,0,1.72,1.46,7.21,7.21,0,0,0,2.73.51v2.21a9.44,9.44,0,0,1-4-.86,5.12,5.12,0,0,1-2.57-2.42,4.76,4.76,0,0,1-.32-1,7.78,7.78,0,0,1-.12-.92c0-.26,0-.65,0-1.18v-3.92a6.17,6.17,0,0,0-.25-2.21,3.1,3.1,0,0,0-1.72-1.46,7.26,7.26,0,0,0-2.74-.51v-2.2a7.26,7.26,0,0,0,2.74-.51,3.1,3.1,0,0,0,1.72-1.46,6.17,6.17,0,0,0,.25-2.21v-3.92c0-.53,0-.92,0-1.18a7.78,7.78,0,0,1,.12-.92,4.76,4.76,0,0,1,.32-1,5.12,5.12,0,0,1,2.57-2.42,9.44,9.44,0,0,1,4-.86v2.21a7.21,7.21,0,0,0-2.73.51,3,3,0,0,0-1.72,1.46,6.07,6.07,0,0,0-.26,2.21v3.92c0,.53,0,.92,0,1.18a6.29,6.29,0,0,1-.12.92,4.4,4.4,0,0,1-.32,1,4.34,4.34,0,0,1-2.47,2.08Z"/><path class="cls-2" d="M315.71,354.05V342.78h-4.23v-4.12h8.62v15.39Zm-1.1-23.21a3,3,0,0,1,2.19-.85,2.91,2.91,0,0,1,3,3,2.91,2.91,0,0,1-3,3,2.91,2.91,0,0,1-3-3A3,3,0,0,1,314.61,330.84Z"/><path class="cls-2" d="M336,336.19a3.4,3.4,0,0,1,3,1.84,5.49,5.49,0,0,1,.62,1.58,7,7,0,0,1,.24,1.48c0,.4,0,1,0,1.68v11.28h-4.4V342.77a4.4,4.4,0,0,0-.26-1.88.94.94,0,0,0-.84-.58,1,1,0,0,0-.84.58,4.57,4.57,0,0,0-.26,1.88v11.28H328.9V336.46h4.39v1.07h.12a3.54,3.54,0,0,1,1.19-1A3.08,3.08,0,0,1,336,336.19Z"/><path class="cls-2" d="M358.58,354.07a24.44,24.44,0,0,1-3.3.26,6.13,6.13,0,0,1-2.5-.5,4.88,4.88,0,0,1-1.83-1.36,4.18,4.18,0,0,1-.82-1.53,5.81,5.81,0,0,1-.31-1.46c0-.39,0-.93,0-1.61v-7.18h-4.39v-4.23h4.39v-4.39h4.4v4.39h4.4v4.23h-4.4v7a5,5,0,0,0,.27,1.89,1,1,0,0,0,1,.61,24.45,24.45,0,0,0,3.13-.25Z"/><path class="cls-3" d="M383.23,354.05v-2.21h4.71V337.42h-4.71v-2.21h7.07v16.63H395v2.21ZM387,328.42a2.23,2.23,0,1,1-.57,1.49A2,2,0,0,1,387,328.42Z"/><path class="cls-3" d="M418.57,335.28h16.49v2.21H418.57Zm0,9.42h16.49v2.21H418.57Z"/><path class="cls-3" d="M469.25,356.41h-3.09a23.89,23.89,0,0,1-4.16-7.19A23,23,0,0,1,462,333a24.11,24.11,0,0,1,4.16-7.21h3.09a22.07,22.07,0,0,0-4.69,7.06,21.17,21.17,0,0,0,0,16.53A22.09,22.09,0,0,0,469.25,356.41Z"/><path class="cls-3" d="M477,348c-.09-.89-.13-2-.13-3.39s0-2.5.13-3.39a8.18,8.18,0,0,1,.66-2.48q1.66-3.86,6.24-3.85a20.39,20.39,0,0,1,5,.68v2.27a19,19,0,0,0-5-.74,4.61,4.61,0,0,0-2.52.6,4.36,4.36,0,0,0-1.51,1.81,5.77,5.77,0,0,0-.45,1.57,10.81,10.81,0,0,0-.18,1.61c0,.44,0,1.08,0,1.92s0,1.47,0,1.92a10.81,10.81,0,0,0,.18,1.61,5.77,5.77,0,0,0,.45,1.57,4.36,4.36,0,0,0,1.51,1.81,4.61,4.61,0,0,0,2.52.6,20.69,20.69,0,0,0,5.33-.81v2.26a21.19,21.19,0,0,1-5.33.76c-3,0-5.13-1.29-6.24-3.85A8.18,8.18,0,0,1,477,348Z"/><path class="cls-3" d="M515.15,340h11.77v2.21H515.15Z"/><path class="cls-3" d="M553.2,328.14h11.41v2l-5.37,7.92.13.13a3.84,3.84,0,0,1,1.19-.19,4,4,0,0,1,3.48,2,6.15,6.15,0,0,1,1,2.47,23.58,23.58,0,0,1,.21,3.49q0,4.15-1.16,5.8a6.2,6.2,0,0,1-5.43,2.54,23.22,23.22,0,0,1-5.78-.94v-2.3a20.72,20.72,0,0,0,5.78,1,5.5,5.5,0,0,0,1.48-.18,3.61,3.61,0,0,0,1.1-.45,2.4,2.4,0,0,0,.75-.74,4.47,4.47,0,0,0,.49-.94,5.1,5.1,0,0,0,.27-1.16c.06-.46.1-.89.12-1.28s0-.87,0-1.42a12.81,12.81,0,0,0-.37-3.75,3.39,3.39,0,0,0-3.46-2.38,5,5,0,0,0-1.44.21l-1.08-1.4,5.24-8.3H553.2Z"/><path class="cls-3" d="M571.68,329.15a15.26,15.26,0,0,1,5.67-1.3,7.47,7.47,0,0,1,2.85.51,5.08,5.08,0,0,1,2,1.39,6.15,6.15,0,0,1,1.11,1.94,6.73,6.73,0,0,1,.38,2.25,7.39,7.39,0,0,1-1,3.57l-8,14.33h8.8v2.21H571.68v-1.64l8.87-15.93a7.88,7.88,0,0,0,.59-1.25,4.1,4.1,0,0,0,.18-1.29,5,5,0,0,0-.18-1.36,4.15,4.15,0,0,0-.61-1.23,2.9,2.9,0,0,0-1.24-1,5,5,0,0,0-1.94-.35,15.32,15.32,0,0,0-5.67,1.37Z"/><path class="cls-3" d="M591.67,356.41a21.9,21.9,0,0,0,4.68-7,21.17,21.17,0,0,0,0-16.53,21.88,21.88,0,0,0-4.68-7.06h3.09a24.55,24.55,0,0,1,4.16,7.21,23.13,23.13,0,0,1,0,16.23,24.32,24.32,0,0,1-4.16,7.19Z"/><path class="cls-3" d="M618,342.27l5.06,5-1.73,1.51-4.89-5-1.09-1.57h-.18l-1.09,1.57-4.89,5-1.73-1.51,5.06-5,1.56-1.08V341l-1.56-1.08-5.06-5,1.73-1.51,4.89,5,1.09,1.57h.18l1.09-1.57,4.89-5,1.73,1.51-5.06,5L616.44,341v.19Z"/><path class="cls-3" d="M628.21,351.11a20.72,20.72,0,0,0,5.78,1,6.15,6.15,0,0,0,1.69-.21,2.71,2.71,0,0,0,1.17-.68,4.17,4.17,0,0,0,.74-1A4.1,4.1,0,0,0,638,349a12.13,12.13,0,0,0,.18-1.48c0-.45,0-1,0-1.69a13.81,13.81,0,0,0-.37-3.94,3.38,3.38,0,0,0-3.46-2.37,4.86,4.86,0,0,0-2.33.55,5,5,0,0,0-1.7,1.45l-2.16-.62V328.14H640v2.21h-9.42v9h.18a7.87,7.87,0,0,1,1.84-1.59,4.25,4.25,0,0,1,2.18-.54,5.35,5.35,0,0,1,4.65,2.41,5.45,5.45,0,0,1,.8,1.86,11.33,11.33,0,0,1,.32,1.91c0,.55,0,1.34,0,2.38a22.14,22.14,0,0,1-.24,3.53,5.84,5.84,0,0,1-.94,2.45,5.75,5.75,0,0,1-2.14,1.88,7.1,7.1,0,0,1-3.27.66,23.22,23.22,0,0,1-5.78-.94Z"/><path class="cls-3" d="M648.86,358q.55-.8.81-1.2a9,9,0,0,0,.61-1.19,3.54,3.54,0,0,0,.35-1.36,5.6,5.6,0,0,0-.75-2.42,5.6,5.6,0,0,1-.76-2.46,2.53,2.53,0,0,1,.76-1.91,2.59,2.59,0,0,1,1.89-.74,2.48,2.48,0,0,1,1.9.82,3.47,3.47,0,0,1,.75,2.42,12.29,12.29,0,0,1-1,5,19.12,19.12,0,0,1-2.73,4.36Zm1-22.32a2.85,2.85,0,1,1-.74,1.91A2.58,2.58,0,0,1,649.86,335.65Z"/><path class="cls-2" d="M319,393.62h-4.39V382.36h-4.4v-4.13h4.4v-4a10.24,10.24,0,0,1,0-1,5.12,5.12,0,0,1,.3-1.12,3.86,3.86,0,0,1,.77-1.27,4.38,4.38,0,0,1,1.9-1.2,8.08,8.08,0,0,1,2.74-.43c1,0,2,0,3,.1v4.12c-1.18-.06-2.08-.08-2.71-.08a3.67,3.67,0,0,0-.64,0,1.69,1.69,0,0,0-.51.19.85.85,0,0,0-.41.49,2.7,2.7,0,0,0-.13.89v3.31h4.4v4.13H319Z"/><path class="cls-2" d="M331.53,376.49a6,6,0,0,1,5.72,0,6,6,0,0,1,2.07,2,6.84,6.84,0,0,1,.9,2.6,31.56,31.56,0,0,1,0,7.44,6.84,6.84,0,0,1-.9,2.6,6,6,0,0,1-2.07,2,6,6,0,0,1-5.72,0,6,6,0,0,1-2.07-2,7,7,0,0,1-.89-2.6,31.56,31.56,0,0,1,0-7.44,7,7,0,0,1,.89-2.6A6,6,0,0,1,331.53,376.49Zm2.86,3.39c-.58,0-1,.4-1.3,1.19a20.37,20.37,0,0,0,0,7.52c.28.79.72,1.19,1.3,1.19s1-.4,1.31-1.19a21,21,0,0,0,0-7.52C335.41,380.28,335,379.88,334.39,379.88Z"/><path class="cls-2" d="M354.39,379.88a3,3,0,0,0-2.29.91,4.39,4.39,0,0,0-1.06,2.35c-.07.47-.11.86-.13,1.15s0,.68,0,1.18v8.15h-4.4V376h4.4v1.87h.17a5.56,5.56,0,0,1,1.51-1.6,3.46,3.46,0,0,1,2-.55,25,25,0,0,1,2.92.22v4.13A26.15,26.15,0,0,0,354.39,379.88Z"/><path class="cls-3" d="M393.87,396h-3.09a24,24,0,0,1-4.16-7.19,23.13,23.13,0,0,1,0-16.23,24.28,24.28,0,0,1,4.16-7.2h3.09a21.66,21.66,0,0,0-4.68,7.06,21,21,0,0,0,0,16.52A21.79,21.79,0,0,0,393.87,396Z"/><path class="cls-2" d="M425,393.62V382.36h-4.22v-4.13h8.62v15.39Zm-1.09-23.21a3,3,0,0,1,2.19-.85,2.93,2.93,0,0,1,2.19.85,3.25,3.25,0,0,1,0,4.38,2.93,2.93,0,0,1-2.19.85,3,3,0,0,1-2.19-.85,3.25,3.25,0,0,1,0-4.38Z"/><path class="cls-2" d="M445.32,375.76a3.4,3.4,0,0,1,3,1.84,5.6,5.6,0,0,1,.62,1.58,7.07,7.07,0,0,1,.24,1.49c0,.39,0,.95,0,1.67v11.28h-4.4V382.34a4.34,4.34,0,0,0-.26-1.87,1,1,0,0,0-.84-.59,1,1,0,0,0-.84.59,4.51,4.51,0,0,0-.26,1.87v11.28H438.2V376h4.39v1.06h.12a3.54,3.54,0,0,1,1.19-1A3.08,3.08,0,0,1,445.32,375.76Z"/><path class="cls-2" d="M467.88,393.64a24.44,24.44,0,0,1-3.3.26,6.13,6.13,0,0,1-2.5-.5,4.78,4.78,0,0,1-1.83-1.36,4.21,4.21,0,0,1-.82-1.52,5.9,5.9,0,0,1-.31-1.46c0-.39,0-.93,0-1.62v-7.18h-4.39V376h4.39v-4.4h4.4V376h4.4v4.22h-4.4v7a5,5,0,0,0,.27,1.89,1,1,0,0,0,1,.62,24.74,24.74,0,0,0,3.13-.26Z"/><path class="cls-3" d="M504.31,393.28a12,12,0,0,1-3.72.64,5.44,5.44,0,0,1-4.45-2,4.55,4.55,0,0,1-.88-1.64,6.82,6.82,0,0,1-.34-1.56c0-.42,0-1,0-1.73v-9.9h-4.71v-2.32h4.71v-4.71h2.35v4.71h7.07v2.32h-7.07v9.72q0,1,0,1.5a5.53,5.53,0,0,0,.21,1.15,3.16,3.16,0,0,0,.55,1.1,3.4,3.4,0,0,0,2.75,1.14,9.67,9.67,0,0,0,3.53-.79Z"/><path class="cls-3" d="M513.14,384.2c0,.84,0,1.48,0,1.93a14.24,14.24,0,0,0,.16,1.61,6.28,6.28,0,0,0,.41,1.56,3.74,3.74,0,0,0,3.72,2.41,23.89,23.89,0,0,0,5.7-.81v2.27a24.43,24.43,0,0,1-5.7.75,6.09,6.09,0,0,1-5.93-3.85,8.42,8.42,0,0,1-.6-2.48c-.09-.88-.13-2-.13-3.39s0-2.48.13-3.35a8.58,8.58,0,0,1,.6-2.48,6.37,6.37,0,0,1,2.17-2.8,6.46,6.46,0,0,1,7.15,0,6.37,6.37,0,0,1,2.17,2.8,8.58,8.58,0,0,1,.6,2.48c.09.87.13,2,.13,3.35Zm8.19-2.21a9.32,9.32,0,0,0-.53-2.89,3.8,3.8,0,0,0-7.07,0,9.32,9.32,0,0,0-.53,2.89Z"/><path class="cls-3" d="M533.13,374.49a3.57,3.57,0,0,1,2,.56,4.2,4.2,0,0,1,1.39,1.48,4.56,4.56,0,0,1,3.7-2,3.78,3.78,0,0,1,3.2,1.58,4.53,4.53,0,0,1,.66,1.34,6.15,6.15,0,0,1,.26,1.26c0,.35,0,.86,0,1.52v13.43H542V380.19c0-.53,0-.91,0-1.16a3.57,3.57,0,0,0-.15-.83,1.9,1.9,0,0,0-.38-.75,2.52,2.52,0,0,0-3.61,0,2.05,2.05,0,0,0-.39.75,4.11,4.11,0,0,0-.14.83c0,.25,0,.63,0,1.16v13.43h-2.36V380.19c0-.53,0-.91,0-1.16a4.11,4.11,0,0,0-.14-.83,2.05,2.05,0,0,0-.39-.75,2.52,2.52,0,0,0-3.61,0,1.9,1.9,0,0,0-.38.75,3.57,3.57,0,0,0-.15.83c0,.25,0,.63,0,1.16v13.43h-2.35V374.78h2.35v1.38h.18A3.28,3.28,0,0,1,533.13,374.49Z"/><path class="cls-3" d="M555.62,393.92q-2.36,0-4-2.6h-.19v9.37h-2.35V374.78h2.35v2.3h.19q1.65-2.59,4-2.59a5,5,0,0,1,3.24,1.15,6.48,6.48,0,0,1,2.06,3.21,9.93,9.93,0,0,1,.36,1.73,16.18,16.18,0,0,1,.13,1.63c0,.44,0,1.11,0,2s0,1.55,0,2a16.18,16.18,0,0,1-.13,1.63,10.13,10.13,0,0,1-.36,1.73,6.57,6.57,0,0,1-2.06,3.21A5,5,0,0,1,555.62,393.92Zm-2.46-3a3.13,3.13,0,0,0,4.18,0,4.76,4.76,0,0,0,1.26-2,23.35,23.35,0,0,0,0-9.42,4.82,4.82,0,0,0-1.26-2,3.13,3.13,0,0,0-4.18,0,4.82,4.82,0,0,0-1.26,2,23.35,23.35,0,0,0,0,9.42A4.76,4.76,0,0,0,553.16,390.91Z"/><path class="cls-3" d="M584.4,374.85h16.49v2.21H584.4Zm0,9.43h16.49v2.2H584.4Z"/><path class="cls-3" d="M624.44,393.62v-2.2h4.72V377h-4.72v-2.21h7.07v16.64h4.71v2.2ZM628.25,368a2.23,2.23,0,1,1-.57,1.49A2,2,0,0,1,628.25,368Z"/><path class="cls-3" d="M645.09,397.54c.37-.52.64-.92.81-1.19a9.21,9.21,0,0,0,.61-1.2,3.54,3.54,0,0,0,.35-1.36,5.64,5.64,0,0,0-.75-2.42,5.53,5.53,0,0,1-.76-2.46,2.53,2.53,0,0,1,.76-1.91,2.59,2.59,0,0,1,1.89-.74,2.51,2.51,0,0,1,1.9.82,3.49,3.49,0,0,1,.75,2.42,12.34,12.34,0,0,1-1,5,19.34,19.34,0,0,1-2.73,4.36Zm1-22.32a2.85,2.85,0,1,1-.74,1.92A2.6,2.6,0,0,1,646.09,375.22Z"/><path class="cls-3" d="M692.76,393.28a12,12,0,0,1-3.72.64,5.44,5.44,0,0,1-4.45-2,4.56,4.56,0,0,1-.89-1.64,7.3,7.3,0,0,1-.33-1.56c0-.42,0-1,0-1.73v-9.9h-4.71v-2.32h4.71v-4.71h2.36v4.71h7.07v2.32h-7.07v9.72q0,1,0,1.5a5.53,5.53,0,0,0,.21,1.15,3.16,3.16,0,0,0,.55,1.1,3.38,3.38,0,0,0,2.74,1.14,9.72,9.72,0,0,0,3.54-.79Z"/><path class="cls-3" d="M701.59,384.2c0,.84,0,1.48,0,1.93a14,14,0,0,0,.15,1.61,6.71,6.71,0,0,0,.42,1.56,3.74,3.74,0,0,0,3.72,2.41,23.89,23.89,0,0,0,5.7-.81v2.27a24.43,24.43,0,0,1-5.7.75,6.09,6.09,0,0,1-5.93-3.85,8.75,8.75,0,0,1-.61-2.48c-.08-.88-.13-2-.13-3.39s0-2.48.13-3.35a8.93,8.93,0,0,1,.61-2.48,6.35,6.35,0,0,1,2.16-2.8,6.47,6.47,0,0,1,7.16,0,6.28,6.28,0,0,1,2.16,2.8,8.59,8.59,0,0,1,.61,2.48c.09.87.13,2,.13,3.35Zm8.19-2.21a9.32,9.32,0,0,0-.53-2.89,3.8,3.8,0,0,0-7.07,0,9,9,0,0,0-.53,2.89Z"/><path class="cls-3" d="M721.58,374.49a3.51,3.51,0,0,1,2,.56,4,4,0,0,1,1.39,1.48,4.59,4.59,0,0,1,3.7-2,3.75,3.75,0,0,1,3.2,1.58,4.32,4.32,0,0,1,.67,1.34,6,6,0,0,1,.25,1.26c0,.35,0,.86,0,1.52v13.43h-2.35V380.19c0-.53,0-.91,0-1.16a3.57,3.57,0,0,0-.15-.83,1.91,1.91,0,0,0-.39-.75,2.51,2.51,0,0,0-3.6,0,2.05,2.05,0,0,0-.39.75,4.19,4.19,0,0,0-.15.83c0,.25,0,.63,0,1.16v13.43h-2.36V380.19c0-.53,0-.91,0-1.16a3.57,3.57,0,0,0-.15-.83,1.9,1.9,0,0,0-.38-.75,2.52,2.52,0,0,0-3.61,0,2.05,2.05,0,0,0-.39.75,4.11,4.11,0,0,0-.14.83c0,.25,0,.63,0,1.16v13.43h-2.36V374.78h2.36v1.38h.18A3.26,3.26,0,0,1,721.58,374.49Z"/><path class="cls-3" d="M744.06,393.92c-1.57,0-2.9-.87-4-2.6h-.18v9.37h-2.36V374.78h2.36v2.3h.18c1.11-1.73,2.44-2.59,4-2.59a5,5,0,0,1,3.24,1.15,6.41,6.41,0,0,1,2.06,3.21,9.93,9.93,0,0,1,.36,1.73c.08.64.13,1.18.14,1.63s0,1.11,0,2,0,1.55,0,2-.06,1-.14,1.63a10.13,10.13,0,0,1-.36,1.73,6.5,6.5,0,0,1-2.06,3.21A5,5,0,0,1,744.06,393.92Zm-2.45-3a3,3,0,0,0,2.09.8,3,3,0,0,0,2.09-.8,4.76,4.76,0,0,0,1.26-2,23.84,23.84,0,0,0,0-9.42,4.82,4.82,0,0,0-1.26-2,3,3,0,0,0-2.09-.8,3,3,0,0,0-2.09.8,4.82,4.82,0,0,0-1.26,2,23.35,23.35,0,0,0,0,9.42A4.76,4.76,0,0,0,741.61,390.91Z"/><path class="cls-3" d="M787,387.09v2.76l-11.76-8.3v-1.76l11.76-8.3v2.76l-9.11,6.33v.18Z"/><path class="cls-3" d="M812.89,393.62v-2.2h4.71V377h-4.71v-2.21H820v16.64h4.71v2.2ZM816.7,368a2.23,2.23,0,1,1-.57,1.49A2,2,0,0,1,816.7,368Z"/><path class="cls-3" d="M243.31,419.14h7.07v2.21h-7.07v7.14H241v-7.14h-7.06v-2.21H241V412h2.36Z"/><path class="cls-3" d="M273.93,430.25a20.42,20.42,0,0,0,5.78,1,6.13,6.13,0,0,0,1.69-.22,2.6,2.6,0,0,0,1.17-.67,4.46,4.46,0,0,0,.74-1,4.27,4.27,0,0,0,.42-1.32,14.83,14.83,0,0,0,.18-1.48c0-.45,0-1,0-1.69a13.92,13.92,0,0,0-.36-3.94,3.4,3.4,0,0,0-3.46-2.38,5,5,0,0,0-4,2l-2.16-.63V407.29h11.78v2.21h-9.42v9.05h.18a7.87,7.87,0,0,1,1.84-1.59,4.24,4.24,0,0,1,2.17-.54,5.36,5.36,0,0,1,4.66,2.41,5.45,5.45,0,0,1,.8,1.86,10.3,10.3,0,0,1,.31,1.91c0,.55.05,1.34.05,2.37a22.19,22.19,0,0,1-.24,3.54,5.76,5.76,0,0,1-3.08,4.33,7.13,7.13,0,0,1-3.27.65,23.14,23.14,0,0,1-5.78-.93Z"/><path class="cls-3" d="M294.58,437.12q.56-.8.81-1.2a9.65,9.65,0,0,0,.61-1.19,3.54,3.54,0,0,0,.35-1.37,5.58,5.58,0,0,0-.76-2.42,5.63,5.63,0,0,1-.75-2.45,2.57,2.57,0,0,1,.75-1.92,2.63,2.63,0,0,1,1.9-.73,2.44,2.44,0,0,1,1.89.82,3.41,3.41,0,0,1,.76,2.42,12.32,12.32,0,0,1-1,5,19.48,19.48,0,0,1-2.73,4.36Zm1-22.32a2.85,2.85,0,0,1,3.83,0,2.65,2.65,0,0,1-1.91,4.56,2.62,2.62,0,0,1-1.92-.74,2.86,2.86,0,0,1,0-3.82Z"/><path class="cls-2" d="M389.36,472.77H387V446.86h5.91a16.46,16.46,0,0,1,3.38.24,6.46,6.46,0,0,1,3.7,2.37,7.63,7.63,0,0,1,0,8.92,6.46,6.46,0,0,1-3.7,2.37,16.46,16.46,0,0,1-3.38.24h-3.55Zm3.55-14a14,14,0,0,0,2.8-.19,4,4,0,0,0,2.43-1.59,5.57,5.57,0,0,0,0-6.16,4.06,4.06,0,0,0-2.43-1.6,15.05,15.05,0,0,0-2.8-.18h-3.55v9.72Z"/><path class="cls-2" d="M403.2,459.82a29,29,0,0,1,.51-6.42,9.79,9.79,0,0,1,2.78-4.91,8.12,8.12,0,0,1,10.49,0,9.79,9.79,0,0,1,2.78,4.91,40.66,40.66,0,0,1,0,12.84,9.76,9.76,0,0,1-2.78,4.9,8.09,8.09,0,0,1-10.49,0,9.76,9.76,0,0,1-2.78-4.9A29,29,0,0,1,403.2,459.82Zm2.35,0a28.15,28.15,0,0,0,.46,5.92,7.68,7.68,0,0,0,2,3.68,5.59,5.59,0,0,0,7.49,0,7.68,7.68,0,0,0,2-3.68,38.39,38.39,0,0,0,0-11.85,7.77,7.77,0,0,0-2-3.68,5.62,5.62,0,0,0-7.49,0,7.77,7.77,0,0,0-2,3.68A28.26,28.26,0,0,0,405.55,459.82Z"/><path class="cls-2" d="M424.69,472.77h-2.36V446.86h5.91a16.57,16.57,0,0,1,3.39.24,6.5,6.5,0,0,1,3.7,2.37,7,7,0,0,1,1.43,4.46,7.17,7.17,0,0,1-1.14,4,6.34,6.34,0,0,1-3,2.47l4.62,12.33h-2.46L430.3,461c-.4,0-1.09,0-2.06,0h-3.55Zm3.55-14a13.88,13.88,0,0,0,2.8-.19,4,4,0,0,0,2.44-1.59,5.57,5.57,0,0,0,0-6.16,4.06,4.06,0,0,0-2.44-1.6,14.91,14.91,0,0,0-2.8-.18h-3.55v9.72Z"/><path class="cls-2" d="M457.67,446.86v2.21H450.6v23.7h-2.35v-23.7h-7.07v-2.21Z"/><path class="cls-2" d="M466.94,446.86a9.8,9.8,0,0,1,5.58,1.68,9.43,9.43,0,0,1,3.75,5.68,22.87,22.87,0,0,1,.54,5.6,23.35,23.35,0,0,1-.54,5.59,9.58,9.58,0,0,1-3.75,5.69,9.31,9.31,0,0,1-5.58,1.67H460V446.86Zm0,23.7a7,7,0,0,0,6-2.9,8.3,8.3,0,0,0,1.21-3.2,28.43,28.43,0,0,0,.31-4.64,22,22,0,0,0-.48-5.12,7.64,7.64,0,0,0-2.37-4.09,6.79,6.79,0,0,0-4.66-1.54h-4.56v21.49Z"/><path class="cls-3" d="M497.71,454H514.2v2.21H497.71Zm0,9.42H514.2v2.21H497.71Z"/><path class="cls-3" d="M549.54,472.42a11.76,11.76,0,0,1-3.72.65,5.44,5.44,0,0,1-4.45-2,4.65,4.65,0,0,1-.89-1.64,7.3,7.3,0,0,1-.33-1.56c0-.42,0-1,0-1.73v-9.9H535.4v-2.32h4.71v-4.71h2.36v4.71h7.07v2.32h-7.07V466c0,.68,0,1.18,0,1.51a5.45,5.45,0,0,0,.21,1.14,3.21,3.21,0,0,0,.55,1.11,3.38,3.38,0,0,0,2.74,1.14,9.72,9.72,0,0,0,3.54-.79Z"/><path class="cls-3" d="M558.37,463.35c0,.84,0,1.48,0,1.92a11.93,11.93,0,0,0,.16,1.61,6.25,6.25,0,0,0,.41,1.57,3.74,3.74,0,0,0,3.72,2.41,23.89,23.89,0,0,0,5.7-.81v2.26a24,24,0,0,1-5.7.76A6.29,6.29,0,0,1,559,472a6.22,6.22,0,0,1-2.21-2.78,8.75,8.75,0,0,1-.61-2.48c-.08-.89-.13-2-.13-3.39s0-2.48.13-3.35a8.93,8.93,0,0,1,.61-2.48,6.29,6.29,0,0,1,2.16-2.8,6.42,6.42,0,0,1,7.16,0,6.22,6.22,0,0,1,2.16,2.8,8.59,8.59,0,0,1,.61,2.48c.09.87.13,2,.13,3.35Zm8.19-2.21a9.32,9.32,0,0,0-.53-2.89,3.8,3.8,0,0,0-7.07,0,9.32,9.32,0,0,0-.53,2.89Z"/><path class="cls-3" d="M581.25,460.92h.18l4.1-7h3.08l-5.91,8.7v.19l6.31,9.95h-3.09l-4.49-8.24h-.18l-4.49,8.24h-3.1l6.32-9.95v-.19l-5.91-8.7h3.07Z"/><path class="cls-3" d="M606.07,472.42a11.76,11.76,0,0,1-3.72.65,5.45,5.45,0,0,1-4.45-2,4.63,4.63,0,0,1-.88-1.64,6.24,6.24,0,0,1-.33-1.56c0-.42,0-1,0-1.73v-9.9h-4.71v-2.32h4.71v-4.71H599v4.71h7.07v2.32H599V466c0,.68,0,1.18,0,1.51a5.45,5.45,0,0,0,.21,1.14,3.22,3.22,0,0,0,.56,1.11,3.36,3.36,0,0,0,2.74,1.14,9.63,9.63,0,0,0,3.53-.79Z"/><path class="cls-3" d="M610.78,472.85h16.49v2.21H610.78Z"/><path class="cls-3" d="M638.46,453.63a7.42,7.42,0,0,1,2.78.49,4.07,4.07,0,0,1,2,1.85,6.34,6.34,0,0,1,.55,3v13.78h-2.35v-2.26h-.19a5.51,5.51,0,0,1-4.6,2.56,5.27,5.27,0,0,1-2.15-.54,4.6,4.6,0,0,1-2-1.71,6.33,6.33,0,0,1-1.09-3.59A5.78,5.78,0,0,1,633,463a6,6,0,0,1,1.25-.93,4.58,4.58,0,0,1,1.39-.51c.49-.09.87-.15,1.14-.17l1,0h3.58v-2.25a4.79,4.79,0,0,0-.34-2.17,1.88,1.88,0,0,0-.89-.8,4.25,4.25,0,0,0-1.72-.27,32,32,0,0,0-5.3.54v-2.25A34.38,34.38,0,0,1,638.46,453.63Zm2.95,9.72H637.8a9.69,9.69,0,0,0-1.06,0,3.52,3.52,0,0,0-1,.26,3,3,0,0,0-1,.69,4,4,0,0,0-1,2.86,3.79,3.79,0,0,0,.93,2.59,3,3,0,0,0,2.38,1.07,4.44,4.44,0,0,0,2.45-.67,3.73,3.73,0,0,0,1.49-1.74,9.85,9.85,0,0,0,.41-3.42Z"/><path class="cls-3" d="M658.92,455.84a5.1,5.1,0,0,0-3.77,1.35,6.23,6.23,0,0,0-1.13,1.54,6.32,6.32,0,0,0-.6,1.81,14.7,14.7,0,0,0-.2,1.53c0,.38,0,.85,0,1.41v9.29h-2.35V453.93h2.35v2.92h.19a8.51,8.51,0,0,1,2.37-2.38,5.75,5.75,0,0,1,3.18-.84,20.89,20.89,0,0,1,3.69.43v2.24A19.55,19.55,0,0,0,658.92,455.84Z"/><path class="cls-3" d="M677.77,455.84a5.07,5.07,0,0,0-3.77,1.35,5.77,5.77,0,0,0-1.13,1.54,6.32,6.32,0,0,0-.6,1.81q-.16,1-.21,1.53t0,1.41v9.29h-2.36V453.93H672v2.92h.18a8.41,8.41,0,0,1,2.38-2.38,5.75,5.75,0,0,1,3.18-.84,20.69,20.69,0,0,1,3.68.43v2.24A19.37,19.37,0,0,0,677.77,455.84Z"/><path class="cls-3" d="M695,453.63a7.37,7.37,0,0,1,2.77.49,4,4,0,0,1,2,1.85,6.34,6.34,0,0,1,.55,3v13.78h-2.35v-2.26h-.19a5.5,5.5,0,0,1-4.6,2.56,5.34,5.34,0,0,1-2.15-.54,4.6,4.6,0,0,1-2-1.71,6.32,6.32,0,0,1-1.08-3.59,5.78,5.78,0,0,1,1.62-4.27,5.72,5.72,0,0,1,1.25-.93,4.4,4.4,0,0,1,1.39-.51,11,11,0,0,1,1.14-.17l1,0h3.57v-2.25a4.82,4.82,0,0,0-.33-2.17,2,2,0,0,0-.89-.8,4.28,4.28,0,0,0-1.72-.27,32.13,32.13,0,0,0-5.31.54v-2.25A34.49,34.49,0,0,1,695,453.63Zm2.94,9.72h-3.61a9.93,9.93,0,0,0-1.06,0,3.46,3.46,0,0,0-.94.26,3.17,3.17,0,0,0-1,.69,4,4,0,0,0-1,2.86,3.79,3.79,0,0,0,.93,2.59,3,3,0,0,0,2.39,1.07,4.4,4.4,0,0,0,2.44-.67,3.73,3.73,0,0,0,1.49-1.74,9.85,9.85,0,0,0,.41-3.42Z"/><path class="cls-3" d="M713.84,470.66q1.92-6.53,3.85-16.73h2.41q-1.1,5.74-2.18,10.25t-2.81,9.94a22,22,0,0,1-1.08,2.81,5.05,5.05,0,0,1-1.31,1.75c-1.16,1-2.94,1.45-5.36,1.45v-2.2a6.27,6.27,0,0,0,3.63-.76,2.87,2.87,0,0,0,.77-1,9.13,9.13,0,0,0,.56-1.21c.14-.38.4-1.12.78-2.23h-.93a56.15,56.15,0,0,1-3.33-8.72q-1.33-4.57-2.44-10.12h2.42a78,78,0,0,0,4.84,16.73Z"/><path class="cls-3" d="M728.56,444.51H738v2.2h-7.06v26.21H738v2.21h-9.42Z"/><path class="cls-3" d="M756.83,472.42a11.76,11.76,0,0,1-3.72.65,5.44,5.44,0,0,1-4.45-2,4.81,4.81,0,0,1-.89-1.64,7.3,7.3,0,0,1-.33-1.56c0-.42,0-1,0-1.73v-9.9H742.7v-2.32h4.71v-4.71h2.35v4.71h7.07v2.32h-7.07V466c0,.68,0,1.18,0,1.51a5.45,5.45,0,0,0,.21,1.14,3.21,3.21,0,0,0,.55,1.11,3.4,3.4,0,0,0,2.75,1.14,9.67,9.67,0,0,0,3.53-.79Z"/><path class="cls-3" d="M765.66,463.35c0,.84,0,1.48,0,1.92a13.81,13.81,0,0,0,.16,1.61,6.25,6.25,0,0,0,.41,1.57,3.74,3.74,0,0,0,3.72,2.41,23.89,23.89,0,0,0,5.7-.81v2.26a24,24,0,0,1-5.7.76,6.09,6.09,0,0,1-5.93-3.85,8.42,8.42,0,0,1-.6-2.48c-.09-.89-.13-2-.13-3.39s0-2.48.13-3.35a8.58,8.58,0,0,1,.6-2.48,6.31,6.31,0,0,1,2.17-2.8,6.41,6.41,0,0,1,7.15,0,6.31,6.31,0,0,1,2.17,2.8,8.58,8.58,0,0,1,.6,2.48c.09.87.13,2,.13,3.35Zm8.19-2.21a9.32,9.32,0,0,0-.53-2.89,3.8,3.8,0,0,0-7.07,0,9.32,9.32,0,0,0-.53,2.89Z"/><path class="cls-3" d="M785.65,453.63a3.58,3.58,0,0,1,2,.57,4.12,4.12,0,0,1,1.39,1.48,4.54,4.54,0,0,1,3.69-2.05,3.79,3.79,0,0,1,3.21,1.59,4.53,4.53,0,0,1,.66,1.34,6.15,6.15,0,0,1,.26,1.26c0,.35,0,.86,0,1.52v13.43h-2.35V459.34c0-.53,0-.91,0-1.16a3.48,3.48,0,0,0-.15-.83,1.77,1.77,0,0,0-.38-.75,2.28,2.28,0,0,0-1.81-.76,2.25,2.25,0,0,0-1.8.76,1.9,1.9,0,0,0-.39.75,4,4,0,0,0-.14.83c0,.25,0,.63,0,1.16v13.43h-2.36V459.34c0-.53,0-.91,0-1.16a4,4,0,0,0-.14-.83,1.9,1.9,0,0,0-.39-.75,2.52,2.52,0,0,0-3.61,0,1.77,1.77,0,0,0-.38.75,3.48,3.48,0,0,0-.15.83c0,.25,0,.63,0,1.16v13.43h-2.36V453.93h2.36v1.38h.18A3.29,3.29,0,0,1,785.65,453.63Z"/><path class="cls-3" d="M808.14,473.07q-2.35,0-4-2.6h-.18v9.37h-2.36V453.93h2.36v2.3h.18q1.67-2.6,4-2.6a5.06,5.06,0,0,1,3.24,1.15,6.55,6.55,0,0,1,2.06,3.22,9.93,9.93,0,0,1,.36,1.73,16,16,0,0,1,.13,1.62c0,.45,0,1.12,0,2s0,1.55,0,2a16.18,16.18,0,0,1-.13,1.63,10.34,10.34,0,0,1-.36,1.73,6.57,6.57,0,0,1-2.06,3.21A5.06,5.06,0,0,1,808.14,473.07Zm-2.46-3a3.13,3.13,0,0,0,4.18,0,4.76,4.76,0,0,0,1.26-2,23.35,23.35,0,0,0,0-9.42,4.82,4.82,0,0,0-1.26-2,3.13,3.13,0,0,0-4.18,0,4.82,4.82,0,0,0-1.26,2,23.35,23.35,0,0,0,0,9.42A4.76,4.76,0,0,0,805.68,470.06Z"/><path class="cls-3" d="M829.85,444.51v30.62h-9.42v-2.21h7.07V446.71h-7.07v-2.2Z"/><path class="cls-3" d="M841.08,476.69c.37-.52.64-.92.81-1.19a10.68,10.68,0,0,0,.61-1.2,3.5,3.5,0,0,0,.34-1.36,5.6,5.6,0,0,0-.75-2.42,5.7,5.7,0,0,1-.75-2.46,2.56,2.56,0,0,1,.75-1.91,2.6,2.6,0,0,1,1.9-.74,2.47,2.47,0,0,1,1.89.82,3.47,3.47,0,0,1,.76,2.42,12.37,12.37,0,0,1-1,5,19.29,19.29,0,0,1-2.72,4.36Zm1-22.32a2.88,2.88,0,1,1-.73,1.91A2.6,2.6,0,0,1,842.07,454.37Z"/><path class="cls-3" d="M241.47,493.21a4.45,4.45,0,0,1,2.3.63,4.54,4.54,0,0,1,1.71,2h.19v-9.36H248v25.91h-2.35v-2.3h-.19a4.54,4.54,0,0,1-1.71,2,4.45,4.45,0,0,1-2.3.63,5,5,0,0,1-3.24-1.15,6.52,6.52,0,0,1-2.06-3.21,9.93,9.93,0,0,1-.36-1.73c-.08-.64-.12-1.18-.14-1.63s0-1.11,0-2,0-1.55,0-2,.06-1,.14-1.63a10.13,10.13,0,0,1,.36-1.73,6.57,6.57,0,0,1,2.06-3.21A5,5,0,0,1,241.47,493.21Zm2.46,3a3.13,3.13,0,0,0-4.18,0,4.78,4.78,0,0,0-1.26,2,23.4,23.4,0,0,0,0,9.43,4.78,4.78,0,0,0,1.26,2,3.13,3.13,0,0,0,4.18,0,4.78,4.78,0,0,0,1.26-2,23.4,23.4,0,0,0,0-9.43A4.78,4.78,0,0,0,243.93,496.22Z"/><path class="cls-3" d="M256.85,502.93c0,.83,0,1.47,0,1.92s.07,1,.16,1.61a6.16,6.16,0,0,0,.41,1.56,3.74,3.74,0,0,0,3.72,2.41,23.9,23.9,0,0,0,5.71-.81v2.27a24.57,24.57,0,0,1-5.71.75,6.24,6.24,0,0,1-3.72-1.07,6.17,6.17,0,0,1-2.2-2.77,8.57,8.57,0,0,1-.61-2.49c-.09-.88-.13-2-.13-3.38s0-2.48.13-3.35a8.74,8.74,0,0,1,.61-2.49,6.28,6.28,0,0,1,2.16-2.8,6.47,6.47,0,0,1,7.16,0,6.35,6.35,0,0,1,2.16,2.8,9.08,9.08,0,0,1,.61,2.49c.08.87.13,2,.13,3.35Zm8.19-2.21a9,9,0,0,0-.53-2.89,3.8,3.8,0,0,0-7.07,0,9.26,9.26,0,0,0-.53,2.89Z"/><path class="cls-3" d="M285.71,512.38a15.6,15.6,0,0,1-2.54.26,4.17,4.17,0,0,1-4.12-2.75,5.63,5.63,0,0,1-.36-1.36c0-.34-.05-.78-.05-1.32V488.64h-4.71v-2.2H281v20.77c0,.38,0,.68,0,.89a3.57,3.57,0,0,0,.14.75,2.28,2.28,0,0,0,.36.77,2.14,2.14,0,0,0,1.84.81,13.55,13.55,0,0,0,2.35-.31Z"/><path class="cls-3" d="M299.26,493.21a7.17,7.17,0,0,1,2.77.49,4,4,0,0,1,2,1.85,6.28,6.28,0,0,1,.56,3v13.79H302.2v-2.27H302a5.19,5.19,0,0,1-6.76,2,4.73,4.73,0,0,1-2-1.71,6.34,6.34,0,0,1-1.08-3.59,5.77,5.77,0,0,1,1.62-4.27,6.11,6.11,0,0,1,1.25-.94,4.65,4.65,0,0,1,1.39-.51,10.45,10.45,0,0,1,1.14-.16c.28,0,.62,0,1,0h3.57v-2.24a4.87,4.87,0,0,0-.33-2.18,2,2,0,0,0-.89-.8,4.46,4.46,0,0,0-1.72-.26,31.78,31.78,0,0,0-5.3.53v-2.24A33.07,33.07,0,0,1,299.26,493.21Zm2.94,9.72h-3.61c-.45,0-.8,0-1.06,0a4,4,0,0,0-.94.27,2.88,2.88,0,0,0-1,.69,4,4,0,0,0-1,2.85,3.84,3.84,0,0,0,.93,2.6,3,3,0,0,0,2.39,1.06,4.4,4.4,0,0,0,2.44-.67,3.73,3.73,0,0,0,1.49-1.74,9.81,9.81,0,0,0,.41-3.42Z"/><path class="cls-3" d="M318.1,510.23Q320,503.72,322,493.5h2.41q-1.1,5.75-2.17,10.25t-2.82,9.94a20.8,20.8,0,0,1-1.08,2.82,5,5,0,0,1-1.31,1.74c-1.16,1-2.94,1.46-5.36,1.46V517.5a6.28,6.28,0,0,0,3.63-.75,2.87,2.87,0,0,0,.77-1,9.85,9.85,0,0,0,.56-1.22q.21-.57.78-2.22h-.93a56.27,56.27,0,0,1-3.33-8.73q-1.34-4.58-2.43-10.12h2.41a77.82,77.82,0,0,0,4.84,16.73Z"/><path class="cls-3" d="M330.47,512.35h-2.36V486.44h2.36L336.26,498h.21l5.78-11.55h2.35v25.91h-2.35V491.18h-.19l-4.69,9.39h-2l-4.69-9.39h-.18Z"/><path class="cls-3" d="M349.31,512.35v-2.21H354V495.71h-4.71V493.5h7.07v16.64h4.71v2.21Zm3.81-25.64a2.23,2.23,0,1,1-.57,1.49A2,2,0,0,1,353.12,486.71Z"/><path class="cls-3" d="M367.71,506.31a41,41,0,0,1,0-6.77,8.31,8.31,0,0,1,.65-2.49c1.12-2.56,3.19-3.84,6.24-3.84a20.39,20.39,0,0,1,5,.68v2.26a19,19,0,0,0-5-.73,4.66,4.66,0,0,0-2.51.59,4.34,4.34,0,0,0-1.52,1.82,5.69,5.69,0,0,0-.45,1.56,11,11,0,0,0-.18,1.61c0,.45,0,1.09,0,1.93s0,1.47,0,1.92a11,11,0,0,0,.18,1.61,5.69,5.69,0,0,0,.45,1.56,4.34,4.34,0,0,0,1.52,1.82,4.66,4.66,0,0,0,2.51.59,20.69,20.69,0,0,0,5.33-.81v2.27a21.15,21.15,0,0,1-5.33.75c-3.05,0-5.12-1.28-6.24-3.84A8.31,8.31,0,0,1,367.71,506.31Z"/><path class="cls-3" d="M395.1,495.42a5.07,5.07,0,0,0-3.77,1.34,6.08,6.08,0,0,0-1.14,1.55,6.41,6.41,0,0,0-.59,1.81q-.17,1-.21,1.53c0,.37,0,.84,0,1.4v9.3H387V493.5h2.36v2.93h.18a8.28,8.28,0,0,1,2.38-2.38,5.75,5.75,0,0,1,3.18-.84,20.64,20.64,0,0,1,3.68.42v2.25A18.67,18.67,0,0,0,395.1,495.42Z"/><path class="cls-3" d="M411.73,493.21a8.17,8.17,0,0,1,.91.05,6.35,6.35,0,0,1,.88.19,5.36,5.36,0,0,1,.83.29,5.65,5.65,0,0,1,.7.39,7.68,7.68,0,0,1,.64.46,4.2,4.2,0,0,1,.57.55c.16.18.32.39.48.61s.28.42.41.64.23.47.33.7.13.37.2.59.12.41.16.59.1.41.13.61.06.36.1.64.06.49.07.64,0,.4,0,.65c0,.09,0,.2,0,.36v.34c0,.38,0,.62,0,.72v1.39c0,.1,0,.34,0,.72v.34c0,.16,0,.28,0,.36,0,.25,0,.46,0,.65s0,.37-.07.64-.07.5-.1.64-.08.4-.13.61-.1.38-.16.59-.14.42-.2.59-.21.47-.33.7-.26.43-.41.64-.32.43-.48.61a4.2,4.2,0,0,1-.57.55,7.68,7.68,0,0,1-.64.46,5.65,5.65,0,0,1-.7.39,5.36,5.36,0,0,1-.83.29,6.35,6.35,0,0,1-.88.19,8.22,8.22,0,0,1-1.81,0,6.35,6.35,0,0,1-.88-.19,5.36,5.36,0,0,1-.83-.29,5.65,5.65,0,0,1-.7-.39,7.68,7.68,0,0,1-.64-.46,4.2,4.2,0,0,1-.57-.55c-.16-.18-.32-.39-.48-.61s-.28-.42-.41-.64-.23-.47-.33-.7-.13-.37-.2-.59-.12-.4-.17-.59-.09-.41-.12-.61-.06-.36-.1-.64-.06-.48-.07-.64,0-.4,0-.65c0-.08,0-.2,0-.36v-.34c0-.38,0-.62,0-.72v-1.39c0-.1,0-.34,0-.72v-.34c0-.16,0-.27,0-.36,0-.25,0-.46,0-.65s0-.37.07-.64.07-.5.1-.64.08-.4.12-.61l.17-.59c.07-.22.14-.42.2-.59s.21-.46.33-.7.26-.43.41-.64.32-.43.48-.61a4.2,4.2,0,0,1,.57-.55,7.68,7.68,0,0,1,.64-.46,5.65,5.65,0,0,1,.7-.39,5.36,5.36,0,0,1,.83-.29,6.35,6.35,0,0,1,.88-.19A8.12,8.12,0,0,1,411.73,493.21Zm.54,2.24-.54,0-.53,0-.51.1a2.77,2.77,0,0,0-.94.38,2.61,2.61,0,0,0-.41.28,3.8,3.8,0,0,0-.35.35l-.31.38c-.09.13-.17.27-.26.43a3.25,3.25,0,0,0-.22.46,4.09,4.09,0,0,0-.18.49c0,.16-.09.33-.13.5a3.74,3.74,0,0,0-.09.52c0,.14-.05.33-.08.57s0,.43-.05.59,0,.3,0,.58,0,.39,0,.61,0,.48,0,.63v1.21c0,.15,0,.36,0,.63s0,.42,0,.61,0,.47,0,.58,0,.36.05.59,0,.43.08.57a3.74,3.74,0,0,0,.09.52c0,.17.08.34.13.5a4.09,4.09,0,0,0,.18.49,3.25,3.25,0,0,0,.22.46c.09.16.17.3.26.43l.31.38a3.8,3.8,0,0,0,.35.35,2.61,2.61,0,0,0,.41.28,2.77,2.77,0,0,0,.94.38l.51.1.53,0,.54,0,.51-.1a2.77,2.77,0,0,0,.94-.38,2.61,2.61,0,0,0,.41-.28,3.8,3.8,0,0,0,.35-.35l.31-.38c.09-.13.17-.27.26-.43a3.25,3.25,0,0,0,.22-.46,4.09,4.09,0,0,0,.18-.49c.05-.16.09-.33.13-.5a3.74,3.74,0,0,0,.09-.52c0-.14.05-.33.08-.57s0-.43.05-.59,0-.3,0-.58,0-.39,0-.61,0-.48,0-.63v-1.21c0-.15,0-.36,0-.63s0-.42,0-.61,0-.47,0-.58,0-.36-.05-.59-.05-.43-.08-.57a3.74,3.74,0,0,0-.09-.52c0-.17-.08-.34-.13-.5a4.09,4.09,0,0,0-.18-.49,3.25,3.25,0,0,0-.22-.46c-.09-.16-.17-.3-.26-.43l-.31-.38a3.8,3.8,0,0,0-.35-.35,2.61,2.61,0,0,0-.41-.28,2.77,2.77,0,0,0-.94-.38Z"/><path class="cls-3" d="M430.41,512.64a29.64,29.64,0,0,1-5.72-.77v-2.26a26.13,26.13,0,0,0,5.72.82,5.92,5.92,0,0,0,1.77-.24,3.53,3.53,0,0,0,1.24-.65,3.33,3.33,0,0,0,.77-.91,3.67,3.67,0,0,0,.4-1,3.93,3.93,0,0,0,.11-1,3.59,3.59,0,0,0-.5-1.9,3.37,3.37,0,0,0-1.34-1.23,7.89,7.89,0,0,0-2.69-.6,10.18,10.18,0,0,1-2.79-.54,5.28,5.28,0,0,1-2.19-1.62,4,4,0,0,1-.9-2.63,4.57,4.57,0,0,1,1.62-3.46,6.59,6.59,0,0,1,4.6-1.49,23.44,23.44,0,0,1,5.77.94v2.26a25.08,25.08,0,0,0-5.77-1,4.25,4.25,0,0,0-2.94.85,2.53,2.53,0,0,0-.93,1.89,2.06,2.06,0,0,0,.46,1.34,2.83,2.83,0,0,0,1.16.85,12.42,12.42,0,0,0,2.67.48,8.66,8.66,0,0,1,3.07.77,5.6,5.6,0,0,1,2.21,2,5.54,5.54,0,0,1,.85,3.05,5.73,5.73,0,0,1-.43,2.21,5.92,5.92,0,0,1-1.21,1.89,5.54,5.54,0,0,1-2.09,1.36A8.13,8.13,0,0,1,430.41,512.64Z"/><path class="cls-3" d="M445.3,502.93c0,.83,0,1.47,0,1.92a12.08,12.08,0,0,0,.16,1.61,6.16,6.16,0,0,0,.41,1.56,3.74,3.74,0,0,0,3.72,2.41,23.89,23.89,0,0,0,5.7-.81v2.27a24.43,24.43,0,0,1-5.7.75,6.1,6.1,0,0,1-5.93-3.84,8.56,8.56,0,0,1-.6-2.49c-.09-.88-.13-2-.13-3.38s0-2.48.13-3.35a8.72,8.72,0,0,1,.6-2.49,6.37,6.37,0,0,1,2.17-2.8,6.46,6.46,0,0,1,7.15,0,6.37,6.37,0,0,1,2.17,2.8,9.07,9.07,0,0,1,.6,2.49c.09.87.13,2,.13,3.35Zm8.19-2.21a9.26,9.26,0,0,0-.53-2.89,3.8,3.8,0,0,0-7.07,0,9.26,9.26,0,0,0-.53,2.89Z"/><path class="cls-3" d="M461.93,506.31c-.09-.88-.14-2-.14-3.38s0-2.51.14-3.39a8.31,8.31,0,0,1,.65-2.49q1.68-3.84,6.24-3.84a20.39,20.39,0,0,1,5,.68v2.26a18.91,18.91,0,0,0-5-.73,4.68,4.68,0,0,0-2.51.59,4.34,4.34,0,0,0-1.52,1.82,5.69,5.69,0,0,0-.45,1.56,12.29,12.29,0,0,0-.17,1.61c0,.45,0,1.09,0,1.93s0,1.47,0,1.92a12.29,12.29,0,0,0,.17,1.61,5.69,5.69,0,0,0,.45,1.56,4.34,4.34,0,0,0,1.52,1.82,4.68,4.68,0,0,0,2.51.59,20.76,20.76,0,0,0,5.34-.81v2.27a21.22,21.22,0,0,1-5.34.75q-4.56,0-6.24-3.84A8.31,8.31,0,0,1,461.93,506.31Z"/><path class="cls-3" d="M487.11,493.21a8.17,8.17,0,0,1,.91.05,6.35,6.35,0,0,1,.88.19,5.36,5.36,0,0,1,.83.29,5.65,5.65,0,0,1,.7.39,7.68,7.68,0,0,1,.64.46,4.2,4.2,0,0,1,.57.55c.16.18.32.39.48.61a6.18,6.18,0,0,1,.4.64c.13.24.24.47.34.7s.12.37.2.59.11.41.16.59.1.41.13.61.06.36.09.64.07.49.08.64,0,.4,0,.65v.36c0,.15,0,.26,0,.34,0,.38,0,.62,0,.72v1.39c0,.1,0,.34,0,.72,0,.08,0,.19,0,.34V505c0,.25,0,.46,0,.65s0,.37-.08.64-.06.5-.09.64-.08.4-.13.61-.1.38-.16.59-.14.42-.2.59a7.48,7.48,0,0,1-.34.7,6.18,6.18,0,0,1-.4.64c-.16.22-.32.43-.48.61a4.2,4.2,0,0,1-.57.55,7.68,7.68,0,0,1-.64.46,5.65,5.65,0,0,1-.7.39,5.36,5.36,0,0,1-.83.29,6.35,6.35,0,0,1-.88.19,8.22,8.22,0,0,1-1.81,0,6.35,6.35,0,0,1-.88-.19,5.36,5.36,0,0,1-.83-.29,5.65,5.65,0,0,1-.7-.39,7.68,7.68,0,0,1-.64-.46,4.2,4.2,0,0,1-.57-.55c-.16-.18-.32-.39-.48-.61s-.28-.42-.41-.64-.23-.47-.33-.7-.13-.37-.2-.59-.12-.4-.17-.59-.09-.41-.12-.61-.06-.36-.1-.64-.06-.48-.07-.64,0-.4,0-.65c0-.08,0-.2,0-.36s0-.26,0-.34c0-.38,0-.62,0-.72v-1.39c0-.1,0-.34,0-.72,0-.08,0-.19,0-.34s0-.27,0-.36c0-.25,0-.46,0-.65s0-.37.07-.64.07-.5.1-.64.08-.4.12-.61l.17-.59c.07-.22.14-.42.2-.59s.21-.46.33-.7.26-.43.41-.64.32-.43.48-.61a4.2,4.2,0,0,1,.57-.55,7.68,7.68,0,0,1,.64-.46,5.65,5.65,0,0,1,.7-.39,5.36,5.36,0,0,1,.83-.29,6.35,6.35,0,0,1,.88-.19A8.12,8.12,0,0,1,487.11,493.21Zm.54,2.24-.54,0-.53,0-.52.1a3.07,3.07,0,0,0-.51.16,2.89,2.89,0,0,0-.42.22,2.21,2.21,0,0,0-.41.28,3.8,3.8,0,0,0-.35.35c-.12.15-.23.27-.31.38s-.17.27-.26.43a3.25,3.25,0,0,0-.22.46,5.32,5.32,0,0,0-.31,1,3.74,3.74,0,0,0-.09.52c0,.14-.05.33-.08.57s0,.43-.05.59a4.14,4.14,0,0,0,0,.58c0,.19,0,.39,0,.61s0,.48,0,.63v1.21c0,.15,0,.36,0,.63s0,.42,0,.61a4.14,4.14,0,0,0,0,.58c0,.16,0,.36.05.59s0,.43.08.57a3.74,3.74,0,0,0,.09.52,5.32,5.32,0,0,0,.31,1,3.25,3.25,0,0,0,.22.46c.09.16.17.3.26.43s.19.24.31.38a3.8,3.8,0,0,0,.35.35,2.21,2.21,0,0,0,.41.28,2.89,2.89,0,0,0,.42.22,3.07,3.07,0,0,0,.51.16l.52.1.53,0,.54,0,.51-.1a2.77,2.77,0,0,0,.94-.38,2.61,2.61,0,0,0,.41-.28c.09-.08.21-.2.35-.35l.31-.38c.08-.13.17-.27.26-.43a3.25,3.25,0,0,0,.22-.46,4.09,4.09,0,0,0,.18-.49c.05-.16.09-.33.13-.5a3.74,3.74,0,0,0,.09-.52c0-.14.05-.33.08-.57s0-.43.05-.59,0-.3,0-.58,0-.39,0-.61,0-.48,0-.63v-1.21c0-.15,0-.36,0-.63s0-.42,0-.61,0-.47,0-.58,0-.36-.05-.59-.05-.43-.08-.57a3.74,3.74,0,0,0-.09-.52c0-.17-.08-.34-.13-.5a4.09,4.09,0,0,0-.18-.49,3.25,3.25,0,0,0-.22-.46c-.09-.16-.18-.3-.26-.43l-.31-.38-.35-.35a2.61,2.61,0,0,0-.41-.28,2.77,2.77,0,0,0-.94-.38Z"/><path class="cls-3" d="M506.33,493.21a5.61,5.61,0,0,1,2.43.53,5.29,5.29,0,0,1,1.82,1.44,5.47,5.47,0,0,1,.73,1.18,4.64,4.64,0,0,1,.38,1.34c.07.49.11.89.13,1.21s0,.77,0,1.35v12.09h-2.36V500.26c0-.68,0-1.18,0-1.51a4.32,4.32,0,0,0-.22-1.12,3,3,0,0,0-.58-1.07,3.39,3.39,0,0,0-2.7-1.14,3.43,3.43,0,0,0-2.71,1.14,3.15,3.15,0,0,0-.58,1.07,4.79,4.79,0,0,0-.22,1.12c0,.33,0,.83,0,1.51v12.09h-2.36V493.5h2.36v2.06h.18a5.49,5.49,0,0,1,1.68-1.71A3.73,3.73,0,0,1,506.33,493.21Z"/><path class="cls-3" d="M524.14,493.21a4.45,4.45,0,0,1,2.3.63,4.54,4.54,0,0,1,1.71,2h.19v-9.36h2.35v25.91h-2.35v-2.3h-.19a4.54,4.54,0,0,1-1.71,2,4.45,4.45,0,0,1-2.3.63,5,5,0,0,1-3.24-1.15,6.52,6.52,0,0,1-2.06-3.21,9.93,9.93,0,0,1-.36-1.73c-.08-.64-.12-1.18-.14-1.63s0-1.11,0-2,0-1.55,0-2,.06-1,.14-1.63a10.13,10.13,0,0,1,.36-1.73,6.57,6.57,0,0,1,2.06-3.21A5,5,0,0,1,524.14,493.21Zm2.46,3a3.13,3.13,0,0,0-4.18,0,4.78,4.78,0,0,0-1.26,2,23.4,23.4,0,0,0,0,9.43,4.78,4.78,0,0,0,1.26,2,3.13,3.13,0,0,0,4.18,0,4.78,4.78,0,0,0,1.26-2,23.4,23.4,0,0,0,0-9.43A4.78,4.78,0,0,0,526.6,496.22Z"/><path class="cls-3" d="M543.48,512.64a29.54,29.54,0,0,1-5.72-.77v-2.26a26.13,26.13,0,0,0,5.72.82,6,6,0,0,0,1.77-.24,3.62,3.62,0,0,0,1.24-.65,3.29,3.29,0,0,0,.76-.91,3.42,3.42,0,0,0,.41-1,4.49,4.49,0,0,0,.11-1,3.51,3.51,0,0,0-.51-1.9,3.28,3.28,0,0,0-1.33-1.23,8,8,0,0,0-2.69-.6,10.18,10.18,0,0,1-2.79-.54,5.28,5.28,0,0,1-2.19-1.62,4,4,0,0,1-.91-2.63A4.58,4.58,0,0,1,539,494.7a6.58,6.58,0,0,1,4.59-1.49,23.51,23.51,0,0,1,5.78.94v2.26a25.14,25.14,0,0,0-5.78-1,4.24,4.24,0,0,0-2.93.85,2.53,2.53,0,0,0-.93,1.89,2.06,2.06,0,0,0,.46,1.34,2.83,2.83,0,0,0,1.16.85,12.29,12.29,0,0,0,2.67.48,8.72,8.72,0,0,1,3.07.77,5.62,5.62,0,0,1,3.06,5.08,6,6,0,0,1-1.64,4.1,5.62,5.62,0,0,1-2.09,1.36A8.17,8.17,0,0,1,543.48,512.64Z"/><path class="cls-3" d="M567.24,514.7h-3.09a24.05,24.05,0,0,1-4.16-7.18,23.13,23.13,0,0,1,0-16.23,24.33,24.33,0,0,1,4.16-7.21h3.09a21.77,21.77,0,0,0-4.68,7.06,21,21,0,0,0,0,16.52A21.79,21.79,0,0,0,567.24,514.7Z"/><path class="cls-3" d="M575.45,509.4a20.3,20.3,0,0,0,5.78,1,6.07,6.07,0,0,0,1.68-.21,2.58,2.58,0,0,0,1.18-.67,4.65,4.65,0,0,0,.73-1,4,4,0,0,0,.43-1.32,12.23,12.23,0,0,0,.17-1.48c0-.46,0-1,0-1.7a13.36,13.36,0,0,0-.37-3.93,3.38,3.38,0,0,0-3.46-2.38,4.9,4.9,0,0,0-4,2l-2.15-.63V486.44h11.78v2.2H577.8v9.06H578a7.49,7.49,0,0,1,1.84-1.59,4.21,4.21,0,0,1,2.17-.55,5.38,5.38,0,0,1,4.66,2.41,5.84,5.84,0,0,1,.8,1.86,11.46,11.46,0,0,1,.31,1.92c0,.55.05,1.34.05,2.37a22,22,0,0,1-.24,3.53,5.73,5.73,0,0,1-3.09,4.34,7.22,7.22,0,0,1-3.26.65,22.63,22.63,0,0,1-5.78-.94Z"/><path class="cls-3" d="M600.18,486.1c2.48,0,4.22,1.34,5.23,4a11.27,11.27,0,0,1,.5,2.48c.11,1.06.17,2,.19,2.88s0,2.18,0,3.93,0,3.07,0,3.93-.08,1.83-.19,2.88a11.38,11.38,0,0,1-.5,2.49q-1.51,4-5.23,4t-5.22-4a10.81,10.81,0,0,1-.5-2.49c-.11-1.05-.18-2-.19-2.88s0-2.17,0-3.93,0-3.06,0-3.93.08-1.82.19-2.88a10.71,10.71,0,0,1,.5-2.48C596,487.44,597.7,486.1,600.18,486.1Zm2,3.08a2.83,2.83,0,0,0-3.92,0,5.2,5.2,0,0,0-1.2,2.11,9.32,9.32,0,0,0-.35,2.13c-.08.94-.12,1.79-.13,2.55s0,1.9,0,3.42,0,2.66,0,3.42.05,1.62.13,2.55a9.32,9.32,0,0,0,.35,2.13,5.24,5.24,0,0,0,1.2,2.12,2.83,2.83,0,0,0,3.92,0,5.26,5.26,0,0,0,1.21-2.12,9.91,9.91,0,0,0,.35-2.13c.07-.93.11-1.78.13-2.55s0-1.9,0-3.42,0-2.66,0-3.42-.06-1.61-.13-2.55a9.91,9.91,0,0,0-.35-2.13A5.21,5.21,0,0,0,602.14,489.18Zm-3.14,9h2.36v2.36H599Z"/><path class="cls-3" d="M619,486.1c2.47,0,4.22,1.34,5.22,4a10.71,10.71,0,0,1,.5,2.48c.11,1.06.17,2,.19,2.88s0,2.18,0,3.93,0,3.07,0,3.93-.08,1.83-.19,2.88a10.81,10.81,0,0,1-.5,2.49c-1,2.66-2.75,4-5.22,4s-4.22-1.33-5.23-4a10.81,10.81,0,0,1-.5-2.49c-.11-1.05-.17-2-.19-2.88s0-2.17,0-3.93,0-3.06,0-3.93.08-1.82.19-2.88a10.71,10.71,0,0,1,.5-2.48C614.81,487.44,616.55,486.1,619,486.1Zm2,3.08a2.65,2.65,0,0,0-2-.79,2.62,2.62,0,0,0-2,.79,5.21,5.21,0,0,0-1.21,2.11,9.91,9.91,0,0,0-.35,2.13c-.07.94-.11,1.79-.13,2.55s0,1.9,0,3.42,0,2.66,0,3.42.06,1.62.13,2.55a9.91,9.91,0,0,0,.35,2.13,5.26,5.26,0,0,0,1.21,2.12,2.66,2.66,0,0,0,2,.79,2.69,2.69,0,0,0,2-.79,5.24,5.24,0,0,0,1.2-2.12,9.32,9.32,0,0,0,.35-2.13c.08-.93.12-1.78.13-2.55s0-1.9,0-3.42,0-2.66,0-3.42,0-1.61-.13-2.55a9.32,9.32,0,0,0-.35-2.13A5.2,5.2,0,0,0,621,489.18Zm-3.14,9h2.36v2.36h-2.36Z"/><path class="cls-3" d="M633.12,514.7a22,22,0,0,0,4.69-7,21.15,21.15,0,0,0,0-16.52,22,22,0,0,0-4.69-7.06h3.1a24.55,24.55,0,0,1,4.16,7.21,23.13,23.13,0,0,1,0,16.23,24.27,24.27,0,0,1-4.16,7.18Z"/><path class="cls-3" d="M652.63,516.27q.55-.79.81-1.2a11.29,11.29,0,0,0,.61-1.19,3.58,3.58,0,0,0,.35-1.37,5.58,5.58,0,0,0-.76-2.42,5.63,5.63,0,0,1-.75-2.45,2.57,2.57,0,0,1,.75-1.92,2.63,2.63,0,0,1,1.9-.73,2.44,2.44,0,0,1,1.89.82,3.41,3.41,0,0,1,.76,2.42,12.32,12.32,0,0,1-1,5,19.48,19.48,0,0,1-2.73,4.36Zm1-22.33a2.88,2.88,0,1,1-.73,1.92A2.61,2.61,0,0,1,653.62,493.94Z"/><path class="cls-2" d="M389.36,551.92H387V526h5.91a16.46,16.46,0,0,1,3.38.24,6.4,6.4,0,0,1,3.7,2.36,7.64,7.64,0,0,1,0,8.93,6.4,6.4,0,0,1-3.7,2.36,16.46,16.46,0,0,1-3.38.24h-3.55Zm3.55-14a14.83,14.83,0,0,0,2.8-.19,4,4,0,0,0,2.43-1.59,5.58,5.58,0,0,0,0-6.17,4,4,0,0,0-2.43-1.59,15.05,15.05,0,0,0-2.8-.18h-3.55v9.72Z"/><path class="cls-2" d="M403.2,539a29.14,29.14,0,0,1,.51-6.43,9.8,9.8,0,0,1,2.78-4.9,8.12,8.12,0,0,1,10.49,0,9.8,9.8,0,0,1,2.78,4.9,40.73,40.73,0,0,1,0,12.85,9.76,9.76,0,0,1-2.78,4.9,8.09,8.09,0,0,1-10.49,0,9.76,9.76,0,0,1-2.78-4.9A29,29,0,0,1,403.2,539Zm2.35,0a28.21,28.21,0,0,0,.46,5.92,7.68,7.68,0,0,0,2,3.68,5.59,5.59,0,0,0,7.49,0,7.68,7.68,0,0,0,2-3.68,38.39,38.39,0,0,0,0-11.85,7.73,7.73,0,0,0-2-3.68,5.59,5.59,0,0,0-7.49,0,7.73,7.73,0,0,0-2,3.68A28.26,28.26,0,0,0,405.55,539Z"/><path class="cls-2" d="M424.69,551.92h-2.36V526h5.91a16.57,16.57,0,0,1,3.39.24,6.43,6.43,0,0,1,3.7,2.36,7.06,7.06,0,0,1,1.43,4.47,7.17,7.17,0,0,1-1.14,4,6.4,6.4,0,0,1-3,2.47l4.62,12.33h-2.46l-4.46-11.81c-.4,0-1.09,0-2.06,0h-3.55Zm3.55-14a14.68,14.68,0,0,0,2.8-.19,4,4,0,0,0,2.44-1.59,5.58,5.58,0,0,0,0-6.17A4,4,0,0,0,431,528.4a14.91,14.91,0,0,0-2.8-.18h-3.55v9.72Z"/><path class="cls-2" d="M457.67,526v2.21H450.6v23.7h-2.35v-23.7h-7.07V526Z"/><path class="cls-2" d="M466.94,526a9.87,9.87,0,0,1,5.58,1.67,9.46,9.46,0,0,1,3.75,5.69,22.87,22.87,0,0,1,.54,5.6,23.41,23.41,0,0,1-.54,5.59,9.61,9.61,0,0,1-3.75,5.69,9.38,9.38,0,0,1-5.58,1.67H460V526Zm0,23.7a7,7,0,0,0,6-2.9,8.29,8.29,0,0,0,1.21-3.21,28.21,28.21,0,0,0,.31-4.63,22,22,0,0,0-.48-5.12,7.67,7.67,0,0,0-2.37-4.1,6.83,6.83,0,0,0-4.66-1.53h-4.56v21.49Z"/><path class="cls-3" d="M497.71,533.15H514.2v2.21H497.71Zm0,9.42H514.2v2.21H497.71Z"/><path class="cls-3" d="M543.65,525.68q3.72,0,5.22,4a10.2,10.2,0,0,1,.5,2.49c.11,1.05.18,2,.19,2.88s0,2.17,0,3.93,0,3.06,0,3.92-.08,1.83-.19,2.88a10.2,10.2,0,0,1-.5,2.49q-1.5,4-5.22,4t-5.23-4a11.25,11.25,0,0,1-.5-2.49c-.11-1-.17-2-.19-2.88s0-2.17,0-3.92,0-3.07,0-3.93.08-1.83.19-2.88a11.25,11.25,0,0,1,.5-2.49Q539.93,525.68,543.65,525.68Zm2,3.07a2.83,2.83,0,0,0-3.92,0,5.19,5.19,0,0,0-1.21,2.12,9.91,9.91,0,0,0-.35,2.12c-.07.94-.11,1.79-.13,2.55s0,1.9,0,3.43,0,2.66,0,3.42.06,1.61.13,2.55a9.8,9.8,0,0,0,.35,2.12,5.19,5.19,0,0,0,1.21,2.12,2.83,2.83,0,0,0,3.92,0,5.18,5.18,0,0,0,1.2-2.12,9.21,9.21,0,0,0,.35-2.12c.08-.94.12-1.79.13-2.55s0-1.9,0-3.42,0-2.67,0-3.43,0-1.61-.13-2.55a9.31,9.31,0,0,0-.35-2.12A5.18,5.18,0,0,0,545.61,528.75Zm-3.14,9h2.36v2.35h-2.36Z"/><path class="cls-3" d="M562.4,540.07h.18l4.11-7h3.07l-5.91,8.7V542l6.32,9.95h-3.09l-4.5-8.24h-.18l-4.49,8.24h-3.09l6.31-9.95v-.19l-5.91-8.7h3.08Z"/><path class="cls-3" d="M581.34,525.68q3.72,0,5.22,4a10.7,10.7,0,0,1,.5,2.49c.11,1.05.18,2,.19,2.88s0,2.17,0,3.93,0,3.06,0,3.92-.08,1.83-.19,2.88a10.7,10.7,0,0,1-.5,2.49q-1.5,4-5.22,4t-5.23-4a10.7,10.7,0,0,1-.5-2.49c-.11-1-.17-2-.19-2.88s0-2.17,0-3.92,0-3.07,0-3.93.08-1.83.19-2.88a10.7,10.7,0,0,1,.5-2.49Q577.63,525.68,581.34,525.68Zm2,3.07a2.83,2.83,0,0,0-3.92,0,5.19,5.19,0,0,0-1.21,2.12,9.91,9.91,0,0,0-.35,2.12c-.07.94-.11,1.79-.13,2.55s0,1.9,0,3.43,0,2.66,0,3.42.06,1.61.13,2.55a9.8,9.8,0,0,0,.35,2.12,5.19,5.19,0,0,0,1.21,2.12,2.83,2.83,0,0,0,3.92,0,5.18,5.18,0,0,0,1.2-2.12,9.21,9.21,0,0,0,.35-2.12c.08-.94.12-1.79.13-2.55s0-1.9,0-3.42,0-2.67,0-3.43-.05-1.61-.13-2.55a9.31,9.31,0,0,0-.35-2.12A5.18,5.18,0,0,0,583.3,528.75Zm-3.14,9h2.36v2.35h-2.36Z"/><path class="cls-3" d="M600.18,525.68q3.72,0,5.23,4a11.25,11.25,0,0,1,.5,2.49c.11,1.05.17,2,.19,2.88s0,2.17,0,3.93,0,3.06,0,3.92-.08,1.83-.19,2.88a11.25,11.25,0,0,1-.5,2.49q-1.51,4-5.23,4t-5.22-4a10.7,10.7,0,0,1-.5-2.49c-.11-1-.18-2-.19-2.88s0-2.17,0-3.92,0-3.07,0-3.93.08-1.83.19-2.88a10.7,10.7,0,0,1,.5-2.49Q596.46,525.68,600.18,525.68Zm2,3.07a2.83,2.83,0,0,0-3.92,0,5.18,5.18,0,0,0-1.2,2.12,9.31,9.31,0,0,0-.35,2.12c-.08.94-.12,1.79-.13,2.55s0,1.9,0,3.43,0,2.66,0,3.42.05,1.61.13,2.55a9.21,9.21,0,0,0,.35,2.12,5.18,5.18,0,0,0,1.2,2.12,2.83,2.83,0,0,0,3.92,0,5.19,5.19,0,0,0,1.21-2.12,9.8,9.8,0,0,0,.35-2.12c.07-.94.11-1.79.13-2.55s0-1.9,0-3.42,0-2.67,0-3.43-.06-1.61-.13-2.55a9.91,9.91,0,0,0-.35-2.12A5.19,5.19,0,0,0,602.14,528.75Zm-3.14,9h2.36v2.35H599Z"/><path class="cls-3" d="M614.94,555.84c.37-.53.64-.93.81-1.19a10.68,10.68,0,0,0,.61-1.2,3.54,3.54,0,0,0,.35-1.36,5.5,5.5,0,0,0-.76-2.42,5.7,5.7,0,0,1-.75-2.46,2.56,2.56,0,0,1,.75-1.91,2.63,2.63,0,0,1,1.9-.74,2.48,2.48,0,0,1,1.9.82,3.47,3.47,0,0,1,.75,2.42,12.29,12.29,0,0,1-1,5,19.48,19.48,0,0,1-2.73,4.36Zm1-22.32a2.85,2.85,0,1,1-.74,1.91A2.58,2.58,0,0,1,615.94,533.52Z"/><path class="cls-3" d="M656.05,532.78a4.34,4.34,0,0,1,2.3.64,4.38,4.38,0,0,1,1.72,2h.18V526h2.36v25.91h-2.36v-2.3h-.18a4.37,4.37,0,0,1-4,2.6,5,5,0,0,1-3.23-1.15,6.5,6.5,0,0,1-2.07-3.22,9.93,9.93,0,0,1-.36-1.73c-.07-.63-.12-1.18-.13-1.62s0-1.12,0-2,0-1.55,0-2,.06-1,.13-1.63a10.34,10.34,0,0,1,.36-1.73,6.51,6.51,0,0,1,2.07-3.21A5,5,0,0,1,656.05,532.78Zm2.46,3a3.13,3.13,0,0,0-4.18,0,4.76,4.76,0,0,0-1.26,2,23.35,23.35,0,0,0,0,9.42,4.82,4.82,0,0,0,1.26,2,3.13,3.13,0,0,0,4.18,0,4.82,4.82,0,0,0,1.26-2,23.35,23.35,0,0,0,0-9.42A4.76,4.76,0,0,0,658.51,535.79Z"/><path class="cls-3" d="M671.44,542.5c0,.83,0,1.47,0,1.92a13.56,13.56,0,0,0,.15,1.61,6.22,6.22,0,0,0,.42,1.57,3.75,3.75,0,0,0,3.72,2.41,23.89,23.89,0,0,0,5.7-.81v2.26a24.54,24.54,0,0,1-5.7.76,6.09,6.09,0,0,1-5.93-3.85,8.75,8.75,0,0,1-.61-2.48c-.08-.89-.13-2-.13-3.39s0-2.48.13-3.35a8.93,8.93,0,0,1,.61-2.48,6.17,6.17,0,0,1,2.16-2.8,6.42,6.42,0,0,1,7.16,0,6.17,6.17,0,0,1,2.16,2.8,8.93,8.93,0,0,1,.61,2.48c.09.87.13,2,.13,3.35Zm8.19-2.21a9,9,0,0,0-.54-2.89,3.79,3.79,0,0,0-7.06,0,9.29,9.29,0,0,0-.54,2.89Z"/><path class="cls-3" d="M700.29,552a16.82,16.82,0,0,1-2.54.26,4.22,4.22,0,0,1-3.18-1.26,4,4,0,0,1-.94-1.5,5.63,5.63,0,0,1-.36-1.36c0-.33,0-.77,0-1.31V528.22h-4.71V526h7.06v20.78c0,.38,0,.67,0,.88a3.57,3.57,0,0,0,.14.75,2.33,2.33,0,0,0,.36.78,2.15,2.15,0,0,0,1.84.81,13.69,13.69,0,0,0,2.35-.32Z"/><path class="cls-3" d="M713.84,532.78a7.26,7.26,0,0,1,2.78.49,4.07,4.07,0,0,1,2,1.85,6.34,6.34,0,0,1,.55,3v13.78h-2.36v-2.26h-.18a5.54,5.54,0,0,1-4.6,2.56,5.27,5.27,0,0,1-2.15-.54,4.6,4.6,0,0,1-2-1.71,6.27,6.27,0,0,1-1.09-3.59,5.78,5.78,0,0,1,1.62-4.27,6.39,6.39,0,0,1,1.25-.94,4.73,4.73,0,0,1,1.39-.5c.49-.09.87-.15,1.14-.17s.63,0,1,0h3.57v-2.24a4.82,4.82,0,0,0-.33-2.17,1.93,1.93,0,0,0-.89-.8,4.25,4.25,0,0,0-1.72-.27,32.88,32.88,0,0,0-5.3.53v-2.24A34.38,34.38,0,0,1,713.84,532.78Zm2.94,9.72h-3.6a9.69,9.69,0,0,0-1.06,0,3.52,3.52,0,0,0-1,.26,3,3,0,0,0-1,.69,4,4,0,0,0-1,2.86,3.81,3.81,0,0,0,.93,2.59,3,3,0,0,0,2.38,1.07,4.52,4.52,0,0,0,2.45-.67,3.79,3.79,0,0,0,1.49-1.74,9.94,9.94,0,0,0,.4-3.43Z"/><path class="cls-3" d="M732.68,549.81q1.92-6.52,3.85-16.73h2.41q-1.08,5.73-2.17,10.25c-.72,3-1.66,6.32-2.82,9.93a20.9,20.9,0,0,1-1.07,2.82,5,5,0,0,1-1.32,1.75c-1.15,1-2.94,1.45-5.35,1.45v-2.21a6.26,6.26,0,0,0,3.62-.75,2.87,2.87,0,0,0,.77-1,9.91,9.91,0,0,0,.57-1.21c.14-.38.4-1.12.78-2.23H731a56.51,56.51,0,0,1-3.32-8.72q-1.34-4.59-2.44-10.12h2.41a78,78,0,0,0,4.84,16.73Z"/><path class="cls-3" d="M755.69,554.28H752.6a23.89,23.89,0,0,1-4.16-7.19,23,23,0,0,1,0-16.23,24.11,24.11,0,0,1,4.16-7.21h3.09a22.07,22.07,0,0,0-4.69,7.06,21.17,21.17,0,0,0,0,16.53A22.09,22.09,0,0,0,755.69,554.28Z"/><path class="cls-3" d="M764.26,526h11.41v2L770.3,536l.13.13a3.84,3.84,0,0,1,1.19-.19,4,4,0,0,1,3.48,2,6.21,6.21,0,0,1,.95,2.47,23.58,23.58,0,0,1,.21,3.49c0,2.77-.38,4.7-1.16,5.8a6.2,6.2,0,0,1-5.43,2.54,23.08,23.08,0,0,1-5.77-.94V549a20.6,20.6,0,0,0,5.77,1,5.63,5.63,0,0,0,1.49-.18,3.65,3.65,0,0,0,1.09-.45,2.4,2.4,0,0,0,.75-.74,4.47,4.47,0,0,0,.49-.94,5.1,5.1,0,0,0,.27-1.16c.06-.46.1-.89.12-1.28s0-.87,0-1.42a12.81,12.81,0,0,0-.37-3.75,3.39,3.39,0,0,0-3.46-2.38,5,5,0,0,0-1.44.21l-1.08-1.4,5.24-8.3h-8.54Z"/><path class="cls-3" d="M783.88,554.28a22.09,22.09,0,0,0,4.69-7,21.17,21.17,0,0,0,0-16.53,22.07,22.07,0,0,0-4.69-7.06H787a24.33,24.33,0,0,1,4.16,7.21,23.13,23.13,0,0,1,0,16.23,24.1,24.1,0,0,1-4.16,7.19Z"/><path class="cls-3" d="M803.39,555.84c.37-.53.64-.93.81-1.19a10.68,10.68,0,0,0,.61-1.2,3.54,3.54,0,0,0,.35-1.36,5.64,5.64,0,0,0-.76-2.42,5.7,5.7,0,0,1-.75-2.46,2.56,2.56,0,0,1,.75-1.91,2.62,2.62,0,0,1,1.9-.74,2.44,2.44,0,0,1,1.89.82,3.43,3.43,0,0,1,.76,2.42,12.13,12.13,0,0,1-1,5,19.07,19.07,0,0,1-2.72,4.36Zm1-22.32a2.88,2.88,0,1,1-.73,1.91A2.6,2.6,0,0,1,804.38,533.52Z"/><line class="cls-1" x1="215.23" y1="180.51" x2="895.57" y2="183.03"/><text class="cls-4" transform="translate(503.99 661.41)">asus</text><circle class="cls-1" cx="149.65" cy="770.05" r="7.69"/><circle class="cls-1" cx="150.76" cy="831.62" r="8.79"/><rect class="cls-1" x="138.53" y="792.94" width="25.28" height="12.09" rx="3.16"/><line class="cls-5" x1="145.12" y1="798.43" x2="156.11" y2="798.43"/><path class="cls-5" d="M617.81,751.61s-46.59,24.5-18.53,55.76,101.51-21.37,116.88-20,49.36,6.33,49.36,6.33l-33.75-19.26,5.53-23.27-119.49.45"/><path class="cls-6" d="M626.7,787.71a4.49,4.49,0,0,1,3.2.68,6.64,6.64,0,0,1,2.38,2.85,6.35,6.35,0,0,1,.59,4,5.33,5.33,0,0,1-1.9,3.2,15.83,15.83,0,0,1-3,1.72l-5.19,2.45L613,782l4.4-2.08a13.73,13.73,0,0,1,2.79-1.08,5.76,5.76,0,0,1,3.83.46,6.1,6.1,0,0,1,2.81,3q1.45,3.09-.19,5.3Zm-5.29.71a8.46,8.46,0,0,0,1.4-.77,2.41,2.41,0,0,0,.88-1.43,3.11,3.11,0,0,0-1.5-3.14,2.38,2.38,0,0,0-1.65-.23,8.63,8.63,0,0,0-1.49.58l-.64.31,2.36,5Zm1,3.82,2.42,5.11,1.45-.69a9.52,9.52,0,0,0,1.71-.95,2.25,2.25,0,0,0,.77-1.4,3.11,3.11,0,0,0-.31-1.8,3.18,3.18,0,0,0-1.2-1.39,2.13,2.13,0,0,0-1.57-.28,9.79,9.79,0,0,0-1.81.72Z"/><path class="cls-6" d="M634,779.4a5.32,5.32,0,0,1,2.15-1.78,5.26,5.26,0,0,1,2.74-.53,5.6,5.6,0,0,1,2.58.88,6.57,6.57,0,0,1,1.81,1.86,24.33,24.33,0,0,1,1.7,3.09,26,26,0,0,1,1.31,3.26,6.61,6.61,0,0,1,.29,2.59,5.6,5.6,0,0,1-1,2.56,5.7,5.7,0,0,1-4.89,2.31,5.62,5.62,0,0,1-2.58-.89,6.44,6.44,0,0,1-1.81-1.86,24.33,24.33,0,0,1-1.7-3.09,26,26,0,0,1-1.31-3.26,6.58,6.58,0,0,1-.29-2.58A5.67,5.67,0,0,1,634,779.4Zm3.82,1.74c-.5.23-.71.75-.64,1.54a19.75,19.75,0,0,0,3,6.42c.56.56,1.1.72,1.59.48s.72-.74.64-1.53a12.48,12.48,0,0,0-1.23-3.36,12.64,12.64,0,0,0-1.81-3.07Q638.61,780.78,637.86,781.14Z"/><path class="cls-6" d="M652.6,769.85a3.19,3.19,0,0,1,3.28.37,5.18,5.18,0,0,1,1.17,1.09,7,7,0,0,1,.81,1.18c.17.33.41.8.7,1.41l4.56,9.64-3.75,1.78-4.56-9.64a4.36,4.36,0,0,0-1-1.49.9.9,0,0,0-1-.16.92.92,0,0,0-.48.84,4.15,4.15,0,0,0,.54,1.7l4.56,9.64L653.73,788l-7.1-15,3.75-1.78.43.91.1-.05a3.48,3.48,0,0,1,.62-1.32A2.89,2.89,0,0,1,652.6,769.85Z"/><path class="cls-6" d="M666.69,763.18a6.43,6.43,0,0,1,2.4-.66,3.57,3.57,0,0,1,2.27.73,5.63,5.63,0,0,1,1.58,2.2l5.2,11-3.76,1.78-.37-.78-.14.07a2.85,2.85,0,0,1-1.61,2,3.88,3.88,0,0,1-3.34,0,5.42,5.42,0,0,1-2.73-2.77,5.29,5.29,0,0,1,.23-5.45,4.29,4.29,0,0,1,.9-1,8.82,8.82,0,0,1,.84-.58q.33-.19.81-.42l1-.46-.72-1.52a.82.82,0,0,0-.51-.43.91.91,0,0,0-.77,0,37.24,37.24,0,0,0-3.66,2.07l-1.68-3.53A42.47,42.47,0,0,1,666.69,763.18Zm4.77,8.85-1,.48a1.33,1.33,0,0,0-.83.9,2.44,2.44,0,0,0,.3,1.47,1.53,1.53,0,0,0,.63.71.85.85,0,0,0,.83,0,1.36,1.36,0,0,0,.7-.63,1.48,1.48,0,0,0,.1-.92,5.31,5.31,0,0,0-.22-.86c-.08-.22-.2-.5-.35-.82Z"/><path class="cls-6" d="M682.64,755.63a3.2,3.2,0,0,1,3.27.37,5.27,5.27,0,0,1,1.18,1.1,7.44,7.44,0,0,1,.8,1.17c.18.33.41.8.7,1.42l4.56,9.63-3.75,1.78-4.56-9.63a4.29,4.29,0,0,0-1-1.5.84.84,0,0,0-1.43.68,4.25,4.25,0,0,0,.53,1.7l4.56,9.64-3.75,1.78-7.11-15,3.75-1.78.44.91.1,0a3.22,3.22,0,0,1,.61-1.31A3,3,0,0,1,682.64,755.63Z"/><path class="cls-6" d="M702.23,750.42l-1,10.59.07.15,5.21-2.46,1.66,3.52-9.38,4.44-1.48-3.11,1-10.57-.07-.15L693.64,755,692,751.5"/><line class="cls-1" x1="499.64" y1="138.32" x2="499.64" y2="180.09"/><line class="cls-1" x1="751.92" y1="137.22" x2="751.92" y2="182.29"/><text class="cls-7" transform="translate(272.18 167.27)">Atom</text><text class="cls-7" transform="translate(538.21 167.27)">Google</text><circle class="cls-6" cx="255.6" cy="158.1" r="9.89"/><circle class="cls-6" cx="521.63" cy="159.2" r="9.89"/><line class="cls-8" x1="487.15" y1="143.09" x2="492.35" y2="147.83"/><line class="cls-8" x1="486.86" y1="147.48" x2="492.63" y2="143.44"/><line class="cls-8" x1="736.68" y1="145.29" x2="741.88" y2="150.03"/><line class="cls-8" x1="736.4" y1="149.68" x2="742.17" y2="145.64"/><text class="cls-9" transform="translate(1299.28 1090.33)">asus</text><text class="cls-10" transform="translate(562.41 1153.98)">Esc</text><text class="cls-10" transform="translate(567.9 1300.73)">Tab</text><text class="cls-10" transform="translate(567.9 1377.53)">CapsLk</text><text class="cls-10" transform="translate(567.9 1455.71)">Shift</text><text class="cls-11" transform="translate(567.9 1514.45)">Ctrl</text><text class="cls-11" transform="translate(639.22 1514.45)">Fn</text><text class="cls-11" transform="translate(709.16 1514.45)">Win</text><text class="cls-11" transform="translate(776.36 1514.45)">Alt</text><text class="cls-10" transform="translate(585.73 1229.41)">Ё</text><text class="cls-10" transform="translate(714.65 1306.21)">Й</text><text class="cls-10" transform="translate(685.85 1282.9)">Q</text><text class="cls-10" transform="translate(700.93 1358.33)">A</text><text class="cls-10" transform="translate(750.31 1437.88)">Z</text><text class="cls-10" transform="translate(831.22 1437.88)">X</text><text class="cls-10" transform="translate(910.77 1437.88)">C</text><text class="cls-10" transform="translate(986.2 1437.88)">V</text><text class="cls-10" transform="translate(1067.12 1437.88)">B </text><text class="cls-10" transform="translate(1145.29 1437.88)">N</text><text class="cls-10" transform="translate(1226.21 1437.88)">M</text><text class="cls-10" transform="translate(780.48 1358.33)">S</text><text class="cls-10" transform="translate(861.4 1358.33)">D</text><text class="cls-10" transform="translate(942.31 1358.33)">F</text><text class="cls-10" transform="translate(1023.23 1358.33)">G</text><text class="cls-10" transform="translate(1104.15 1358.33)">H</text><text class="cls-10" transform="translate(1182.32 1358.33)">Й</text><text class="cls-10" transform="translate(764.02 1282.9)">W</text><text class="cls-10" transform="translate(835.34 1282.9)">E</text><text class="cls-10" transform="translate(910.77 1282.9)">R</text><text class="cls-10" transform="translate(983.46 1282.9)">T</text><text class="cls-10" transform="translate(1058.89 1282.9)">Y</text><text class="cls-10" transform="translate(736.59 1380.27)">Ф</text><text class="cls-10" transform="translate(784.59 1458.45)">Я</text><text class="cls-10" transform="translate(865.51 1458.45)">Ч</text><text class="cls-10" transform="translate(943.69 1458.45)">С</text><text class="cls-10" transform="translate(1020.49 1458.45)">М</text><text class="cls-10" transform="translate(1101.41 1458.45)">И</text><text class="cls-10" transform="translate(1179.58 1458.45)">Т</text><text class="cls-10" transform="translate(1259.13 1458.45)">Ь</text><text class="cls-10" transform="translate(816.14 1380.27)">Ы</text><text class="cls-10" transform="translate(898.43 1380.27)">В</text><text class="cls-10" transform="translate(979.34 1380.27)">А</text><text class="cls-10" transform="translate(1058.89 1380.27)">П</text><text class="cls-10" transform="translate(1138.44 1380.27)">Р</text><text class="cls-10" transform="translate(1216.61 1380.27)">О</text><text class="cls-10" transform="translate(796.94 1306.21)">Ц</text><text class="cls-10" transform="translate(868.25 1306.21)">У</text><text class="cls-10" transform="translate(945.06 1306.21)">К</text><text class="cls-10" transform="translate(1019.12 1306.21)">Е</text><text class="cls-10" transform="translate(1094.55 1306.21)">Н</text><text class="cls-10" transform="translate(632.36 1229.41)">1</text><text class="cls-10" transform="translate(709.16 1229.41)">2</text><text class="cls-10" transform="translate(780.48 1229.41)">3</text><text class="cls-10" transform="translate(855.91 1229.41)">4</text><text class="cls-10" transform="translate(934.08 1229.41)">5</text><text class="cls-10" transform="translate(1009.52 1229.41)">6</text><text class="cls-10" transform="translate(1087.69 1229.41)">7</text><text class="cls-10" transform="translate(1165.87 1229.41)">8</text><text class="cls-10" transform="translate(1246.78 1229.41)">9</text><text class="cls-10" transform="translate(1326.33 1229.41)">0</text><text class="cls-10" transform="translate(641.96 1153.98)">F1</text><text class="cls-10" transform="translate(716.02 1153.98)">F2</text><text class="cls-10" transform="translate(790.08 1153.98)">F3</text><text class="cls-10" transform="translate(866.88 1153.98)">F4</text><text class="cls-10" transform="translate(940.94 1153.98)">F5</text><text class="cls-10" transform="translate(1015 1153.98)">F6</text><text class="cls-10" transform="translate(1089.06 1153.98)">F7</text><text class="cls-10" transform="translate(1164.49 1153.98)">F8</text><text class="cls-10" transform="translate(1249.53 1153.98)">F9</text><text class="cls-10" transform="translate(1327.7 1153.98)">F10</text><text class="cls-12" transform="translate(562.97 1204.25)">~</text><text class="cls-13" transform="translate(631.54 1203.69)">!</text><text class="cls-14" transform="translate(708.35 1206.04)">@</text><text class="cls-12" transform="translate(737.15 1204.25)">«</text><text class="cls-15" transform="translate(779.66 1203.9)">#</text><text class="cls-16" transform="translate(811.21 1201.82)">№</text><text class="cls-15" transform="translate(856.47 1205.27)">$</text><text class="cls-12" transform="translate(889.38 1204.25)">;</text><text class="cls-17" transform="translate(934.64 1204.21)">%</text><text class="cls-12" transform="translate(1007.33 1209.74)">^</text><text class="cls-12" transform="translate(1041.62 1204.25)">:</text><text class="cls-18" transform="translate(1123.9 1205.51)">?</text><text class="cls-12" transform="translate(1165.05 1204.25)">*</text><text class="cls-19" transform="translate(1328.25 1202.8)">)</text><text class="cls-20" transform="translate(1245.97 1202.36)">(</text><text class="cls-21" transform="translate(1088.25 1204.85)">&amp;</text><path class="cls-1" d="M1449,1098.77H996.45a8.44,8.44,0,0,1-8.44-8.44v-27a8.44,8.44,0,0,1,8.44-8.44H1449v-21.71H554a37,37,0,0,0-37,36.95V1561a36.94,36.94,0,0,0,37,36.94H1449ZM1238.93,1337.3v46a7.53,7.53,0,0,1-7.54,7.54h-49.64a7.54,7.54,0,0,1-7.54-7.54v-46a7.55,7.55,0,0,1,7.54-7.54h49.64A7.54,7.54,0,0,1,1238.93,1337.3Zm-36.9,78.62v46a7.54,7.54,0,0,1-7.54,7.54h-49.64a7.54,7.54,0,0,1-7.54-7.54v-46a7.55,7.55,0,0,1,7.54-7.54h49.64A7.55,7.55,0,0,1,1202,1415.92Zm21.65-180.74a7.54,7.54,0,0,1-7.54,7.54H1166.5a7.55,7.55,0,0,1-7.54-7.54v-47.49a7.55,7.55,0,0,1,7.54-7.54h49.64a7.54,7.54,0,0,1,7.54,7.54ZM1157,1130.4a8.91,8.91,0,0,1,8.92-8.91h47.36a8.91,8.91,0,0,1,8.92,8.91v25.2a8.91,8.91,0,0,1-8.92,8.91h-47.36a8.91,8.91,0,0,1-8.92-8.91Zm3.34,206.9v46a7.53,7.53,0,0,1-7.54,7.54h-49.63a7.54,7.54,0,0,1-7.55-7.54v-46a7.55,7.55,0,0,1,7.55-7.54h49.63A7.54,7.54,0,0,1,1160.31,1337.3ZM702,1390.81a7.54,7.54,0,0,1-7.54-7.54v-46a7.55,7.55,0,0,1,7.54-7.54h49.64a7.55,7.55,0,0,1,7.54,7.54v46a7.54,7.54,0,0,1-7.54,7.54Zm29.55,25v48a9.34,9.34,0,0,1-9.34,9.34H570.94a9.34,9.34,0,0,1-9.34-9.34v-48a9.34,9.34,0,0,1,9.34-9.34H722.23A9.34,9.34,0,0,1,731.57,1415.79ZM684.37,1317a7.55,7.55,0,0,1-7.54-7.54v-46a7.54,7.54,0,0,1,7.54-7.54H734a7.54,7.54,0,0,1,7.54,7.54v46A7.55,7.55,0,0,1,734,1317Zm68.27-7.54v-46a7.53,7.53,0,0,1,7.54-7.54h49.64a7.54,7.54,0,0,1,7.54,7.54v46a7.55,7.55,0,0,1-7.54,7.54H760.18A7.54,7.54,0,0,1,752.64,1309.47Zm-10,106.45a7.55,7.55,0,0,1,7.55-7.54h49.63a7.54,7.54,0,0,1,7.54,7.54v46a7.53,7.53,0,0,1-7.54,7.54H750.16a7.54,7.54,0,0,1-7.55-7.54Zm38-25.11a7.53,7.53,0,0,1-7.54-7.54v-46a7.54,7.54,0,0,1,7.54-7.54h49.64a7.55,7.55,0,0,1,7.54,7.54v46a7.54,7.54,0,0,1-7.54,7.54Zm53.83-73.8a7.54,7.54,0,0,1-7.54-7.54v-46a7.53,7.53,0,0,1,7.54-7.54h49.64a7.54,7.54,0,0,1,7.54,7.54v46a7.55,7.55,0,0,1-7.54,7.54Zm18.85,20.29a7.55,7.55,0,0,1,7.54-7.54H910.5a7.55,7.55,0,0,1,7.54,7.54v46a7.54,7.54,0,0,1-7.54,7.54H860.86a7.54,7.54,0,0,1-7.54-7.54Zm47.9-27.83v-46a7.54,7.54,0,0,1,7.54-7.54H958.4a7.54,7.54,0,0,1,7.54,7.54v46a7.55,7.55,0,0,1-7.54,7.54H908.76A7.55,7.55,0,0,1,901.22,1309.47Zm.23,106.45a7.55,7.55,0,0,1,7.55-7.54h49.63a7.55,7.55,0,0,1,7.55,7.54v46a7.54,7.54,0,0,1-7.55,7.54H909a7.54,7.54,0,0,1-7.55-7.54Zm39.64-25.11a7.54,7.54,0,0,1-7.55-7.54v-46a7.55,7.55,0,0,1,7.55-7.54h49.63a7.54,7.54,0,0,1,7.54,7.54v46a7.53,7.53,0,0,1-7.54,7.54Zm37.38,25.11a7.54,7.54,0,0,1,7.54-7.54h49.64a7.55,7.55,0,0,1,7.54,7.54v46a7.54,7.54,0,0,1-7.54,7.54H986a7.53,7.53,0,0,1-7.54-7.54Zm44.44-25.11a7.54,7.54,0,0,1-7.54-7.54v-46a7.55,7.55,0,0,1,7.54-7.54h49.64a7.55,7.55,0,0,1,7.54,7.54v46a7.54,7.54,0,0,1-7.54,7.54Zm28.41-81.34v-46a7.53,7.53,0,0,1,7.54-7.54h49.63a7.54,7.54,0,0,1,7.55,7.54v46a7.55,7.55,0,0,1-7.55,7.54h-49.63A7.54,7.54,0,0,1,1051.32,1309.47Zm7.37,106.45a7.55,7.55,0,0,1,7.54-7.54h49.64a7.54,7.54,0,0,1,7.54,7.54v46a7.53,7.53,0,0,1-7.54,7.54h-49.64a7.54,7.54,0,0,1-7.54-7.54Zm22.48-285.52a8.91,8.91,0,0,1,8.91-8.91h47.37a8.91,8.91,0,0,1,8.91,8.91v25.2a8.91,8.91,0,0,1-8.91,8.91h-47.37a8.91,8.91,0,0,1-8.91-8.91Zm-1.05,57.29a7.55,7.55,0,0,1,7.55-7.54h49.63a7.54,7.54,0,0,1,7.54,7.54v47.49a7.54,7.54,0,0,1-7.54,7.54h-49.63a7.55,7.55,0,0,1-7.55-7.54Zm-74.76-57.29a8.91,8.91,0,0,1,8.91-8.91h47.37a8.91,8.91,0,0,1,8.91,8.91v25.2a8.91,8.91,0,0,1-8.91,8.91h-47.37a8.91,8.91,0,0,1-8.91-8.91Zm-2.56,57.29a7.55,7.55,0,0,1,7.54-7.54H1060a7.55,7.55,0,0,1,7.54,7.54v47.49a7.55,7.55,0,0,1-7.54,7.54h-49.64a7.55,7.55,0,0,1-7.54-7.54Zm31.4,68.27a7.54,7.54,0,0,1,7.55,7.54v46a7.55,7.55,0,0,1-7.55,7.54H984.57a7.54,7.54,0,0,1-7.54-7.54v-46a7.53,7.53,0,0,1,7.54-7.54ZM931.07,1130.34a8.91,8.91,0,0,1,8.91-8.91h47.55a8.91,8.91,0,0,1,8.91,8.91v25.32a8.91,8.91,0,0,1-8.91,8.91H940a8.91,8.91,0,0,1-8.91-8.91ZM927,1187.69a7.55,7.55,0,0,1,7.55-7.54h49.63a7.54,7.54,0,0,1,7.54,7.54v47.49a7.54,7.54,0,0,1-7.54,7.54H934.54a7.55,7.55,0,0,1-7.55-7.54Zm-70.21-57.35a8.91,8.91,0,0,1,8.91-8.91h47.54a8.91,8.91,0,0,1,8.92,8.91v25.32a8.91,8.91,0,0,1-8.92,8.91H865.69a8.91,8.91,0,0,1-8.91-8.91Zm-7.11,57.35a7.55,7.55,0,0,1,7.54-7.54h49.64a7.55,7.55,0,0,1,7.54,7.54v47.49a7.55,7.55,0,0,1-7.54,7.54H857.21a7.55,7.55,0,0,1-7.54-7.54ZM781,1130.34a8.91,8.91,0,0,1,8.92-8.91h47.54a8.91,8.91,0,0,1,8.91,8.91v25.32a8.91,8.91,0,0,1-8.91,8.91H789.89a8.91,8.91,0,0,1-8.92-8.91Zm-7.11,57.35a7.55,7.55,0,0,1,7.55-7.54H831a7.54,7.54,0,0,1,7.54,7.54v47.49a7.54,7.54,0,0,1-7.54,7.54H781.41a7.55,7.55,0,0,1-7.55-7.54Zm-67.18-57.35a8.91,8.91,0,0,1,8.91-8.91h47.55a8.91,8.91,0,0,1,8.91,8.91v25.32a8.91,8.91,0,0,1-8.91,8.91H715.59a8.91,8.91,0,0,1-8.91-8.91Zm-7.11,57.35a7.55,7.55,0,0,1,7.54-7.54h49.64a7.54,7.54,0,0,1,7.54,7.54v47.49a7.54,7.54,0,0,1-7.54,7.54H707.11a7.55,7.55,0,0,1-7.54-7.54Zm-67.18-57.35a8.91,8.91,0,0,1,8.91-8.91h47.55a8.91,8.91,0,0,1,8.91,8.91v25.32a8.91,8.91,0,0,1-8.91,8.91H641.3a8.91,8.91,0,0,1-8.91-8.91Zm-8.63,57.35a7.55,7.55,0,0,1,7.55-7.54h49.63a7.55,7.55,0,0,1,7.55,7.54v47.49a7.55,7.55,0,0,1-7.55,7.54H631.31a7.55,7.55,0,0,1-7.55-7.54Zm-68.69-32v-25.32a8.91,8.91,0,0,1,8.91-8.91h47.54a8.91,8.91,0,0,1,8.92,8.91v25.32a8.91,8.91,0,0,1-8.92,8.91H564A8.91,8.91,0,0,1,555.07,1155.66Zm2.61,31.33a8,8,0,0,1,8-8H602a8,8,0,0,1,8,8v48a8,8,0,0,1-8,8H565.71a8,8,0,0,1-8-8Zm1.31,79.38a9,9,0,0,1,9-9h85.35a9,9,0,0,1,9,9v40.9a9,9,0,0,1-9,9H568a9,9,0,0,1-9-9Zm1.31,70.28a7.33,7.33,0,0,1,7.34-7.34h105.6a7.34,7.34,0,0,1,7.34,7.34V1386a7.34,7.34,0,0,1-7.34,7.34H567.64a7.33,7.33,0,0,1-7.34-7.34ZM619.13,1527a7.54,7.54,0,0,1-7.54,7.54H569.15a7.54,7.54,0,0,1-7.55-7.54v-34.59a7.55,7.55,0,0,1,7.55-7.55h42.44a7.55,7.55,0,0,1,7.54,7.55Zm68.23,0a7.54,7.54,0,0,1-7.55,7.54H637.37a7.54,7.54,0,0,1-7.54-7.54v-34.59a7.55,7.55,0,0,1,7.54-7.55h42.44a7.55,7.55,0,0,1,7.55,7.55Zm68.22,0a7.53,7.53,0,0,1-7.54,7.54H705.6a7.53,7.53,0,0,1-7.54-7.54v-34.59a7.54,7.54,0,0,1,7.54-7.55H748a7.54,7.54,0,0,1,7.54,7.55Zm68.23,0a7.54,7.54,0,0,1-7.54,7.54H773.82a7.54,7.54,0,0,1-7.54-7.54v-34.59a7.55,7.55,0,0,1,7.54-7.55h42.45a7.55,7.55,0,0,1,7.54,7.55Zm-1-65.14v-46a7.54,7.54,0,0,1,7.54-7.54H880a7.55,7.55,0,0,1,7.55,7.54v46a7.54,7.54,0,0,1-7.55,7.54H830.38A7.53,7.53,0,0,1,822.84,1461.89ZM1216.1,1527a7.53,7.53,0,0,1-7.54,7.54H849.63a7.54,7.54,0,0,1-7.54-7.54v-34.59a7.55,7.55,0,0,1,7.54-7.55h358.93a7.54,7.54,0,0,1,7.54,7.55Zm64.55-65.14a7.54,7.54,0,0,1-7.54,7.54h-49.64a7.53,7.53,0,0,1-7.54-7.54v-46a7.54,7.54,0,0,1,7.54-7.54h49.64a7.55,7.55,0,0,1,7.54,7.54ZM1304,1235.18a7.55,7.55,0,0,1-7.54,7.54h-49.64a7.54,7.54,0,0,1-7.54-7.54v-47.49a7.54,7.54,0,0,1,7.54-7.54h49.64a7.55,7.55,0,0,1,7.54,7.54Zm3-79.58a8.91,8.91,0,0,1-8.91,8.91h-47.37a8.91,8.91,0,0,1-8.91-8.91v-25.2a8.91,8.91,0,0,1,8.91-8.91h47.37a8.91,8.91,0,0,1,8.91,8.91Zm76.51,79.58a7.54,7.54,0,0,1-7.54,7.54h-49.63a7.55,7.55,0,0,1-7.55-7.54v-47.49a7.55,7.55,0,0,1,7.55-7.54H1376a7.54,7.54,0,0,1,7.54,7.54Zm-8.41-70.67h-47.36a8.91,8.91,0,0,1-8.92-8.91v-25.2a8.91,8.91,0,0,1,8.92-8.91h47.36a8.92,8.92,0,0,1,8.92,8.91v25.2A8.92,8.92,0,0,1,1375.17,1164.51Z"/></g><g id="Слой_7" data-name="Слой 7"><rect class="cls-22" x="564.94" y="1819.7" width="324.23" height="53.42"/><rect class="cls-22" x="909.43" y="1817.86" width="229.35" height="55.27"/><rect class="cls-22" x="286.77" y="2196.43" width="63.56" height="63.56"/><polyline class="cls-23" points="262.23 1939.74 262.36 1834.9 565.45 1835.01"/><line class="cls-23" x1="261.76" y1="2114.95" x2="262.47" y2="2299.09"/><polyline class="cls-23" points="263.17 2408.44 262.36 2505 1171.48 2505 1169.18 2409.21 1229.51 2358.55 1229.51 2045.37 1169.18 1988.27 1171.48 1834.9 1139.43 1834.85"/><polyline class="cls-23" points="1126.07 1874.61 1033.5 1993.43 925.73 1993.43"/><polyline class="cls-23" points="1116.86 1874.61 1027.98 1985.14 925.73 1985.14"/><circle class="cls-23" cx="916.52" cy="1989.28" r="10.59"/><line class="cls-23" x1="371.82" y1="2394.57" x2="455.54" y2="2356.94"/><line class="cls-23" x1="363.82" y1="2410.53" x2="453.67" y2="2372.92"/><polyline class="cls-23" points="499.29 2362.58 531.97 2385.82 627.76 2385.82 627.76 2474.24 602.89 2474.24"/><polyline class="cls-23" points="499.73 2371.08 529.2 2393.18 622.23 2393.18 622.23 2468.72 603.81 2468.72"/><circle class="cls-23" cx="595.52" cy="2470.56" r="9.21"/><polyline class="cls-23" points="480.38 2380.29 479.46 2405.16 497.88 2420.82 497.88 2473.32 480.38 2483.45"/><polyline class="cls-23" points="485.91 2380.29 484.99 2400.55 503.41 2415.29 504.33 2477.93 484.07 2489.9"/><circle class="cls-23" cx="476.36" cy="2490.98" r="7.83"/><polyline class="cls-23" points="942.77 1873.69 780.66 2072.64 650.79 2073.57"/><polyline class="cls-23" points="927.12 1874.61 775.13 2059.75 651.71 2059.75"/><polyline class="cls-23" points="913.3 1873.69 770.99 2045.93 652.17 2045.93"/><line class="cls-23" x1="651.71" y1="2042.25" x2="651.71" y2="2049.62"/><line class="cls-23" x1="651.71" y1="2027.97" x2="651.71" y2="2035.34"/><line class="cls-23" x1="651.71" y1="2018.76" x2="651.71" y2="2026.13"/><line class="cls-23" x1="651.71" y1="2055.6" x2="651.71" y2="2062.97"/><line class="cls-23" x1="651.71" y1="2069.42" x2="651.71" y2="2076.79"/><polyline class="cls-23" points="590.92 1915.14 675.66 1914.21 770.53 1978.69 858.16 1874.36"/><polyline class="cls-23" points="590.46 1905 682.1 1905 767.77 1964.88 845.14 1873.69"/><polyline class="cls-23" points="631.44 1935.4 668.29 1935.4 780.66 2011.85 765 2033.04 651.71 2032.12"/><polyline class="cls-23" points="632.37 1943.69 665.52 1943.69 767.77 2012.77 760.4 2024.75 651.71 2022.9"/><circle class="cls-23" cx="443.54" cy="1859.87" r="17.5"/><circle class="cls-23" cx="1137.13" cy="1965.8" r="17.5"/><circle class="cls-23" cx="315.97" cy="1852.04" r="6.91"/><circle class="cls-23" cx="1192.39" cy="2061.59" r="17.5"/><circle class="cls-23" cx="1192.39" cy="2341.6" r="17.5"/><polyline class="cls-23" points="273.75 1940.68 319.19 1891.19 570.65 1891.19 572.49 2223.7 638.81 2224.62 637.89 2484.37 608.42 2484.37"/><polyline class="cls-23" points="281.43 1940.01 321.04 1897.63 565.13 1896.71 566.05 1965.8"/><polyline class="cls-23" points="265.77 1940.01 315.51 1884.74 315.51 1858.03"/><polyline class="cls-23" points="262.23 2180.56 373.54 2180.41 390.12 2220.02 550.39 2220.94"/><polyline class="cls-23" points="262.23 2174.91 379.06 2174.89 394.72 2212.65 550.39 2213.57"/><polyline class="cls-23" points="261.16 2169.36 384.59 2169.36 398.41 2204.36 550.85 2205.28"/><polyline class="cls-23" points="262.08 2163.83 389.2 2163.83 403.01 2198.83 549.47 2199.76"/><line class="cls-23" x1="549.47" y1="2227.39" x2="549.47" y2="2193.31"/><line class="cls-23" x1="626.84" y1="2360.95" x2="626.84" y2="2259.63"/><line class="cls-23" x1="620.39" y1="2360.49" x2="620.39" y2="2259.17"/><circle class="cls-23" cx="624.08" cy="2254.1" r="6.45"/><circle class="cls-23" cx="623.15" cy="2365.55" r="6.45"/><circle class="cls-6" cx="1055.15" cy="2054.22" r="7.83"/><circle class="cls-6" cx="1086.47" cy="2054.22" r="7.83"/><circle class="cls-6" cx="1055.15" cy="2021.98" r="7.83"/><rect class="cls-1" x="565.13" y="1817.5" width="325.15" height="57.11" rx="5.77"/><rect class="cls-1" x="653.55" y="2199.75" width="455.94" height="128.95" rx="16.22"/><rect class="cls-1" x="905.93" y="1817.5" width="232.12" height="57.11" rx="5.77"/><rect class="cls-1" x="578.02" y="1827.63" width="35" height="35"/><rect class="cls-1" x="623.15" y="1827.63" width="35" height="35"/><rect class="cls-1" x="668.29" y="1827.63" width="35" height="35"/><rect class="cls-1" x="711.58" y="1827.63" width="35" height="35"/><rect class="cls-1" x="757.63" y="1827.63" width="35" height="35"/><rect class="cls-1" x="800.93" y="1827.63" width="35" height="35"/><rect class="cls-1" x="844.22" y="1827.63" width="35" height="35"/><rect class="cls-1" x="915.14" y="1827.63" width="35" height="35"/><rect class="cls-1" x="959.35" y="1827.63" width="35" height="35"/><rect class="cls-1" x="1005.41" y="1827.63" width="35" height="35"/><rect class="cls-1" x="1047.78" y="1827.63" width="35" height="35"/><rect class="cls-1" x="1092.91" y="1827.63" width="35" height="35"/><rect class="cls-6" x="663.22" y="2216.8" width="21.19" height="7.37"/><rect class="cls-24" x="666.91" y="2207.58" width="13.36" height="5.53" rx="2.76"/><rect class="cls-24" x="699.14" y="2207.58" width="13.36" height="5.53" rx="2.76"/><rect class="cls-24" x="729.54" y="2207.58" width="13.36" height="5.53" rx="2.76"/><rect class="cls-24" x="763.62" y="2207.58" width="13.36" height="5.53" rx="2.76"/><rect class="cls-24" x="794.02" y="2207.58" width="13.36" height="5.53" rx="2.76"/><rect class="cls-24" x="822.57" y="2207.58" width="13.36" height="5.53" rx="2.76"/><rect class="cls-24" x="851.13" y="2207.58" width="13.36" height="5.53" rx="2.76"/><rect class="cls-24" x="881.52" y="2207.58" width="13.36" height="5.53" rx="2.76"/><rect class="cls-24" x="910.08" y="2207.58" width="13.36" height="5.53" rx="2.76"/><rect class="cls-24" x="939.55" y="2207.58" width="13.36" height="5.53" rx="2.76"/><rect class="cls-24" x="969.95" y="2207.58" width="13.36" height="5.53" rx="2.76"/><rect class="cls-24" x="998.5" y="2207.58" width="13.36" height="5.53" rx="2.76"/><rect class="cls-24" x="1029.82" y="2207.58" width="13.36" height="5.53" rx="2.76"/><rect class="cls-24" x="1060.21" y="2207.58" width="13.36" height="5.53" rx="2.76"/><rect class="cls-24" x="1087.85" y="2207.58" width="9.67" height="5.53" rx="2.76"/><rect class="cls-6" x="696.38" y="2216.8" width="21.19" height="7.37"/><rect class="cls-6" x="726.78" y="2216.8" width="21.19" height="7.37"/><rect class="cls-6" x="760.86" y="2216.8" width="21.19" height="7.37"/><rect class="cls-6" x="790.33" y="2216.8" width="21.19" height="7.37"/><rect class="cls-6" x="818.89" y="2216.8" width="21.19" height="7.37"/><rect class="cls-6" x="847.44" y="2216.8" width="21.19" height="7.37"/><rect class="cls-6" x="876.92" y="2216.8" width="21.19" height="7.37"/><rect class="cls-6" x="906.39" y="2216.8" width="21.19" height="7.37"/><rect class="cls-6" x="935.87" y="2216.8" width="21.19" height="7.37"/><rect class="cls-6" x="966.26" y="2216.8" width="21.19" height="7.37"/><rect class="cls-6" x="994.82" y="2216.8" width="21.19" height="7.37"/><rect class="cls-6" x="1026.13" y="2216.8" width="21.19" height="7.37"/><rect class="cls-6" x="1057.45" y="2216.8" width="21.19" height="7.37"/><rect class="cls-6" x="1086" y="2216.8" width="13.82" height="7.37"/><circle class="cls-24" cx="677.96" cy="2270.22" r="10.59"/><circle class="cls-24" cx="700.99" cy="2297.85" r="7.83"/><circle class="cls-24" cx="1079.56" cy="2268.38" r="10.59"/><circle class="cls-24" cx="1056.53" cy="2296.01" r="7.83"/><rect class="cls-1" x="972.25" y="2081.85" width="73.69" height="73.69"/><circle class="cls-1" cx="1009.09" cy="2117.78" r="22.11"/><circle class="cls-24" cx="981.46" cy="2091.07" r="3.68"/><circle class="cls-24" cx="1036.73" cy="2091.07" r="3.68"/><circle class="cls-24" cx="1036.73" cy="2146.33" r="3.68"/><circle class="cls-24" cx="981.46" cy="2146.33" r="3.68"/><rect class="cls-1" x="473.02" y="2140.34" width="69.67" height="26.25" rx="13.13"/><rect class="cls-24" x="482.1" y="2145.39" width="50.99" height="15.14" rx="7.57"/><rect class="cls-1" x="185.63" y="2299.23" width="50.66" height="107.77"/><path class="cls-1" d="M248.12,2300s-12.75,27.76-12.75,47.1,11.06,61.71,11.06,61.71H360.64s-19.34-32.23-19.34-52.5,19.16-56.74,19.16-56.74Z"/><path class="cls-1" d="M360.46,2299.6s23.21,38.32,23.21,57.66-20.26,51.58-20.26,51.58"/><rect class="cls-1" x="286.95" y="2196.07" width="63.56" height="63.56"/><circle class="cls-1" cx="359.72" cy="2206.47" r="5.79"/><circle class="cls-1" cx="359.72" cy="2227.98" r="5.79"/><circle class="cls-1" cx="359.72" cy="2247.85" r="5.79"/><polygon class="cls-1" points="382.92 2442.25 365 2474.64 327.99 2475.31 308.89 2443.6 326.81 2411.21 363.82 2410.53 382.92 2442.25"/><polygon class="cls-1" points="416.87 2336.72 377.4 2334.72 359.4 2299.53 380.87 2266.35 420.34 2268.35 438.34 2303.54 416.87 2336.72"/><circle class="cls-1" cx="459.2" cy="2443.85" r="35"/><circle class="cls-1" cx="546.7" cy="2442.92" r="35"/><rect class="cls-1" x="140.5" y="1940.93" width="186.06" height="175.01"/><rect class="cls-1" x="326.56" y="1951.06" width="68.16" height="164.88"/><rect class="cls-1" x="441.7" y="1973.17" width="123.43" height="71.85"/><line class="cls-1" x1="452.75" y1="1973.17" x2="452.75" y2="1961.19"/><line class="cls-1" x1="460.12" y1="1972.7" x2="460.12" y2="1960.73"/><line class="cls-1" x1="466.57" y1="1972.7" x2="466.57" y2="1960.73"/><line class="cls-1" x1="473.02" y1="1972.7" x2="473.02" y2="1960.73"/><line class="cls-1" x1="479.46" y1="1972.7" x2="479.46" y2="1960.73"/><line class="cls-1" x1="485.91" y1="1972.7" x2="485.91" y2="1960.73"/><line class="cls-1" x1="492.36" y1="1972.7" x2="492.36" y2="1960.73"/><line class="cls-1" x1="498.81" y1="1972.7" x2="498.81" y2="1960.73"/><line class="cls-1" x1="505.25" y1="1972.7" x2="505.25" y2="1960.73"/><line class="cls-1" x1="511.7" y1="1972.7" x2="511.7" y2="1960.73"/><line class="cls-1" x1="517.23" y1="1972.7" x2="517.23" y2="1960.73"/><line class="cls-1" x1="522.75" y1="1972.7" x2="522.75" y2="1960.73"/><line class="cls-1" x1="529.2" y1="1972.7" x2="529.2" y2="1960.73"/><line class="cls-1" x1="534.73" y1="1972.7" x2="534.73" y2="1960.73"/><line class="cls-1" x1="540.26" y1="1972.7" x2="540.26" y2="1960.73"/><line class="cls-1" x1="545.78" y1="1972.7" x2="545.78" y2="1960.73"/><line class="cls-1" x1="551.31" y1="1972.7" x2="551.31" y2="1960.73"/><line class="cls-1" x1="454.95" y1="2058.23" x2="454.95" y2="2046.26"/><line class="cls-1" x1="462.32" y1="2057.77" x2="462.32" y2="2045.8"/><line class="cls-1" x1="468.76" y1="2057.77" x2="468.76" y2="2045.8"/><line class="cls-1" x1="475.21" y1="2057.77" x2="475.21" y2="2045.8"/><line class="cls-1" x1="481.66" y1="2057.77" x2="481.66" y2="2045.8"/><line class="cls-1" x1="488.11" y1="2057.77" x2="488.11" y2="2045.8"/><line class="cls-1" x1="494.55" y1="2057.77" x2="494.55" y2="2045.8"/><line class="cls-1" x1="501" y1="2057.77" x2="501" y2="2045.8"/><line class="cls-1" x1="507.45" y1="2057.77" x2="507.45" y2="2045.8"/><line class="cls-1" x1="513.9" y1="2057.77" x2="513.9" y2="2045.8"/><line class="cls-1" x1="519.42" y1="2057.77" x2="519.42" y2="2045.8"/><line class="cls-1" x1="524.95" y1="2057.77" x2="524.95" y2="2045.8"/><line class="cls-1" x1="531.4" y1="2057.77" x2="531.4" y2="2045.8"/><line class="cls-1" x1="536.92" y1="2057.77" x2="536.92" y2="2045.8"/><line class="cls-1" x1="542.45" y1="2057.77" x2="542.45" y2="2045.8"/><line class="cls-1" x1="547.98" y1="2057.77" x2="547.98" y2="2045.8"/><line class="cls-1" x1="553.5" y1="2057.77" x2="553.5" y2="2045.8"/><rect class="cls-6" x="589.07" y="1933.56" width="36.89" height="16.29" rx="8.14"/><rect class="cls-6" x="589.07" y="1955.66" width="36.89" height="16.29" rx="8.14"/><rect class="cls-6" x="589.07" y="1979.61" width="36.89" height="16.29" rx="8.14"/><rect class="cls-6" x="589.07" y="2000.8" width="36.89" height="16.29" rx="8.14"/><rect class="cls-6" x="589.07" y="2023.83" width="36.89" height="16.29" rx="8.14"/><rect class="cls-6" x="589.07" y="2046.85" width="36.89" height="16.29" rx="8.14"/><rect class="cls-6" x="589.07" y="2070.8" width="36.89" height="16.29" rx="8.14"/><rect class="cls-6" x="589.07" y="2095.67" width="36.89" height="16.29" rx="8.14"/><rect class="cls-6" x="589.07" y="2118.7" width="36.89" height="16.29" rx="8.14"/><rect class="cls-6" x="589.07" y="2143.57" width="36.89" height="16.29" rx="8.14"/><rect class="cls-6" x="589.07" y="2169.36" width="36.89" height="16.29" rx="8.14"/><ellipse class="cls-6" cx="619.01" cy="2199.75" rx="6.45" ry="5.99"/><rect class="cls-1" x="453.67" y="2356.34" width="46.05" height="23.03" rx="4.77"/><circle class="cls-1" cx="478.08" cy="2338.38" r="6.91"/><circle class="cls-1" cx="477.62" cy="2319.5" r="5.53"/><rect class="cls-1" x="465.65" y="2251.34" width="23.95" height="35.92"/><polyline class="cls-1" points="490.52 2251.34 506.18 2246.73 502.49 2266.07 510.78 2293.71 489.6 2286.34"/><polyline class="cls-1" points="465.04 2251.57 449.38 2246.97 453.06 2266.31 444.77 2293.94 465.96 2286.58"/><rect class="cls-6" x="663.22" y="2483.91" width="7.37" height="7.37"/><rect class="cls-6" x="702.83" y="2483.91" width="7.37" height="7.37"/><rect class="cls-6" x="753.49" y="2483.91" width="7.37" height="7.37"/><rect class="cls-6" x="810.6" y="2483.91" width="7.37" height="7.37"/><rect class="cls-6" x="875.99" y="2483.91" width="7.37" height="7.37"/><rect class="cls-6" x="952.45" y="2483.91" width="7.37" height="7.37"/><rect class="cls-6" x="981.92" y="2483.91" width="7.37" height="7.37"/><rect class="cls-6" x="1013.24" y="2483.91" width="7.37" height="7.37"/><rect class="cls-6" x="1043.63" y="2483.91" width="7.37" height="7.37"/><rect class="cls-6" x="1079.56" y="2483.91" width="7.37" height="7.37"/><rect class="cls-6" x="1110.87" y="2483.91" width="7.37" height="7.37"/><rect class="cls-6" x="448.96" y="2096.57" width="36.89" height="16.29" rx="8.14" transform="translate(-1637.31 2572.12) rotate(-90)"/><rect class="cls-6" x="471.98" y="2096.57" width="36.89" height="16.29" rx="8.14" transform="translate(-1614.29 2595.14) rotate(-90)"/><rect class="cls-6" x="496.85" y="2096.57" width="36.89" height="16.29" rx="8.14" transform="translate(-1589.42 2620.01) rotate(-90)"/><rect class="cls-6" x="522.64" y="2096.57" width="36.89" height="16.29" rx="8.14" transform="translate(-1563.63 2645.8) rotate(-90)"/><rect class="cls-1" x="1108.57" y="2103.96" width="107.77" height="15.66" rx="5.86"/><rect class="cls-1" x="1108.57" y="2126.07" width="107.77" height="15.66" rx="5.86"/><rect class="cls-1" x="1108.57" y="2147.25" width="107.77" height="15.66" rx="5.86"/><rect class="cls-1" x="1108.57" y="2168.44" width="107.77" height="15.66" rx="5.86"/><circle class="cls-6" cx="155.7" cy="1957.05" r="5.53"/><circle class="cls-6" cx="311.36" cy="1957.05" r="5.53"/><circle class="cls-6" cx="311.36" cy="2100.74" r="5.53"/><circle class="cls-6" cx="157.54" cy="2100.74" r="5.53"/><text class="cls-25" transform="translate(746.45 2373.66)">www.arduino.cc<tspan class="cls-26" x="247.58" y="0"> </tspan></text><text class="cls-27" transform="translate(681.81 2474.77) rotate(-90)">RESET</text><text class="cls-27" transform="translate(720.5 2477.53) rotate(-90)">3U3</text><text class="cls-27" transform="translate(992.22 1952.51) rotate(-90)">TX</text><text class="cls-27" transform="translate(1039.2 1951.59) rotate(-90)">AX</text><text class="cls-28" transform="translate(737.01 2472.84)">5U</text><text class="cls-28" transform="translate(785.53 2472.47)">0nd</text><text class="cls-28" transform="translate(849.13 2473.29)">Uin</text><text class="cls-29" transform="translate(470.56 1862.6)">DIGITAL</text><text class="cls-28" transform="translate(945.23 2473.76)">0</text><text class="cls-30" transform="translate(587.85 1898.08)">6</text><text class="cls-30" transform="translate(634.82 1898.08)">5</text><text class="cls-30" transform="translate(677.2 1898.08)">4</text><text class="cls-30" transform="translate(723.25 1898.08)">3</text><text class="cls-30" transform="translate(769.3 1898.08)">2</text><text class="cls-30" transform="translate(811.67 1898.08)">1</text><text class="cls-30" transform="translate(855.89 1898.08)">0</text><text class="cls-30" transform="translate(926.81 1899)">4</text><text class="cls-30" transform="translate(972.87 1899)">3</text><text class="cls-30" transform="translate(1018.92 1899)">2</text><text class="cls-30" transform="translate(1061.29 1899)">1</text><text class="cls-30" transform="translate(1105.5 1899)">0</text><text class="cls-28" transform="translate(975.63 2472.84)">1</text><text class="cls-28" transform="translate(1006.03 2472.84)">2</text><text class="cls-28" transform="translate(1037.34 2472.84)">3</text><text class="cls-28" transform="translate(1070.5 2472.84)">4</text><text class="cls-28" transform="translate(1103.66 2472.84)">5</text><text class="cls-31" transform="translate(672.53 2416.97)"><tspan class="cls-32">	</tspan><tspan class="cls-33" x="35.77" y="0">	</tspan><tspan class="cls-34" x="71.55" y="0">POWER</tspan></text><text class="cls-35" transform="translate(947.94 2416.97)">ANALOG IN</text><text class="cls-31" transform="translate(666.08 2130.51)">Arduino<tspan x="-18.95" y="39.79">Oiecimila</tspan></text></g></svg>