<svg width="1276" height="292" viewBox="0 0 1276 292" fill="none" xmlns="http://www.w3.org/2000/svg">
<path d="M20.7143 127.786H59.2857C64.4286 127.786 68.0179 127.518 70.0536 126.982C74.4464 125.911 77.9286 123.554 80.5 119.911C83.0714 116.268 84.3571 111.714 84.3571 106.25C84.3571 100.786 83.0714 96.2321 80.5 92.5893C77.9286 88.9464 74.4464 86.5893 70.0536 85.5178C67.8036 84.9821 64.2143 84.7143 59.2857 84.7143H20.7143V127.786ZM20.7143 210.714H52.8571C58.9643 210.714 63.7857 210.286 67.3214 209.429C73.6429 207.821 78.5714 204.286 82.1071 198.821C85.75 193.357 87.5714 186.714 87.5714 178.893C87.5714 170.964 85.75 164.268 82.1071 158.804C78.4643 153.339 73.5357 149.857 67.3214 148.357C63.7857 147.5 58.9643 147.071 52.8571 147.071H20.7143V210.714ZM0.14286 230V65.4286H59.2857C65.9286 65.4286 71.2321 65.9107 75.1964 66.875C83.9821 69.0178 91.1072 73.625 96.5714 80.6964C102.143 87.6607 104.929 96.1786 104.929 106.25C104.929 113.107 103.268 119.321 99.9464 124.893C96.7322 130.357 92.3929 134.75 86.9286 138.071C101.071 148.25 108.143 161.857 108.143 178.893C108.143 191.429 104.929 202.089 98.5 210.875C92.0714 219.554 83.5536 225.286 72.9464 228.071C68.125 229.357 61.4286 230 52.8571 230H0.14286Z" fill="white"/>
<path d="M221.888 232.571C208.174 232.571 196.496 225.018 186.853 209.911H185.246V291.714H164.674V65.4286H185.246V85.5178H186.853C196.496 70.4107 208.174 62.8571 221.888 62.8571C232.496 62.8571 241.924 66.2321 250.174 72.9821C258.424 79.625 264.424 88.9464 268.174 100.946C269.567 105.446 270.585 110.482 271.228 116.054C271.978 121.625 272.406 126.393 272.513 130.357C272.621 134.214 272.674 140 272.674 147.714C272.674 155.429 272.621 161.268 272.513 165.232C272.406 169.089 271.978 173.804 271.228 179.375C270.585 184.946 269.567 189.982 268.174 194.482C264.424 206.482 258.424 215.857 250.174 222.607C241.924 229.25 232.496 232.571 221.888 232.571ZM200.353 206.375C205.388 210.982 211.496 213.286 218.674 213.286C225.853 213.286 231.906 210.982 236.835 206.375C241.871 201.661 245.567 195.821 247.924 188.857C250.71 180.393 252.103 166.679 252.103 147.714C252.103 128.75 250.71 115.036 247.924 106.571C245.567 99.6071 241.871 93.8214 236.835 89.2143C231.906 84.5 225.853 82.1428 218.674 82.1428C211.496 82.1428 205.388 84.5 200.353 89.2143C195.424 93.8214 191.781 99.6071 189.424 106.571C186.638 115.036 185.246 128.75 185.246 147.714C185.246 166.679 186.638 180.393 189.424 188.857C191.781 195.821 195.424 201.661 200.353 206.375Z" fill="white"/>
<path d="M349.295 72.3393C357.973 66.0178 368.42 62.8571 380.634 62.8571C392.848 62.8571 403.241 66.0178 411.813 72.3393C420.491 78.6607 426.813 86.8036 430.777 96.7678C433.563 103.625 435.33 110.857 436.08 118.464C436.83 126.071 437.205 135.821 437.205 147.714C437.205 159.607 436.83 169.357 436.08 176.964C435.33 184.571 433.563 191.804 430.777 198.661C426.813 208.625 420.491 216.768 411.813 223.089C403.241 229.411 392.848 232.571 380.634 232.571C368.42 232.571 357.973 229.411 349.295 223.089C340.723 216.768 334.455 208.625 330.491 198.661C327.705 191.804 325.938 184.571 325.188 176.964C324.438 169.357 324.063 159.607 324.063 147.714C324.063 135.821 324.438 126.071 325.188 118.464C325.938 110.857 327.705 103.625 330.491 96.7678C334.455 86.8036 340.723 78.6607 349.295 72.3393ZM411.491 103.196C405.813 89.1607 395.527 82.1428 380.634 82.1428C365.741 82.1428 355.455 89.1607 349.777 103.196C346.348 111.768 344.634 126.607 344.634 147.714C344.634 168.821 346.348 183.661 349.777 192.232C355.455 206.268 365.741 213.286 380.634 213.286C395.527 213.286 405.813 206.268 411.491 192.232C414.92 183.661 416.634 168.821 416.634 147.714C416.634 126.607 414.92 111.768 411.491 103.196Z" fill="white"/>
<path d="M508.522 210.714H576.022V84.7143H534.879C534.772 97.3571 534.076 110.054 532.79 122.804C531.504 135.554 528.772 150.179 524.594 166.679C520.522 183.179 515.165 197.857 508.522 210.714ZM487.469 210.714C498.397 189.179 505.576 167.107 509.004 144.5C512.54 121.893 514.308 95.5357 514.308 65.4286H596.594V210.714H617.165V271.143H596.594V230H493.737V271.143H473.165V210.714H487.469Z" fill="white"/>
<path d="M673.696 147.714C673.696 155 673.75 160.625 673.857 164.589C673.964 168.446 674.393 173.107 675.143 178.571C676 184.036 677.232 188.589 678.839 192.232C684.946 206.268 695.768 213.286 711.304 213.286C722.125 213.286 738.732 210.929 761.125 206.214V225.982C739.696 230.375 723.089 232.571 711.304 232.571C698.446 232.571 687.625 229.464 678.839 223.25C670.054 217.036 663.625 208.946 659.554 198.982C656.768 192.232 655 185 654.25 177.286C653.5 169.571 653.125 159.714 653.125 147.714C653.125 135.821 653.5 126.071 654.25 118.464C655 110.857 656.768 103.625 659.554 96.7678C663.518 86.8036 669.786 78.6607 678.357 72.3393C687.036 66.0178 697.482 62.8571 709.696 62.8571C721.911 62.8571 732.304 66.0178 740.875 72.3393C749.554 78.6607 755.875 86.8036 759.839 96.7678C762.625 103.625 764.393 110.857 765.143 118.464C765.893 126.071 766.268 135.821 766.268 147.714H673.696ZM745.214 128.429C744.679 118.036 743.125 109.625 740.554 103.196C734.875 89.1607 724.589 82.1428 709.696 82.1428C694.804 82.1428 684.518 89.1607 678.839 103.196C676.268 109.625 674.714 118.036 674.179 128.429H745.214Z" fill="white"/>
<path d="M1038.76 82.1428C1030.94 82.1428 1024.19 84.0178 1018.51 87.7678C1012.94 91.5178 1009.19 96.6607 1007.26 103.196C1004.26 113.161 1002.76 128 1002.76 147.714C1002.76 154.571 1002.81 160.036 1002.92 164.107C1003.13 168.179 1003.62 172.893 1004.37 178.25C1005.12 183.607 1006.29 188.268 1007.9 192.232C1010.47 198.768 1014.44 203.911 1019.79 207.661C1025.15 211.411 1031.47 213.286 1038.76 213.286C1046.26 213.286 1052.79 211.411 1058.37 207.661C1063.94 203.804 1067.69 198.661 1069.62 192.232C1073.04 180.768 1074.76 165.929 1074.76 147.714C1074.76 127.893 1073.04 113.054 1069.62 103.196C1067.37 96.6607 1063.56 91.5178 1058.21 87.7678C1052.96 84.0178 1046.47 82.1428 1038.76 82.1428ZM1041.97 62.8571C1053.76 62.8571 1063.83 66.0714 1072.19 72.5C1080.54 78.8214 1086.33 86.9107 1089.54 96.7678C1093.4 108.554 1095.33 125.536 1095.33 147.714C1095.33 155.857 1095.22 162.179 1095.01 166.679C1094.9 171.071 1094.31 176.268 1093.24 182.268C1092.28 188.161 1090.83 193.625 1088.9 198.661C1080.01 221.268 1062.22 232.571 1035.54 232.571C1024.94 232.571 1015.4 229.357 1006.94 222.929C998.473 216.393 992.366 208.304 988.616 198.661C984.33 187.411 982.187 173.857 982.187 158C982.187 136.571 982.241 120.875 982.348 110.911C982.455 100.839 982.777 90.4464 983.312 79.7321C983.848 68.9107 984.652 61.0893 985.723 56.2678C989.58 39.4464 997.08 26.9107 1008.22 18.6607C1015.08 13.5178 1022.21 9.82141 1029.6 7.57141C1037.1 5.32141 1043.63 4.24998 1049.21 4.35712C1054.88 4.35712 1061.63 4.19641 1069.46 3.87498C1077.28 3.44641 1084.19 2.42855 1090.19 0.821411V20.5893C1083.97 21.7678 1075.83 22.5178 1065.76 22.8393C1055.69 23.1607 1047.06 23.9643 1039.88 25.25C1032.81 26.5357 1026.65 29.2678 1021.4 33.4464C1009.83 42.5536 1003.72 58.8928 1003.08 82.4643H1004.69C1010.47 75.8214 1016.21 70.8928 1021.88 67.6786C1027.56 64.4643 1034.26 62.8571 1041.97 62.8571Z" fill="white"/>
<path d="M1172.59 127.786H1181.75C1190.33 127.786 1197.02 128.429 1201.84 129.714C1212.45 132.5 1220.97 138.286 1227.4 147.071C1233.83 155.75 1237.04 166.357 1237.04 178.893C1237.04 191.429 1233.83 202.089 1227.4 210.875C1220.97 219.554 1212.45 225.286 1201.84 228.071C1197.02 229.357 1190.33 230 1181.75 230H1151.86V65.4286H1172.59V127.786ZM1172.43 147.071V210.714H1181.75C1187.86 210.714 1192.68 210.286 1196.22 209.429C1202.54 207.821 1207.47 204.286 1211 198.821C1214.65 193.357 1216.47 186.714 1216.47 178.893C1216.47 171.071 1214.65 164.429 1211 158.964C1207.47 153.5 1202.54 149.964 1196.22 148.357C1192.68 147.5 1187.86 147.071 1181.75 147.071H1172.43ZM1275.29 65.4286V230H1254.72V65.4286H1275.29Z" fill="white"/>
</svg>
